<?xml version="1.0" encoding="UTF-8"?>
<!-- Generator: visioncortex VTracer 0.6.3 -->
<svg version="1.1" xmlns="http://www.w3.org/2000/svg" width="1280" height="556" fill={dynamicFillColor}>
<path   d="M0 0 C2.19 0.19 2.19 0.19 5 1 C6.44 1.36 7.87 1.71 9.31 2.06 C10.53 2.37 11.75 2.68 13 3 C12.67 3.99 12.34 4.98 12 6 C12.99 5.34 13.98 4.68 15 4 C23 4.39 30.16 7.61 35.56 13.44 C38.31 16.62 39.37 18.86 40 23 C40.33 23.33 40.66 23.66 41 24 C43.94 29.89 43.05 36.71 42 43 C41.36 44.68 40.7 46.35 40 48 C39.86 48.89 39.71 49.77 39.56 50.69 C39 53 39 53 36 55 C35.75 55.72 35.5 56.44 35.25 57.19 C33.4 61.35 30.58 64.21 27 67 C23.44 68.19 23.44 68.19 20 69 C16.29 71.22 16.29 71.22 13 74 C11.55 74.12 10.09 74.18 8.63 74.21 C7.75 74.24 6.86 74.27 5.95 74.3 C4.07 74.35 2.2 74.39 0.32 74.43 C-0.56 74.46 -1.45 74.49 -2.37 74.52 C-3.59 74.55 -3.59 74.55 -4.84 74.58 C-7.46 75.09 -8.24 76.07 -10 78 C-12 77.88 -12 77.88 -14 77 C-14.62 76.23 -14.62 76.23 -15.25 75.44 C-17.72 73.41 -19.81 73.96 -22.87 74.09 C-27.5 73.9 -31.21 71.52 -35 69 C-35 68.01 -35 67.02 -35 66 C-35.66 66 -36.32 66 -37 66 C-37 67.98 -37 69.96 -37 72 C-41.27 72.37 -43.49 71.41 -47 69 C-47.33 69.99 -47.66 70.98 -48 72 C-48.91 72.01 -49.81 72.03 -50.75 72.04 C-57.95 72.33 -63.26 72.91 -69.33 76.94 C-71 78 -71 78 -73 78 C-74.63 76.5 -74.63 76.5 -76 75 C-76.29 75.87 -76.58 76.73 -76.88 77.62 C-77.25 78.74 -77.62 79.85 -78 81 C-78.29 82.03 -78.58 83.06 -78.88 84.12 C-80.12 87.3 -81.34 88.9 -84 91 C-84.99 91 -85.98 91 -87 91 C-86.67 89.35 -86.34 87.7 -86 86 C-85.01 86 -84.02 86 -83 86 C-83.17 85.11 -83.33 84.23 -83.5 83.31 C-83.93 80.46 -84.04 77.88 -84 75 C-84.65 76.6 -85.29 78.21 -85.94 79.81 C-86.3 80.71 -86.66 81.6 -87.03 82.52 C-87.74 84.33 -88.39 86.16 -89 88 C-89.66 88 -90.32 88 -91 88 C-91.04 88.72 -91.08 89.44 -91.12 90.19 C-92.37 94.19 -94.63 95.62 -98 98 C-100.38 98.81 -100.38 98.81 -102 99 C-101.34 99.66 -100.68 100.32 -100 101 C-100.5 101.76 -100.99 102.53 -101.5 103.31 C-103.24 105.92 -103.24 105.92 -103 109 C-103.84 109.09 -103.84 109.09 -104.69 109.19 C-110.5 111.23 -113.12 116.65 -115.79 121.82 C-117.02 124.04 -118.43 126 -120 128 C-121.7 127.72 -121.7 127.72 -123.44 127.44 C-126.59 127.03 -129.29 127.09 -132.44 127.56 C-139.64 128.52 -146.68 126.45 -153 123 C-155.83 120.48 -158.44 117.8 -161 115 C-159.77 118.42 -158.46 120.97 -156.06 123.69 C-155.56 124.27 -155.05 124.85 -154.54 125.45 C-152.88 127.23 -152.88 127.23 -150 129 C-150 129.66 -150 130.32 -150 131 C-150.64 130.87 -151.28 130.73 -151.94 130.6 C-156.95 129.58 -161.93 128.7 -167 128 C-168.67 127.68 -170.34 127.35 -172 127 C-172.5 128.98 -172.5 128.98 -173 131 C-173.99 131 -174.98 131 -176 131 C-175.67 128.03 -175.34 125.06 -175 122 C-176.3 122.09 -176.3 122.09 -177.62 122.19 C-181.44 121.98 -183.71 120.88 -187 119 C-186.01 118.01 -185.02 117.02 -184 116 C-181.69 116.99 -179.38 117.98 -177 119 C-176.61 113.41 -177.71 109.69 -180.38 104.88 C-182.45 100.98 -184.45 97.14 -186 93 C-185.55 92.63 -185.09 92.26 -184.62 91.88 C-182.41 89.32 -181.7 87.31 -181 84 C-181.58 81.64 -182.26 79.31 -183 77 C-183.32 75.42 -183.59 73.84 -183.81 72.25 C-183.92 71.51 -184.03 70.78 -184.14 70.02 C-183.95 67.35 -182.95 66.74 -181 65 C-179.35 61.13 -178.79 58.98 -180 55 C-180.56 48.77 -180.56 48.77 -178.25 45.56 C-176 44 -176 44 -172 44 C-171.67 43.01 -171.34 42.02 -171 41 C-170.34 41 -169.68 41 -169 41 C-168.92 40.46 -168.84 39.93 -168.75 39.38 C-167.74 36.18 -165.85 33.78 -164 31 C-163.81 30.26 -163.63 29.51 -163.44 28.75 C-163 27 -163 27 -160 25 C-157.67 24.92 -155.33 24.91 -153 25 C-153 24.34 -153 23.68 -153 23 C-146.25 19 -146.25 19 -144 19 C-143.67 17.35 -143.34 15.7 -143 14 C-142.28 14.35 -141.56 14.7 -140.81 15.06 C-137.6 16.13 -136.22 15.88 -133 15 C-132.11 14.86 -131.23 14.71 -130.31 14.56 C-127.82 14.17 -127.82 14.17 -126 12 C-120.34 10.74 -115.38 10.59 -110 13 C-109.67 12.34 -109.34 11.68 -109 11 C-105.73 11.45 -102.46 11.91 -99.19 12.38 C-98.26 12.5 -97.33 12.63 -96.37 12.76 C-95.48 12.89 -94.59 13.02 -93.67 13.15 C-92.85 13.26 -92.02 13.38 -91.18 13.5 C-89 14 -89 14 -86 16 C-85.67 14.68 -85.34 13.36 -85 12 C-80.25 10.88 -80.25 10.88 -78 12 C-78 12.99 -78 13.98 -78 15 C-79.98 15.66 -81.96 16.32 -84 17 C-80.09 20.55 -77.02 21.82 -72 23 C-74.31 21.02 -76.62 19.04 -79 17 C-74.61 14.81 -72.81 14.92 -68 15 C-66.33 14.8 -64.67 14.6 -63 14.38 C-58.44 13.87 -55.29 14.42 -51 16 C-50.67 15.34 -50.34 14.68 -50 14 C-48.88 12.44 -48.88 12.44 -47 11 C-44.67 10.63 -42.34 10.31 -40 10 C-35.12 8.66 -35.12 8.66 -31 6 C-29.04 6 -27.07 6 -25.11 6.06 C-23.04 6.08 -23.04 6.08 -21.24 5.55 C-17.17 4.55 -12.93 4.31 -8.76 3.93 C-4.8 3.49 -2.53 3.15 0 0 Z M23 15 C23 15.66 23 16.32 23 17 C23.66 16.67 24.32 16.34 25 16 C24.34 15.67 23.68 15.34 23 15 Z M-66 23 C-66 23.66 -66 24.32 -66 25 C-63.53 25.5 -63.53 25.5 -61 26 C-61 25.01 -61 24.02 -61 23 C-62.65 23 -64.3 23 -66 23 Z M-60 25 C-59.67 25.66 -59.34 26.32 -59 27 C-58.34 26.67 -57.68 26.34 -57 26 C-57.99 25.67 -58.98 25.34 -60 25 Z M-38 62 C-38.33 63.32 -38.66 64.64 -39 66 C-38.34 66 -37.68 66 -37 66 C-37.33 64.68 -37.66 63.36 -38 62 Z "  transform="translate(269,123)"/>
<path id="dynamicPath"  d="M0 0 C1.63 1.04 1.63 1.04 3.95 2.98 C3.95 3.64 3.95 4.3 3.95 4.98 C4.56 5.02 5.18 5.06 5.82 5.1 C6.52 5.39 7.22 5.68 7.95 5.98 C8.62 7.97 9.29 9.97 9.95 11.98 C11.27 12.66 12.6 13.33 13.95 13.98 C18.17 19.55 17.54 26.32 16.95 32.98 C15.91 37.9 14.73 41.56 10.95 44.98 C11.61 44.98 12.27 44.98 12.95 44.98 C12.62 45.9 12.29 46.83 11.95 47.79 C10.8 50.9 10.8 50.9 10.95 53.98 C9.95 55.98 9.95 55.98 6.57 57.79 C3.11 59.68 1.92 61.55 -0.05 64.98 C-1.02 65.62 -1.99 66.26 -2.99 66.91 C-7.24 69.78 -9.51 72.88 -10.8 77.85 C-10.89 78.55 -10.97 79.25 -11.05 79.98 C-11.65 79.77 -12.25 79.56 -12.87 79.35 C-15.34 78.67 -15.34 78.67 -18.05 80.98 C-18.38 81.97 -18.71 82.96 -19.05 83.98 C-20.68 85.68 -22.35 87.35 -24.05 88.98 C-24.71 89.64 -25.37 90.3 -26.05 90.98 C-28.68 91.1 -28.68 91.1 -31.05 90.98 C-31.46 92.55 -31.46 92.55 -31.87 94.16 C-32.94 97.6 -33.84 100.16 -36.05 102.98 C-37.37 102.98 -38.69 102.98 -40.05 102.98 C-39.95 103.68 -39.85 104.38 -39.74 105.1 C-40.2 109.34 -42.1 110.95 -45.05 113.98 C-45.71 113.98 -46.37 113.98 -47.05 113.98 C-47.38 110.68 -47.71 107.38 -48.05 103.98 C-50.59 108.79 -50.21 113.32 -50.05 118.6 C-50 120.3 -49.96 122 -49.93 123.7 C-49.91 124.45 -49.88 125.2 -49.86 125.97 C-50.17 129.16 -52.01 130.93 -54.12 133.23 C-56.32 135.91 -56.32 135.91 -56.55 139.54 C-57.15 143.6 -58.06 144.33 -61.05 146.98 C-61.65 147.93 -62.25 148.87 -62.87 149.85 C-65.09 153.03 -67.33 155.09 -70.3 157.52 C-72.72 159.53 -74.87 161.73 -77.05 163.98 C-77.05 163.32 -77.05 162.66 -77.05 161.98 C-78.04 161.98 -79.03 161.98 -80.05 161.98 C-80.05 162.97 -80.05 163.96 -80.05 164.98 C-79.39 165.31 -78.73 165.64 -78.05 165.98 C-78.71 165.98 -79.37 165.98 -80.05 165.98 C-79.72 167.3 -79.39 168.62 -79.05 169.98 C-79.98 169.94 -80.91 169.89 -81.87 169.85 C-85.21 169.71 -85.21 169.71 -88.05 171.98 C-89 172.24 -89.95 172.51 -90.93 172.79 C-94.24 173.8 -94.24 173.8 -96.62 176.6 C-99.05 178.98 -99.05 178.98 -101.8 179.35 C-104.05 178.98 -104.05 178.98 -105.05 177.98 C-111.85 177.05 -117.13 178.69 -123.05 181.98 C-123.38 182.31 -123.71 182.64 -124.05 182.98 C-127.53 183.46 -128.83 183.12 -131.8 181.16 C-134.05 178.98 -134.05 178.98 -135.05 175.98 C-138.5 175.43 -141.75 174.97 -145.24 175.04 C-148.13 174.97 -149.62 174.47 -152.05 172.98 C-152.05 172.32 -152.05 171.66 -152.05 170.98 C-152.71 170.98 -153.37 170.98 -154.05 170.98 C-154.05 170.32 -154.05 169.66 -154.05 168.98 C-154.71 168.98 -155.37 168.98 -156.05 168.98 C-156.37 168 -156.37 168 -156.69 167 C-157.36 166 -157.36 166 -158.05 164.98 C-160.81 164.53 -160.81 164.53 -163.93 164.66 C-169.6 164.38 -169.6 164.38 -171.63 162.58 C-172.64 160.74 -173.37 158.96 -174.05 156.98 C-176.03 152.87 -177.86 149.27 -181.05 145.98 C-183.69 145.1 -183.69 145.1 -186.05 144.98 C-186.38 147.29 -186.71 149.6 -187.05 151.98 C-188.04 151.98 -189.03 151.98 -190.05 151.98 C-190.11 150.35 -190.15 148.73 -190.18 147.1 C-190.21 145.74 -190.21 145.74 -190.25 144.36 C-190.05 141.98 -190.05 141.98 -188.05 139.98 C-187.81 137.08 -187.81 137.08 -187.93 133.85 C-187.95 132.76 -187.97 131.66 -187.98 130.53 C-188.01 129.69 -188.03 128.85 -188.05 127.98 C-187.06 127.65 -186.07 127.32 -185.05 126.98 C-185.12 125.43 -185.12 125.43 -185.18 123.85 C-185.06 120.11 -184.41 117.44 -183.05 113.98 C-182.06 114.31 -181.07 114.64 -180.05 114.98 C-179.14 117.34 -179.14 117.34 -178.43 120.29 C-178.19 121.25 -177.95 122.22 -177.7 123.21 C-177.49 124.13 -177.28 125.04 -177.05 125.98 C-176.72 127.31 -176.39 128.64 -176.05 129.98 C-175.72 129.65 -175.39 129.32 -175.05 128.98 C-175.37 127.63 -175.73 126.3 -176.12 124.98 C-177.34 119.81 -176.6 115.98 -175.05 110.98 C-174.72 109.84 -174.39 108.71 -174.05 107.54 C-173.05 104.98 -173.05 104.98 -171.05 102.98 C-166.63 98.66 -166.63 98.66 -164.68 93.04 C-164.8 92.36 -164.93 91.68 -165.05 90.98 C-162.56 89.73 -161.64 90.2 -159.05 90.98 C-159.05 90.65 -159.05 90.32 -159.05 89.98 C-158.17 89.95 -158.17 89.95 -157.27 89.92 C-154.59 89.82 -151.92 89.71 -149.24 89.6 C-148.31 89.57 -147.38 89.54 -146.43 89.51 C-145.54 89.47 -144.64 89.43 -143.72 89.39 C-142.9 89.36 -142.08 89.33 -141.23 89.3 C-138.77 89.09 -138.77 89.09 -136.05 86.98 C-134.12 87.25 -134.12 87.25 -132.05 87.91 C-128.94 88.9 -128.31 89.06 -125.05 87.98 C-124.72 87.32 -124.39 86.66 -124.05 85.98 C-114.79 83.65 -105.92 86.28 -97.05 88.98 C-97.38 87.99 -97.71 87 -98.05 85.98 C-98.8 85.83 -99.54 85.69 -100.3 85.54 C-102.57 85.07 -104.81 84.56 -107.05 83.98 C-107.05 83.32 -107.05 82.66 -107.05 81.98 C-109.03 82.64 -111.01 83.3 -113.05 83.98 C-113.05 82.66 -113.05 81.34 -113.05 79.98 C-111.41 79.78 -109.76 79.6 -108.12 79.41 C-107.2 79.31 -106.28 79.21 -105.34 79.1 C-104.59 79.06 -103.83 79.02 -103.05 78.98 C-102.72 79.31 -102.39 79.64 -102.05 79.98 C-101.09 79.98 -100.12 79.98 -99.12 79.98 C-96.05 79.98 -96.05 79.98 -94.05 80.98 C-94.38 79.66 -94.71 78.34 -95.05 76.98 C-94.31 76.56 -93.57 76.15 -92.8 75.73 C-90 74.08 -90 74.08 -87.87 71.79 C-87.27 71.19 -86.67 70.59 -86.05 69.98 C-85.39 69.98 -84.73 69.98 -84.05 69.98 C-83.98 69.35 -83.91 68.72 -83.83 68.08 C-83.43 65.57 -82.99 63.34 -82.05 60.98 C-79.05 59.85 -79.05 59.85 -76.05 58.98 C-75.31 56.67 -74.64 54.33 -74.05 51.98 C-72.12 50.48 -72.12 50.48 -70.05 49.98 C-68.57 50.47 -68.57 50.47 -67.05 50.98 C-67.22 50.3 -67.38 49.62 -67.55 48.91 C-68.61 42.7 -68.37 38.96 -65 33.74 C-63.8 31.75 -63.8 31.75 -63.55 28.23 C-63.05 24.98 -63.05 24.98 -61.12 23.04 C-59.05 21.98 -59.05 21.98 -57.05 21.98 C-56.9 20.83 -56.9 20.83 -56.74 19.66 C-55.97 16.66 -55.23 16.06 -53.05 13.98 C-52.54 12.95 -52.02 11.91 -51.49 10.85 C-50.05 7.98 -50.05 7.98 -48.05 6.98 C-47.06 7.47 -47.06 7.47 -46.05 7.98 C-46.05 7.32 -46.05 6.66 -46.05 5.98 C-42.83 3.82 -41.77 3.78 -38.05 3.98 C-37.72 3.32 -37.39 2.66 -37.05 1.98 C-36.06 1.65 -35.07 1.32 -34.05 0.98 C-33.72 -0.01 -33.39 -1 -33.05 -2.02 C-28.06 -2.89 -23.35 -3.09 -18.29 -2.96 C-6.6 -3.29 -6.6 -3.29 0 0 Z M6.95 26.98 C6.95 27.64 6.95 28.3 6.95 28.98 C7.61 28.98 8.27 28.98 8.95 28.98 C8.95 28.32 8.95 27.66 8.95 26.98 C8.29 26.98 7.63 26.98 6.95 26.98 Z M-45.05 92.98 C-45.38 93.64 -45.71 94.3 -46.05 94.98 C-45.39 94.98 -44.73 94.98 -44.05 94.98 C-44.38 94.32 -44.71 93.66 -45.05 92.98 Z M-52.05 108.98 C-52.05 111.95 -52.05 114.92 -52.05 117.98 C-51.72 117.98 -51.39 117.98 -51.05 117.98 C-51.05 115.01 -51.05 112.04 -51.05 108.98 C-51.38 108.98 -51.71 108.98 -52.05 108.98 Z M-174.05 130.98 C-173.05 133.98 -173.05 133.98 -173.05 133.98 Z " transform="translate(426.0546875,136.0234375)"/>
<path id="dynamicPath"  d="M0 0 C0 0.66 0 1.32 0 2 C0.93 2.1 1.86 2.21 2.81 2.31 C6.22 3.05 6.8 3.51 9 6 C10.14 6.68 10.14 6.68 11.31 7.38 C13.49 8.69 15.21 9.97 17.12 11.62 C19.82 14.14 19.82 14.14 23 15 C24.35 16.31 25.69 17.65 27 19 C27.66 19.33 28.32 19.66 29 20 C29 20.66 29 21.32 29 22 C30.98 22.5 30.98 22.5 33 23 C33 23.66 33 24.32 33 25 C34.73 25.15 34.73 25.15 36.5 25.31 C42.14 26.02 46.98 27.95 52 30.56 C55.03 32.2 55.03 32.2 58.81 32.56 C64.88 33.88 68.29 39.4 72 44 C72.33 44.33 72.66 44.66 73 45 C73.18 47.41 73.28 49.77 73.31 52.19 C73.37 54.16 73.37 54.16 73.43 56.17 C72.94 60.54 71.76 62.62 69 66 C66.87 67.19 66.87 67.19 65 68 C64.34 68.99 63.68 69.98 63 71 C60.11 71.25 57.45 71.33 54.56 71.25 C53.79 71.24 53.01 71.24 52.21 71.23 C48.91 71.19 46.15 71.05 43 70 C43 69.34 43 68.68 43 68 C42.08 67.76 42.08 67.76 41.14 67.52 C34.41 65.58 34.41 65.58 32.12 62.38 C31.75 61.59 31.38 60.81 31 60 C29.51 59.5 29.51 59.5 28 59 C27.67 58.01 27.34 57.02 27 56 C25.05 55.41 25.05 55.41 23 55 C22.34 54.34 21.68 53.68 21 53 C20.01 53.5 20.01 53.5 19 54 C19 53.01 19 52.02 19 51 C15.91 49.6 12.78 48.59 9.5 47.75 C8.77 47.56 8.04 47.37 7.28 47.17 C4.39 46.95 2.67 47.92 0 49 C-2.82 49.12 -2.82 49.12 -5.69 49 C-8.5 48.83 -8.5 48.83 -11 49 C-11.99 49.99 -11.99 49.99 -13 51 C-14.92 51.56 -14.92 51.56 -17.19 52 C-21.2 52.82 -25.08 53.83 -29 55 C-29.33 54.34 -29.66 53.68 -30 53 C-32.04 52.81 -34.08 52.61 -36.12 52.42 C-38 52 -38 52 -39.5 49.94 C-39.75 48.98 -39.75 48.98 -40 48 C-39.67 47.67 -39.34 47.34 -39 47 C-39.66 46.34 -40.32 45.68 -41 45 C-42.32 45 -43.64 45 -45 45 C-45.8 44.34 -46.61 43.68 -47.44 43 C-50.31 40.76 -51.47 40.6 -55 41 C-55.33 41.99 -55.66 42.98 -56 44 C-58 44.62 -58 44.62 -60 45 C-60.33 45.33 -60.66 45.66 -61 46 C-66.05 46.71 -70.89 46.99 -75.57 44.79 C-78.74 42.37 -80.65 40.41 -81.62 36.48 C-81.82 32.37 -81.29 29.6 -79.5 25.88 C-76.66 23.74 -74.75 23.41 -71.22 23.64 C-66.22 24.46 -61.65 26 -57.31 28.62 C-54.56 30.26 -52.16 30.63 -49 31 C-48.85 27.37 -48.85 27.37 -50 24 C-48.75 21.44 -48.75 21.44 -47 19 C-46.01 18.67 -45.02 18.34 -44 18 C-42.93 16.2 -42.93 16.2 -42 14 C-40.75 11.38 -40.75 11.38 -39 9 C-37 8.32 -35 7.65 -33 7 C-32.34 5.02 -32.34 5.02 -32 3 C-23.47 -2.04 -9.41 -2.96 0 0 Z M21 16 C21 16.99 21 17.98 21 19 C21.66 19 22.32 19 23 19 C22.67 18.01 22.34 17.02 22 16 C21.67 16 21.34 16 21 16 Z M-53 34 C-53.33 35.32 -53.66 36.64 -54 38 C-53.01 38 -52.02 38 -51 38 C-51.33 36.68 -51.66 35.36 -52 34 C-52.33 34 -52.66 34 -53 34 Z M0 45 C1 47 1 47 1 47 Z M-38 48 C-37 50 -37 50 -37 50 Z " transform="translate(646,94)"/>
<path  id="dynamicPath" d="M0 0 C1.19 0.09 2.39 0.18 3.62 0.27 C10.01 1.15 14.11 2.57 18.12 7.75 C21.37 13.95 23.05 19.56 21.23 26.45 C19.25 30.57 16.02 33.42 12.12 35.75 C11.13 35.75 10.14 35.75 9.12 35.75 C9.12 36.41 9.12 37.07 9.12 37.75 C6.82 37.75 4.5 37.75 2.12 37.75 C2.12 38.41 2.12 39.07 2.12 39.75 C0.46 39.93 0.46 39.93 -1.23 40.12 C-2.7 40.29 -4.16 40.46 -5.62 40.62 C-6.35 40.7 -7.08 40.78 -7.84 40.86 C-11.6 41.31 -14.58 41.89 -17.88 43.75 C-20.21 44.09 -22.54 44.42 -24.88 44.75 C-27.42 45.64 -29.69 46.65 -32.06 47.94 C-32.66 48.21 -33.26 48.47 -33.88 48.75 C-34.53 48.42 -35.19 48.09 -35.88 47.75 C-36.37 48.74 -36.37 48.74 -36.88 49.75 C-36.22 50.08 -35.56 50.41 -34.88 50.75 C-35.92 51.15 -35.92 51.15 -36.99 51.55 C-37.9 51.91 -38.81 52.26 -39.75 52.62 C-40.65 52.97 -41.56 53.32 -42.49 53.68 C-45 54.64 -45 54.64 -46.88 56.75 C-49.5 56.88 -49.5 56.88 -51.88 56.75 C-51.88 57.41 -51.88 58.07 -51.88 58.75 C-52.63 58.87 -53.39 58.99 -54.18 59.12 C-55.67 59.37 -55.67 59.37 -57.19 59.62 C-58.67 59.87 -58.67 59.87 -60.18 60.12 C-63.08 60.63 -63.08 60.63 -65.88 62.75 C-65.88 62.09 -65.88 61.43 -65.88 60.75 C-66.63 60.77 -67.39 60.8 -68.18 60.82 C-69.17 60.84 -70.16 60.86 -71.19 60.88 C-72.67 60.91 -72.67 60.91 -74.18 60.95 C-76.88 60.75 -76.88 60.75 -79.88 58.75 C-79.88 58.09 -79.88 57.43 -79.88 56.75 C-80.91 56.6 -80.91 56.6 -81.96 56.45 C-82.86 56.3 -83.76 56.15 -84.69 56 C-85.58 55.86 -86.47 55.72 -87.39 55.58 C-90.45 54.56 -91.35 53.56 -92.88 50.75 C-92.88 49.43 -92.88 48.11 -92.88 46.75 C-93.8 46.32 -93.8 46.32 -94.75 45.88 C-96.88 44.75 -96.88 44.75 -98.88 42.75 C-99 39.62 -99 39.62 -98.88 36.75 C-99.53 36.75 -100.2 36.75 -100.88 36.75 C-100.88 35.76 -100.88 34.77 -100.88 33.75 C-101.87 33.42 -102.86 33.09 -103.88 32.75 C-103.88 29.45 -103.88 26.15 -103.88 22.75 C-106.64 21.37 -107.79 22.18 -110.69 23.12 C-116.16 24.9 -120.2 26.06 -125.88 24.75 C-127.2 24.75 -128.51 24.75 -129.88 24.75 C-132.39 22.82 -133.66 20.65 -134.88 17.75 C-135.1 13.46 -134.6 9.83 -132.19 6.25 C-129.34 4.41 -127.24 4.02 -123.88 3.75 C-122.67 3.63 -122.67 3.63 -121.44 3.5 C-117.84 3.85 -115.14 5.21 -111.88 6.75 C-111.88 7.41 -111.88 8.07 -111.88 8.75 C-110.55 8.75 -109.24 8.75 -107.88 8.75 C-106.85 10.06 -105.85 11.4 -104.88 12.75 C-103.88 12.75 -102.89 12.75 -101.88 12.75 C-101.19 12.07 -101.19 12.07 -100.5 11.38 C-98.44 9.31 -96.66 8.57 -93.88 7.75 C-91.56 8.12 -91.56 8.12 -89.88 8.75 C-89.54 7.1 -89.22 5.45 -88.88 3.75 C-88.32 3.96 -87.76 4.16 -87.19 4.38 C-84.2 4.86 -82.63 3.92 -79.88 2.75 C-78.55 2.75 -77.24 2.75 -75.88 2.75 C-75.44 3.37 -75.01 3.99 -74.56 4.62 C-72.16 7.65 -69.55 7.75 -65.88 8.75 C-64.42 9.8 -64.42 9.8 -62.94 10.88 C-58.88 13.36 -56.57 12.9 -51.88 12.75 C-50.88 13.41 -49.89 14.07 -48.88 14.75 C-48.88 15.41 -48.88 16.07 -48.88 16.75 C-47.82 16.5 -47.82 16.5 -46.75 16.25 C-43.88 15.75 -43.88 15.75 -40.81 15.88 C-37.37 15.73 -36.49 14.86 -33.88 12.75 C-32.21 12.4 -30.55 12.07 -28.88 11.75 C-28.54 11.09 -28.22 10.43 -27.88 9.75 C-27.22 9.75 -26.56 9.75 -25.88 9.75 C-25.38 10.74 -25.38 10.74 -24.88 11.75 C-24.22 10.76 -23.56 9.77 -22.88 8.75 C-23.37 7.76 -23.37 7.76 -23.88 6.75 C-23.03 6.48 -22.18 6.21 -21.31 5.94 C-17.12 4.49 -12.87 2.99 -9.09 0.64 C-5.94 -0.63 -3.37 -0.28 0 0 Z M-88.88 5.75 C-87.88 7.75 -87.88 7.75 -87.88 7.75 Z M-93.88 9.75 C-93.54 10.41 -93.22 11.07 -92.88 11.75 C-92.54 11.09 -92.22 10.43 -91.88 9.75 C-92.53 9.75 -93.2 9.75 -93.88 9.75 Z M-108.88 12.75 C-108.88 13.41 -108.88 14.07 -108.88 14.75 C-108.22 14.42 -107.55 14.09 -106.88 13.75 C-107.53 13.42 -108.2 13.09 -108.88 12.75 Z M-106.88 14.75 C-105.88 16.24 -105.88 16.24 -104.88 17.75 C-104.88 16.76 -104.88 15.77 -104.88 14.75 C-105.53 14.75 -106.2 14.75 -106.88 14.75 Z M-53.88 15.75 C-53.22 16.41 -52.56 17.07 -51.88 17.75 C-51.54 17.09 -51.22 16.43 -50.88 15.75 C-51.87 15.75 -52.86 15.75 -53.88 15.75 Z " transform="translate(753.875,169.25)"/>
<path  id="dynamicPath" d="M0 0 C4.22 0.16 6.48 0.61 9.88 3.19 C12.2 6.26 12.73 8.2 13 12 C15.31 12.33 17.62 12.66 20 13 C19.28 10.98 19.28 10.98 18 9 C17.34 8.86 16.68 8.71 16 8.56 C15.34 8.38 14.68 8.19 14 8 C12.69 5.56 12.69 5.56 12 3 C12.33 2.34 12.66 1.68 13 1 C19.35 1.6 19.35 1.6 21.81 3.12 C23 5 23 5 23.69 8.5 C24.58 12 24.58 12 26.76 13.05 C28.82 13.79 30.89 14.42 33 15 C38.88 17.35 42.61 22.64 46.58 27.37 C48.08 29.14 48.08 29.14 50.25 31.12 C52 33 52 33 52.94 35.44 C55.25 41.01 59.67 43.64 65 46 C65 46.66 65 47.32 65 48 C65.74 48.08 66.49 48.16 67.25 48.25 C70.54 49.15 71.86 50.38 74 53 C74 53.66 74 54.32 74 55 C74.77 55.23 75.53 55.46 76.32 55.7 C79.59 57.29 80.31 58.58 81.88 61.81 C82.31 62.66 82.74 63.52 83.18 64.39 C84.62 68.98 82.9 72.76 81 77 C78.83 80.26 77.15 81.27 73.5 82.57 C67.67 83.58 61.53 81.84 56 80 C52.19 76.66 50.17 73.53 48 69 C46.67 67.33 45.34 65.66 44 64 C44 63.34 44 62.68 44 62 C43.46 61.77 42.93 61.55 42.38 61.31 C40 60 40 60 37.19 57.44 C34 54.67 31.19 54.4 27 54 C26.01 53.34 25.02 52.68 24 52 C21.3 51.79 19.09 51.98 16.44 52.56 C13.83 53.03 12.52 52.63 10 52 C9.22 52.23 8.43 52.45 7.62 52.69 C3.77 53.15 2.03 51.22 -1 49 C-1.66 49 -2.32 49 -3 49 C-5.88 42.38 -5.88 42.38 -7 39 C-8.49 38.5 -8.49 38.5 -10 38 C-10 37.34 -10 36.68 -10 36 C-10.99 36.66 -11.98 37.32 -13 38 C-15.6 38.14 -18.09 38.19 -20.69 38.12 C-21.39 38.12 -22.09 38.11 -22.81 38.1 C-24.54 38.07 -26.27 38.04 -28 38 C-28 37.34 -28 36.68 -28 36 C-28.66 35.67 -29.32 35.34 -30 35 C-30 34.01 -30 33.02 -30 32 C-30.66 31.67 -31.32 31.34 -32 31 C-31.64 23.6 -31.64 23.6 -28.81 20.94 C-25.46 19.82 -23.39 20.13 -20 21 C-20 21.66 -20 22.32 -20 23 C-19.28 23.08 -18.56 23.16 -17.81 23.25 C-14.42 24.15 -12.66 25.75 -10 28 C-8.69 28.71 -7.36 29.39 -6 30 C-6 28.68 -6 27.36 -6 26 C-3.73 23.27 -2.4 22.13 1 21 C1.33 20.34 1.66 19.68 2 19 C2.66 19 3.32 19 4 19 C4 18.34 4 17.68 4 17 C5.98 16.01 7.96 15.02 10 14 C10 13.34 10 12.68 10 12 C9.46 11.73 8.91 11.47 8.36 11.2 C7.28 10.67 7.28 10.67 6.19 10.12 C5.48 9.78 4.77 9.43 4.04 9.07 C2 8 2 8 -1 6 C-1.25 3.44 -1.25 3.44 -1 1 C-0.67 0.67 -0.34 0.34 0 0 Z M9 6 C10 8 10 8 10 8 Z M-3 44 C-2 47 -2 47 -2 47 Z "  transform="translate(944,203)"/>
<path  id="dynamicPath" d="M0 0 C0 0.66 0 1.32 0 2 C0.84 2.12 0.84 2.12 1.69 2.25 C5.47 3.48 8.26 5.62 10.15 9.14 C10.43 9.75 10.71 10.37 11 11 C11.61 10.92 12.23 10.83 12.86 10.75 C13.67 10.64 14.48 10.54 15.31 10.44 C16.11 10.33 16.91 10.23 17.74 10.12 C20 10 20 10 23 11 C23.66 10.67 24.32 10.34 25 10 C25 9.34 25 8.68 25 8 C32.54 8.63 36.47 11.69 41.57 17.01 C45.15 20.64 48.11 21.8 53 23 C53.5 23.99 53.5 23.99 54 25 C59.63 26.88 65.44 28.2 70.94 25.62 C77.89 22.46 86.7 20.83 94.06 23.19 C95.39 23.75 96.71 24.35 98 25 C98.95 25.45 99.9 25.91 100.88 26.38 C105.04 29.56 106.16 32.88 106.88 37.94 C107.21 42.43 106.64 45.23 104 49 C101 51 101 51 97.88 51.5 C96.93 51.67 95.98 51.83 95 52 C94.51 52.99 94.51 52.99 94 54 C92.52 53.5 92.52 53.5 91 53 C89.52 52.91 88.04 52.87 86.56 52.88 C85.8 52.87 85.04 52.87 84.25 52.87 C81.98 52.93 81.98 52.93 79.78 53.57 C79.19 53.71 78.6 53.85 78 54 C77.67 53.67 77.34 53.34 77 53 C74.34 52.9 71.72 52.86 69.06 52.88 C67.95 52.87 67.95 52.87 66.81 52.86 C62.78 52.78 62.78 52.78 59 54 C56.41 54.31 53.82 54.51 51.21 54.72 C49.03 54.77 49.03 54.77 48 56 C45.14 56.24 42.3 56.42 39.44 56.56 C38.63 56.61 37.82 56.65 36.99 56.69 C35 56.8 33 56.9 31 57 C30.67 56.34 30.34 55.68 30 55 C27.67 54.62 25.34 54.29 23 54 C22.01 53.5 22.01 53.5 21 53 C21 53.66 21 54.32 21 55 C20.34 55 19.68 55 19 55 C19 55.66 19 56.32 19 57 C17.68 56.67 16.36 56.34 15 56 C15 56.66 15 57.32 15 58 C12.62 58.12 12.62 58.12 10 58 C8 56 8 56 7.88 53.38 C7.92 52.59 7.96 51.81 8 51 C12.61 49.7 16.34 50.29 21 51 C21 50.34 21 49.68 21 49 C20.05 48.71 19.1 48.42 18.12 48.12 C15 47 15 47 13 45 C11.53 40.67 10.76 36.51 10.29 31.99 C9.99 29.95 9.49 28.09 8.88 26.12 C8 23 8 23 9 21 C9.66 21 10.32 21 11 21 C10.67 20.01 10.34 19.02 10 18 C9.34 18.33 8.68 18.66 8 19 C6.17 19.12 4.33 19.18 2.5 19.19 C1.52 19.2 0.54 19.22 -0.47 19.23 C-3 19 -3 19 -5 17 C-6.99 16.6 -8.99 16.26 -11 16 C-11.22 14.23 -11.43 12.46 -11.62 10.69 C-11.74 9.7 -11.86 8.72 -11.98 7.7 C-12 5 -12 5 -10 2 C-6.54 0.8 -3.67 0 0 0 Z "  transform="translate(954,276)"/>
<path  id="dynamicPath" d="M0 0 C3.3 0.33 4.62 0.62 7 3 C7.38 5.71 7.38 5.71 7.56 8.94 C7.76 12.24 7.95 14.85 9 18 C10.98 18 12.96 18 15 18 C14 15.77 13.29 14.24 11.38 12.69 C9.19 10 9.81 7.33 10 4 C11.98 4 13.96 4 16 4 C16.66 6.64 17.32 9.28 18 12 C18.99 11.34 19.98 10.68 21 10 C23.56 9.69 23.56 9.69 26 10 C28.56 13.84 28.09 16.15 27.88 20.62 C27.81 23.27 27.81 23.27 30 26 C30.99 26.33 31.98 26.66 33 27 C36.7 33.52 38.56 39.55 38 47 C38.33 47.33 38.66 47.66 39 48 C39.22 49.73 39.22 49.73 39.44 51.5 C39.62 52.65 39.81 53.81 40 55 C40.66 55.33 41.32 55.66 42 56 C42.37 57.32 42.7 58.66 43 60 C44.62 63.15 46.31 66.24 48.03 69.34 C51.41 75.52 53.53 80.8 53 88 C51.55 92.36 48.66 94.15 44.69 96.19 C41.09 97.28 38.75 97.58 35 97 C32.33 94.94 30.2 92.54 28 90 C27.46 89.48 26.92 88.96 26.37 88.42 C22.23 84.12 22.6 77.41 22.25 71.8 C22.04 69.4 21.6 67.32 21 65 C21 64.01 21 63.02 21 62 C20.34 62 19.68 62 19 62 C18.75 61.36 18.51 60.72 18.25 60.06 C17.22 57.83 17.22 57.83 15.12 57.5 C14.42 57.33 13.72 57.17 13 57 C12.4 56.38 11.8 55.76 11.19 55.12 C8 52.03 4.22 50.72 0.03 49.36 C-1.88 48.69 -1.88 48.69 -5 47 C-5.94 43.81 -5.94 43.81 -6 41 C-6.66 41 -7.32 41 -8 41 C-9.58 36.67 -10.45 32.57 -11 28 C-12.03 27.94 -13.06 27.88 -14.12 27.81 C-18.86 26.82 -20.81 25.64 -24 22 C-25.03 18.93 -25.35 16.22 -25 13 C-23.5 10.44 -23.5 10.44 -21 9 C-17.62 8.19 -17.62 8.19 -14 9 C-11.48 11.72 -9.75 14.75 -8 18 C-7.66 18.64 -7.31 19.28 -6.96 19.93 C-6.27 21.27 -5.63 22.63 -5 24 C-4.63 23.55 -4.26 23.09 -3.88 22.62 C-1.42 20.5 0.88 19.8 4 19 C4.66 19.33 5.32 19.66 6 20 C6 18.35 6 16.7 6 15 C5.34 15 4.68 15 4 15 C3.18 13.59 2.37 12.17 1.56 10.75 C1.11 9.96 0.66 9.17 0.19 8.36 C-0.91 6.18 -1.71 4.43 -2 2 C-1.34 1.34 -0.68 0.68 0 0 Z M19 13 C18.34 14.32 17.68 15.64 17 17 C18.32 18.32 19.64 19.64 21 21 C22.21 17.38 21.54 16.36 20 13 C19.67 13 19.34 13 19 13 Z M-12 15 C-11 17 -11 17 -11 17 Z M23 19 C22.67 19.66 22.34 20.32 22 21 C22.99 20.67 23.98 20.34 25 20 C24.34 19.67 23.68 19.34 23 19 Z "  transform="translate(1173,386)"/>
<path  id="dynamicPath" d="M0 0 C0.95 0.47 1.9 0.95 2.88 1.44 C3.96 1.78 3.96 1.78 5.06 2.12 C8.83 4.85 9.69 9.52 10.56 13.88 C10.67 14.72 10.77 15.57 10.88 16.44 C12.27 16.75 13.67 17.06 15.06 17.38 C15.88 17.56 16.71 17.74 17.55 17.93 C19.26 18.3 20.97 18.63 22.69 18.94 C25.15 19.5 26.82 19.95 28.88 21.44 C30.45 25.06 30.88 27.46 30.88 31.44 C31.54 31.44 32.19 31.44 32.88 31.44 C33.29 32.47 33.7 33.5 34.12 34.56 C36.43 39.93 39.42 45.98 45.04 48.35 C49.22 49.56 53.15 50.55 57.5 50.88 C63.27 51.39 67.78 53.68 72.19 57.38 C72.74 58.06 73.3 58.74 73.88 59.44 C74.47 60.12 75.07 60.8 75.69 61.5 C77.59 66.2 77.19 70.59 75.88 75.44 C73.53 78.93 70.61 80.24 66.56 81.31 C65.68 81.35 64.79 81.39 63.88 81.44 C63.55 81.11 63.21 80.78 62.88 80.44 C61.53 80.14 60.17 79.87 58.81 79.62 C52.82 78.35 47.94 75.82 42.88 72.44 C42.88 71.78 42.88 71.12 42.88 70.44 C42.15 70.31 41.43 70.19 40.69 70.06 C37.9 69.44 35.52 68.51 32.88 67.44 C29.18 66.25 25.87 65.44 22 65.06 C17.2 64.56 13.16 62.57 8.88 60.44 C8.88 59.45 8.88 58.46 8.88 57.44 C7.56 56.78 6.23 56.12 4.88 55.44 C4.88 54.78 4.88 54.12 4.88 53.44 C3.88 53.44 2.89 53.44 1.88 53.44 C1.61 52.34 1.34 51.25 1.06 50.12 C-0 46.82 -0.47 45.49 -3.12 43.44 C-2.46 43.44 -1.81 43.44 -1.12 43.44 C-1 42.68 -0.88 41.91 -0.76 41.13 C1.3 28.43 1.3 28.43 2.88 22.44 C3.54 22.11 4.19 21.78 4.88 21.44 C5.2 20.45 5.54 19.46 5.88 18.44 C4.7 18.44 3.52 18.44 2.31 18.44 C-2.61 17.84 -4.76 15.29 -7.88 11.64 C-9.39 8.97 -9.57 7.46 -9.12 4.44 C-4.44 -0.8 -4.44 -0.8 0 0 Z "  transform="translate(1159.125,448.5625)"/>
<path  id="dynamicPath" d="M0 0 C7.43 1.26 12.62 2.87 17.38 9.12 C19.65 13.5 19.72 18.19 19 23 C18.34 23.99 17.68 24.98 17 26 C16.5 24.51 16.5 24.51 16 23 C15.01 23.5 15.01 23.5 14 24 C14.09 25.61 14.09 25.61 14.19 27.25 C13.99 31.17 13.76 32.34 11 35 C9.68 35.68 8.34 36.35 7 37 C6.34 37.66 5.68 38.32 5 39 C3.05 40.95 1.44 41.82 -1 43 C-1.33 43.66 -1.66 44.32 -2 45 C-5 44 -5 44 -7 43 C-8.52 43.06 -10.04 43.15 -11.56 43.25 C-17.41 43.28 -21.52 41.78 -26 38 C-31.44 31.4 -32 24.26 -32 16 C-31.7 12.98 -31.51 11.48 -29.27 9.37 C-25.97 7.38 -23.02 7.59 -19.24 7.5 C-18.5 7.34 -17.76 7.17 -17 7 C-15.79 5.08 -15.79 5.08 -15 3 C-11.04 0.69 -8.38 1.05 -4 2 C-3.01 2 -2.02 2 -1 2 C-0.67 1.34 -0.34 0.68 0 0 Z M-31 12 C-30 14 -30 14 -30 14 Z M6 26 C5.67 26.66 5.34 27.32 5 28 C5.66 28 6.32 28 7 28 C6.67 27.34 6.34 26.68 6 26 Z "  transform="translate(73,240)"/>
<path  id="dynamicPath" d="M0 0 C2.97 0.99 5.94 1.98 9 3 C9.33 2.01 9.66 1.02 10 0 C14.74 0.42 17.84 2.57 21 6 C22.88 9.31 22.88 9.31 24 12 C24.33 12 24.66 12 25 12 C25.05 13.94 25.09 15.87 25.12 17.81 C25.15 18.89 25.17 19.97 25.2 21.08 C24.94 24.93 23.11 26.83 21 30 C20.34 29.34 19.68 28.68 19 28 C18.73 29.09 18.46 30.19 18.19 31.31 C16.59 36.27 16.59 36.27 14 38 C10.67 39 9.35 39.12 6 38 C5.67 39.65 5.34 41.3 5 43 C3.51 43.5 3.51 43.5 2 44 C1.67 44.99 1.34 45.98 1 47 C-5.35 47.51 -8.83 47.09 -14 43 C-15.32 42.31 -16.65 41.62 -18 41 C-18 40.34 -18 39.68 -18 39 C-18.66 39 -19.32 39 -20 39 C-24.12 32.31 -24.9 26.8 -24 19 C-22.68 14.96 -22.09 13.56 -18.31 11.62 C-17.55 11.42 -16.79 11.21 -16 11 C-16.66 10.34 -17.32 9.68 -18 9 C-18 8.01 -18 7.02 -18 6 C-16.35 6.33 -14.7 6.66 -13 7 C-13.33 6.34 -13.66 5.68 -14 5 C-12.74 4.71 -12.74 4.71 -11.45 4.41 C-10.35 4.15 -9.25 3.89 -8.12 3.62 C-7.03 3.37 -5.94 3.11 -4.82 2.85 C-1.9 2.21 -1.9 2.21 0 0 Z M2 9 C3 11 3 11 3 11 Z "  transform="translate(210,268)"/>
<path  id="dynamicPath" d="M0 0 C2.68 2.24 3.83 3.94 4.39 7.41 C4.68 14.18 4.68 14.18 2.19 17.19 C1.47 17.79 0.74 18.38 0 19 C-0.47 20.22 -0.95 21.43 -1.44 22.69 C-1.95 23.78 -2.47 24.87 -3 26 C-5.69 26.94 -5.69 26.94 -8 27 C-8 28.32 -8 29.64 -8 31 C-13.53 32.84 -19.27 32.92 -25 32 C-28.89 29 -29.73 24.94 -31.06 20.38 C-30.98 15.98 -29.79 14.36 -27 11 C-26.36 10.19 -26.36 10.19 -25.71 9.36 C-22.24 5.36 -19.28 4.2 -14.05 3.52 C-11.57 2.89 -10.68 1.87 -9 0 C-5.76 -1.29 -3.28 -1.15 0 0 Z M2 5 C1.67 5.66 1.34 6.32 1 7 C1.66 7 2.32 7 3 7 C2.67 6.34 2.34 5.68 2 5 Z " transform="translate(241,308)"/>
<path  id="dynamicPath" d="M0 0 C2.7 0.28 5.15 0.88 7.76 1.62 C8.5 1.74 9.24 1.87 10 2 C10.66 1.34 11.32 0.68 12 0 C16.27 1.72 19.34 3.11 22.12 6.88 C23.38 11.36 22.01 13.98 20 18 C19.34 18 18.68 18 18 18 C18 18.66 18 19.32 18 20 C15.03 20.5 15.03 20.5 12 21 C12 20.34 12 19.68 12 19 C11.01 19 10.02 19 9 19 C9 19.99 9 20.98 9 22 C9.66 22.33 10.32 22.66 11 23 C7.54 27.47 2.35 27.81 -2.94 28.56 C-7.57 28.45 -10.16 26 -13.36 22.87 C-15.32 20.63 -16.46 18.95 -17 16 C-16.62 13.19 -16.62 13.19 -16 11 C-15.34 11 -14.68 11 -14 11 C-13.94 10.24 -13.88 9.47 -13.81 8.69 C-13 6 -13 6 -10.69 4.12 C-8 3 -8 3 -5.94 3.56 C-5.3 3.71 -4.66 3.85 -4 4 C-3.46 3.32 -2.93 2.64 -2.38 1.94 C-1.59 1.3 -0.81 0.66 0 0 Z "  transform="translate(45,215)"/>
<path  id="dynamicPath" d="M0 0 C0 0.66 0 1.32 0 2 C0.68 2.12 1.36 2.25 2.06 2.38 C5.43 3.09 8.7 4.03 12 5 C12 5.66 12 6.32 12 7 C12.66 7 13.32 7 14 7 C15.03 10.26 15.22 11.55 13.69 14.69 C9.83 19.98 5.21 20.67 -1 22 C-4.56 22.12 -4.56 22.12 -7 22 C-7.66 22.33 -8.32 22.66 -9 23 C-12.05 21.44 -15.06 19.86 -17 17 C-17.42 12.51 -17.24 8.95 -15 5 C-10.37 0.37 -6.34 0 0 0 Z "  transform="translate(50,188)"/>
<path  id="dynamicPath" d="M0 0 C1.95 0.6 1.95 0.6 4.52 2.85 C5.95 5.6 5.95 5.6 5.95 9.6 C4.96 10.09 4.96 10.09 3.95 10.6 C4.1 11.75 4.24 12.91 4.39 14.1 C4.32 18.83 2.74 21.69 -0.5 25.08 C-5.67 28.16 -12.32 27.92 -18.05 26.6 C-21.06 22.96 -21.37 20.25 -21.05 15.6 C-20.41 15.37 -19.77 15.14 -19.11 14.91 C-18.43 14.48 -17.75 14.04 -17.05 13.6 C-16.92 12.83 -16.8 12.07 -16.67 11.29 C-14.98 3.99 -7.2 -0.69 0 0 Z "  transform="translate(260.046875,324.40234375)"/>
<path  id="dynamicPath" d="M0 0 C3.79 0.64 3.79 0.64 7.31 -0.44 C8.24 0.24 9.17 0.92 10.12 1.62 C11.18 2.26 12.23 2.9 13.31 3.56 C14.3 3.23 15.29 2.9 16.31 2.56 C17.3 3.22 18.29 3.88 19.31 4.56 C18.68 7.49 17.73 9.92 16.31 12.56 C15.55 12.34 14.79 12.11 14 11.88 C12.67 11.72 12.67 11.72 11.31 11.56 C9.77 12.94 9.77 12.94 8.31 14.56 C5.62 15.25 5.62 15.25 3.31 15.56 C2.98 16.55 2.65 17.54 2.31 18.56 C-0.25 18.64 -2.81 18.7 -5.38 18.75 C-6.1 18.78 -6.82 18.8 -7.56 18.83 C-12.13 18.89 -15.1 18.47 -18.69 15.56 C-19.39 12.3 -18.65 10.46 -17.5 7.31 C-15.69 4.56 -15.69 4.56 -13 3.69 C-12.24 3.65 -11.47 3.6 -10.69 3.56 C-10.69 2.9 -10.69 2.24 -10.69 1.56 C-6.81 -0.3 -4.24 -0.56 0 0 Z "  transform="translate(65.6875,165.4375)"/>
<path  id="dynamicPath" d="M0 0 C3.95 -0.18 6.6 -0.09 10 2 C10 2.99 10 3.98 10 5 C8.68 5 7.36 5 6 5 C6.34 6.18 6.34 6.18 6.69 7.38 C7.21 13.42 5.14 19.8 2 25 C-2.88 28.96 -8.51 29.69 -14.63 29.45 C-17 29 -17 29 -19.19 26.81 C-20.5 22.29 -20.67 20.24 -18.38 16 C-14.64 11.29 -10.82 7.89 -5 6 C-3.36 5.44 -3.36 5.44 -1.69 4.88 C-0.8 4.59 0.09 4.3 1 4 C0.67 2.68 0.34 1.36 0 0 Z "  transform="translate(288,322)"/>
<path  id="dynamicPath" d="M0 0 C3.46 1.49 3.46 1.49 7 3 C7 3.66 7 4.32 7 5 C6.01 5.66 5.02 6.32 4 7 C4.52 7.37 5.03 7.74 5.56 8.12 C7 10 7 10 6.69 13.19 C6.46 14.12 6.23 15.04 6 16 C5.34 16 4.68 16 4 16 C3.96 16.72 3.92 17.44 3.88 18.19 C2.45 22.76 -1.12 24.77 -5 27.31 C-8.7 28.58 -11.75 28.57 -15.31 26.94 C-17.86 24.01 -18 21.84 -18 18 C-15.48 13.23 -13.18 10.73 -8 9 C-7.53 8.32 -7.05 7.64 -6.56 6.94 C-6.05 6.3 -5.53 5.66 -5 5 C-3.68 5 -2.36 5 -1 5 C-1.33 4.01 -1.66 3.02 -2 2 C-1.34 1.34 -0.68 0.68 0 0 Z "  transform="translate(318,318)"/>
<path  id="dynamicPath" d="M0 0 C0.99 1.49 0.99 1.49 2 3 C4.06 3.72 4.06 3.72 6 4 C6 5.65 6 7.3 6 9 C5.26 9.12 4.52 9.25 3.75 9.38 C1.05 9.86 1.05 9.86 -1 11.06 C-3.45 12.21 -5.33 12.15 -8 12 C-8 12.66 -8 13.32 -8 14 C-9.58 14.22 -9.58 14.22 -11.19 14.44 C-14.84 14.88 -14.84 14.88 -17.62 15.81 C-20 16 -20 16 -22.75 14.5 C-25.57 11.36 -25.76 9.15 -26 5 C-25.34 5 -24.68 5 -24 5 C-23.91 4.38 -23.83 3.75 -23.74 3.11 C-23 1 -23 1 -21.32 -0.05 C-14.47 -2.24 -6.29 -4.2 0 0 Z "  transform="translate(96,145)"/>
<path  id="dynamicPath" d="M0 0 C1.3 0.14 1.3 0.14 2.62 0.27 C5 0.62 5 0.62 8 1.62 C8.96 1.28 8.96 1.28 9.94 0.94 C10.62 0.83 11.3 0.73 12 0.62 C14.25 2.56 14.25 2.56 16 4.62 C15.04 7.23 14.45 8.39 11.94 9.69 C10.97 10 10 10.31 9 10.62 C8.29 10.87 7.58 11.12 6.85 11.38 C4.58 12.16 2.29 12.9 0 13.62 C-0.89 13.93 -1.77 14.24 -2.69 14.56 C-6.45 14.66 -8.25 13.06 -11 10.62 C-12.12 7.62 -12.12 7.62 -12 4.62 C-8.57 0.1 -5.44 -0.6 0 0 Z " transform="translate(632,197.375)"/>
<path  id="dynamicPath" d="M0 0 C4.33 1.8 8.27 4.16 12 7 C12 7.99 12 8.98 12 10 C12.99 9.67 13.98 9.34 15 9 C15.66 10.65 16.32 12.3 17 14 C16.34 14.66 15.68 15.32 15 16 C13.37 15.8 11.74 15.58 10.13 15.28 C7.69 14.96 5.39 15.04 2.94 15.12 C-1.44 15.16 -4.36 14.64 -8 12 C-9.53 9.4 -10.08 7.88 -9.81 4.88 C-7.69 -0.01 -5.18 -0.61 0 0 Z "  transform="translate(579,101)"/>
<path  id="dynamicPath" d="M0 0 C2.62 1.38 2.62 1.38 5 3 C6.07 3.31 7.14 3.62 8.25 3.94 C9.16 4.29 10.07 4.64 11 5 C11.88 7.12 11.88 7.12 12 9 C5.85 11.24 -0.49 11.89 -7 11 C-9.31 9.26 -9.91 8.25 -10.88 5.5 C-11 3 -11 3 -10.06 1.19 C-6.83 -0.67 -3.59 -0.54 0 0 Z " transform="translate(949,295)"/>
<path  id="dynamicPath" d="M0 0 C4.74 2.46 8 4.43 11 9 C11 9.66 11 10.32 11 11 C12.32 11.66 13.64 12.32 15 13 C14.67 14.32 14.34 15.64 14 17 C9.71 16.01 5.42 15.02 1 14 C1 13.34 1 12.68 1 12 C0.4 11.92 -0.2 11.84 -0.81 11.75 C-3.68 10.77 -4.57 9.64 -6 7 C-6 4.94 -6 4.94 -5 3 C-2.44 1.25 -2.44 1.25 0 0 Z "  transform="translate(925,210)"/>
<path  id="dynamicPath" d="M0 0 C2.69 2.44 2.69 2.44 5 5 C5.66 5.66 6.32 6.32 7 7 C7 8.32 7 9.64 7 11 C9.48 11.5 9.48 11.5 12 12 C12.33 13.32 12.66 14.64 13 16 C9.63 15.45 7.92 14.95 5 13 C2.5 12.44 0 12.05 -2.53 11.66 C-5.34 10.91 -6.92 10.04 -9 8 C-9.25 4.31 -9.25 4.31 -9 1 C-5.65 -1.11 -3.73 -1.37 0 0 Z "  transform="translate(590,90)"/>
<path  id="dynamicPath" d="M0 0 C1.18 0.01 1.18 0.01 2.39 0.03 C4.32 0.05 6.25 0.09 8.19 0.12 C7.53 1.44 6.87 2.76 6.19 4.12 C4.21 4.12 2.23 4.12 0.19 4.12 C-0.14 5.44 -0.47 6.76 -0.81 8.12 C-1.47 7.79 -2.13 7.47 -2.81 7.12 C-3.14 7.78 -3.47 8.44 -3.81 9.12 C-3.15 9.46 -2.49 9.78 -1.81 10.12 C-3.81 12.12 -3.81 12.12 -7.62 12.56 C-11.3 12.5 -11.77 12.16 -14.81 9.62 C-15.47 8.8 -16.13 7.97 -16.81 7.12 C-15.43 4.37 -14.48 2.5 -11.75 0.97 C-7.78 -0.17 -4.1 -0.09 0 0 Z "  transform="translate(644.8125,211.875)"/>
<path  id="dynamicPath" d="M0 0 C7.35 -0.49 7.35 -0.49 10.5 1.88 C12 4 12 4 12 6 C13.32 6 14.64 6 16 6 C15.67 6.99 15.34 7.98 15 9 C12.69 8.67 10.38 8.34 8 8 C8.33 9.32 8.66 10.64 9 12 C9.62 12.06 10.24 12.12 10.88 12.19 C13 13 13 13 14.25 15.56 C14.5 16.37 14.74 17.17 15 18 C11.95 18.29 9.04 18.44 6 18 C3.88 15.75 3.88 15.75 3 13 C3.38 10.75 3.38 10.75 4 9 C3.67 8.67 3.34 8.34 3 8 C0.88 5.62 0.88 5.62 -1 3 C-0.67 2.01 -0.34 1.02 0 0 Z M8 15 C7.67 15.66 7.34 16.32 7 17 C7.66 17 8.32 17 9 17 C8.67 16.34 8.34 15.68 8 15 Z "  transform="translate(1141,474)"/>
<path  id="dynamicPath" d="M0 0 C3.69 -0.31 3.69 -0.31 7 0 C7 1.32 7 2.64 7 4 C7.99 4.33 8.98 4.66 10 5 C10 5.99 10 6.98 10 8 C10.5 11.38 11.11 14.7 12 18 C10.35 17.67 8.7 17.34 7 17 C6.94 16.38 6.88 15.76 6.81 15.12 C6.41 14.07 6.41 14.07 6 13 C4.86 12.57 4.86 12.57 3.69 12.12 C0.05 10.6 -1.05 8.33 -3 5 C-1.94 2.5 -1.94 2.5 0 0 Z "  transform="translate(1162,388)"/>
<path  id="dynamicPath" d="M0 0 C1.23 0.01 2.46 0.03 3.72 0.04 C6.94 0.38 6.94 0.38 9.94 2.38 C9.94 3.03 9.94 3.69 9.94 4.38 C8.62 4.38 7.3 4.38 5.94 4.38 C5.81 5.01 5.69 5.65 5.56 6.31 C5.25 7.33 5.25 7.33 4.94 8.38 C1.01 10.34 -3.79 9.98 -8.06 9.38 C-10.25 6.88 -10.25 6.88 -11.06 4.38 C-7.7 0.11 -5.31 -0.12 0 0 Z "  transform="translate(652.0625,221.625)"/>
<path  id="dynamicPath" d="M0 0 C3.2 1.81 4.71 3.55 6 7 C6 7.99 6 8.98 6 10 C4.36 9.76 2.72 9.52 1.07 9.27 C-0.31 9.09 -1.71 8.95 -3.11 8.85 C-6.5 8.58 -8.73 8.19 -11.56 6.25 C-13 4 -13 4 -12.75 1.25 C-12.5 0.51 -12.25 -0.23 -12 -1 C-7.68 -2.44 -4.28 -1.32 0 0 Z M3 6 C4 8 4 8 4 8 Z "  transform="translate(607,86)"/>
<path  id="dynamicPath" d="M0 0 C3.3 1.8 4.99 3.96 7.22 6.94 C9.01 8.77 10.26 9.11 12.75 9.5 C12.42 10.82 12.09 12.14 11.75 13.5 C5.42 12.84 -1.03 12.05 -5.38 7.06 C-6.25 4.5 -6.25 4.5 -5.56 2.25 C-3.75 -0.17 -2.99 -0.66 0 0 Z "  transform="translate(1148.25,461.5)"/>
<path id="dynamicPath"  d="M0 0 C3 2 3 2 3.62 4 C3.75 4.66 3.87 5.32 4 6 C4.33 6.66 4.66 7.32 5 8 C2.69 8.33 0.38 8.66 -2 9 C-2 8.34 -2 7.68 -2 7 C-3.09 6.88 -4.19 6.75 -5.31 6.62 C-9 6 -9 6 -12 4 C-12.19 1.38 -12.19 1.38 -12 -1 C-7.88 -4.26 -4.22 -2.04 0 0 Z "  transform="translate(623,83)"/>
<path id="dynamicPath"  d="M0 0 C4.72 0.52 9.31 1.39 13.94 2.44 C13.94 3.43 13.94 4.42 13.94 5.44 C12.62 5.44 11.3 5.44 9.94 5.44 C9.61 6.1 9.28 6.76 8.94 7.44 C7.61 7.78 6.27 8.11 4.94 8.44 C4.28 9.1 3.62 9.76 2.94 10.44 C-3.81 8.81 -3.81 8.81 -6.06 5.44 C-3.99 0.57 -3.99 0.57 0 0 Z M5.94 3.44 C5.61 4.43 5.28 5.42 4.94 6.44 C5.93 6.44 6.92 6.44 7.94 6.44 C7.61 5.45 7.28 4.46 6.94 3.44 C6.61 3.44 6.28 3.44 5.94 3.44 Z "  transform="translate(948.0625,307.5625)"/>
<path id="dynamicPath"  d="M0 0 C7.75 0.75 7.75 0.75 10 3 C10.12 6.62 10.12 6.62 10 10 C11.32 10.66 12.64 11.32 14 12 C14 12.99 14 13.98 14 15 C1.68 10.52 1.68 10.52 -1 5 C-0.69 2.25 -0.69 2.25 0 0 Z "  transform="translate(932,205)"/>
<path id="dynamicPath"  d="M0 0 C0 0.66 0 1.32 0 2 C0.66 2.33 1.32 2.66 2 3 C1.01 3.66 0.02 4.32 -1 5 C-0.67 5.66 -0.34 6.32 0 7 C-6.89 10.84 -6.89 10.84 -11 10 C-13.81 7.5 -13.81 7.5 -16 5 C-15.67 4.01 -15.34 3.02 -15 2 C-12.82 1.05 -12.82 1.05 -10.12 0.31 C-9.24 0.06 -8.36 -0.19 -7.45 -0.45 C-4.54 -1.1 -2.7 -1.35 0 0 Z M-4 4 C-3 6 -3 6 -3 6 Z M-6 5 C-6 5.66 -6 6.32 -6 7 C-5.34 6.67 -4.68 6.34 -4 6 C-4.66 5.67 -5.32 5.34 -6 5 Z M-11 6 C-11 6.99 -11 7.98 -11 9 C-10.34 9 -9.68 9 -9 9 C-9 8.01 -9 7.02 -9 6 C-9.66 6 -10.32 6 -11 6 Z "  transform="translate(673,229)"/>
<path id="dynamicPath"  d="M0 0 C3.3 0.33 4.62 0.62 7 3 C7.38 5.64 7.38 5.64 7.56 8.81 C7.8 12.64 8.16 16.26 9 20 C8.34 20 7.68 20 7 20 C6.67 18.35 6.34 16.7 6 15 C5.34 15 4.68 15 4 15 C3.18 13.59 2.37 12.17 1.56 10.75 C1.11 9.96 0.66 9.17 0.19 8.36 C-0.91 6.18 -1.71 4.43 -2 2 C-1.34 1.34 -0.68 0.68 0 0 Z "  transform="translate(1173,386)"/>
<path  id="dynamicPath" d="M0 0 C4.22 0.16 6.48 0.61 9.88 3.19 C12.2 6.26 12.73 8.2 13 12 C9.86 12 8.71 11.53 6 10.12 C5.32 9.78 4.64 9.43 3.94 9.07 C2.24 8.13 0.61 7.08 -1 6 C-1.25 3.44 -1.25 3.44 -1 1 C-0.67 0.67 -0.34 0.34 0 0 Z M9 6 C10 8 10 8 10 8 Z "  transform="translate(944,203)"/>
<path  id="dynamicPath" d="M0 0 C8.57 -0.29 8.57 -0.29 12 2 C11.5 6.38 10.07 8.84 7 12 C6.01 12 5.02 12 4 12 C3.67 10.02 3.34 8.04 3 6 C2.34 6 1.68 6 1 6 C0.67 4.02 0.34 2.04 0 0 Z "  transform="translate(67,217)"/>
<path  id="dynamicPath" d="M0 0 C2.8 1.12 5.4 2.49 8 4 C8 4.33 8 4.66 8 5 C6.35 5 4.7 5 3 5 C2.67 5.99 2.34 6.98 2 8 C-0.12 8.75 -0.12 8.75 -3 9 C-6.31 7.31 -6.31 7.31 -9 5 C-9 3.68 -9 2.36 -9 1 C-5.87 -0.56 -3.47 -0.28 0 0 Z " transform="translate(960,318)"/>
<path id="dynamicPath"  d="M0 0 C3.56 0.25 3.56 0.25 6.56 2.25 C6.23 5.55 5.9 8.85 5.56 12.25 C0.96 11.1 -0.35 9.74 -3.44 6.25 C-4.75 3.94 -4.75 3.94 -5.44 2.25 C-3.44 0.25 -3.44 0.25 0 0 Z "  transform="translate(245.4375,300.75)"/>
<path id="dynamicPath"  d="M0 0 C1.98 0 3.96 0 6 0 C6.18 0.85 6.18 0.85 6.37 1.71 C6.53 2.45 6.7 3.18 6.88 3.94 C7.04 4.67 7.2 5.4 7.37 6.15 C7.83 8.21 7.83 8.21 10 9 C8.68 10.32 7.36 11.64 6 13 C0.09 7.95 0.09 7.95 -0.38 3.12 C-0.25 2.09 -0.13 1.06 0 0 Z "  transform="translate(1183,390)"/>
<path  id="dynamicPath" d="M0 0 C0.33 0.99 0.66 1.98 1 3 C1.99 3 2.98 3 4 3 C3.67 3.99 3.34 4.98 3 6 C2.34 6 1.68 6 1 6 C0.75 6.62 0.5 7.24 0.25 7.88 C-1.21 10.35 -2.38 10.95 -5 12 C-6.32 11.01 -7.64 10.02 -9 9 C-8.66 5.87 -8 5 -5.62 2.81 C-3 1 -3 1 0 0 Z M-5 8 C-4.34 8.66 -3.68 9.32 -3 10 C-3 9.34 -3 8.68 -3 8 C-3.66 8 -4.32 8 -5 8 Z "  transform="translate(269,313)"/>
<path  id="dynamicPath" d="M0 0 C1.94 0.69 1.94 0.69 3.94 1.69 C4.27 1.03 4.6 0.37 4.94 -0.31 C5.6 -0.31 6.26 -0.31 6.94 -0.31 C7.27 1.67 7.6 3.65 7.94 5.69 C4.88 7.47 2.72 7.92 -0.81 7.81 C-1.61 7.79 -2.41 7.78 -3.23 7.76 C-3.84 7.73 -4.44 7.71 -5.06 7.69 C-5.25 4.81 -5.25 4.81 -5.06 1.69 C-2.06 -0.31 -2.06 -0.31 0 0 Z "  transform="translate(71.0625,195.3125)"/>
<path  id="dynamicPath" d="M0 0 C0.9 0.19 1.8 0.39 2.73 0.59 C3.42 0.75 4.1 0.9 4.81 1.06 C4.81 2.05 4.81 3.04 4.81 4.06 C4.15 4.06 3.49 4.06 2.81 4.06 C2.81 4.72 2.81 5.38 2.81 6.06 C1.49 5.73 0.17 5.4 -1.19 5.06 C-1.19 5.72 -1.19 6.38 -1.19 7.06 C-3.56 7.19 -3.56 7.19 -6.19 7.06 C-8.19 5.06 -8.19 5.06 -8.31 2.44 C-8.27 1.65 -8.23 0.87 -8.19 0.06 C-4.8 -1.07 -3.42 -0.76 0 0 Z "  transform="translate(970.1875,326.9375)"/>
<path  id="dynamicPath" d="M0 0 C3.48 -0.4 4.81 -0.12 7.81 1.81 C10 4 10 4 10 7 C7.36 7 4.72 7 2 7 C1.67 6.01 1.34 5.02 1 4 C0.34 3.67 -0.32 3.34 -1 3 C-0.67 2.01 -0.34 1.02 0 0 Z " transform="translate(1150,495)"/>
</svg>
