<?xml version="1.0" encoding="UTF-8"?>
<!-- Generator: visioncortex VTracer 0.6.3 -->
<svg version="1.1" xmlns="http://www.w3.org/2000/svg" width="1209" height="1280">
<path d="M0 0 C4.95 1.54 9.27 2.26 14.49 1.87 C16.27 1.79 16.27 1.79 18.27 2.79 C20 2.92 21.73 3.02 23.46 3.1 C28.78 3.52 31.91 4.78 36.27 7.79 C36.27 8.45 36.27 9.11 36.27 9.79 C35.22 10.08 34.17 10.37 33.09 10.66 C29.44 11.65 29.44 11.65 26.77 12.91 C23.54 14.05 20.68 13.92 17.27 13.79 C17.6 14.12 17.93 14.45 18.27 14.79 C16.95 15.45 15.63 16.11 14.27 16.79 C14.27 17.45 14.27 18.11 14.27 18.79 C13.06 19.22 11.84 19.65 10.59 20.1 C7.99 21.06 5.9 22.02 3.52 23.48 C1.27 24.79 1.27 24.79 -2.73 24.79 C-2.73 26.11 -2.73 27.43 -2.73 28.79 C-4.71 30.33 -6.56 31.54 -8.73 32.79 C-10.17 33.66 -11.6 34.53 -13.04 35.41 C-13.71 35.82 -14.39 36.22 -15.09 36.64 C-16.88 37.7 -16.88 37.7 -17.73 39.79 C-11.66 38.21 -6.74 36.58 -1.73 32.79 C1.27 30.79 1.27 30.79 4.27 30.79 C4.27 30.13 4.27 29.47 4.27 28.79 C8.26 26.97 11.95 26.39 16.27 25.79 C18.29 25.17 20.29 24.51 22.27 23.79 C25.81 22.61 28.68 22.65 32.4 22.66 C34.29 22.66 34.29 22.66 36.22 22.65 C39.27 22.79 39.27 22.79 40.27 23.79 C42.92 24.31 45.55 24.78 48.21 25.23 C49.78 25.5 51.34 25.77 52.9 26.05 C55.35 26.47 57.79 26.86 60.24 27.22 C70.89 28.91 81.09 35.3 88.46 43.1 C90.67 45.16 92.32 45.46 95.27 45.79 C95.27 45.13 95.27 44.47 95.27 43.79 C99.9 41.66 99.9 41.66 103.27 42.79 C104.46 45.35 104.46 45.35 105.27 47.79 C103.95 49.44 102.63 51.09 101.27 52.79 C101.71 53.22 102.14 53.66 102.59 54.11 C107.19 59.03 107.19 59.03 107.65 63.23 C107.46 64.49 107.46 64.49 107.27 65.79 C106.61 65.79 105.95 65.79 105.27 65.79 C107.07 77.3 107.07 77.3 113.27 86.79 C113.43 88.51 113.55 90.24 113.65 91.98 C114.04 96.51 114.5 100.02 117.27 103.79 C119.79 104.61 119.79 104.61 122.27 104.79 C122.93 105.45 123.59 106.11 124.27 106.79 C123.9 109.41 123.9 109.41 123.27 111.79 C122.28 111.79 121.29 111.79 120.27 111.79 C120.46 116.13 120.46 116.13 122.27 119.79 C122.48 121.75 122.48 121.75 122.52 124.16 C122.55 124.95 122.58 125.75 122.6 126.56 C122.2 129.29 121.23 129.93 119.27 131.79 C119.52 135.64 120.11 137.55 122.27 140.79 C123.59 140.13 124.91 139.47 126.27 138.79 C126.5 139.67 126.73 140.56 126.96 141.48 C128.05 144.94 128.05 144.94 130.9 147.16 C133.27 149.79 133.27 149.79 133.46 151.74 C133.42 152.43 133.38 153.13 133.34 153.85 C132.82 157.8 132.82 157.8 135.27 159.98 C135.93 160.57 136.59 161.17 137.27 161.79 C137.52 164.54 137.52 164.54 137.27 166.79 C135.29 167.78 135.29 167.78 133.27 168.79 C133.75 169.87 133.75 169.87 134.23 170.98 C137.53 179.84 136.57 190.57 135.27 199.79 C134.61 200.78 133.95 201.77 133.27 202.79 C133.03 205.53 133.03 205.53 133.15 208.48 C133.17 209.47 133.19 210.46 133.2 211.49 C133.23 212.25 133.25 213.01 133.27 213.79 C132.61 213.79 131.95 213.79 131.27 213.79 C131.2 214.68 131.2 214.68 131.13 215.58 C130.71 219.98 130.23 223.76 128.27 227.79 C129.26 227.79 130.25 227.79 131.27 227.79 C132.16 224.48 132.74 221.16 133.27 217.79 C133.93 217.79 134.59 217.79 135.27 217.79 C135.27 216.47 135.27 215.15 135.27 213.79 C135.93 213.79 136.59 213.79 137.27 213.79 C137.4 213.21 137.52 212.63 137.65 212.04 C138.27 209.79 138.27 209.79 139.25 207.91 C142.22 201.76 142.64 194.49 143.27 187.79 C144.26 187.46 145.25 187.13 146.27 186.79 C146.6 187.78 146.93 188.77 147.27 189.79 C148.26 189.79 149.25 189.79 150.27 189.79 C149.84 188.64 149.84 188.64 149.4 187.48 C148.17 183.43 147.53 179.46 146.93 175.28 C146.22 172.57 145.42 171.53 143.27 169.79 C143.93 168.47 144.59 167.15 145.27 165.79 C149.84 166.27 149.84 166.27 151.59 168.35 C152.59 171.89 152.4 175.11 152.27 178.79 C153.26 179.12 154.25 179.45 155.27 179.79 C155.6 181.44 155.93 183.09 156.27 184.79 C156.93 184.79 157.59 184.79 158.27 184.79 C158.48 188.5 158.43 189.56 156.27 192.79 C155.61 192.79 154.95 192.79 154.27 192.79 C154.27 194.11 154.27 195.43 154.27 196.79 C153.61 196.79 152.95 196.79 152.27 196.79 C152.27 197.78 152.27 198.77 152.27 199.79 C153.59 200.45 154.91 201.11 156.27 201.79 C156.32 203.45 156.32 205.12 156.27 206.79 C155.94 207.12 155.61 207.45 155.27 207.79 C155.05 209.75 154.83 211.71 154.65 213.68 C154.24 216 153.41 217.73 152.27 219.79 C152.83 219.29 153.38 218.8 153.95 218.29 C154.68 217.65 155.4 217.01 156.15 216.35 C157.23 215.39 157.23 215.39 158.33 214.42 C160.27 212.79 160.27 212.79 162.27 211.79 C162.82 212.2 163.36 212.61 163.92 213.03 C164.63 213.57 165.35 214.11 166.09 214.66 C166.79 215.2 167.5 215.73 168.23 216.28 C169.88 217.5 171.57 218.65 173.27 219.79 C174.46 221.91 174.46 221.91 175.27 223.79 C175.93 223.79 176.59 223.79 177.27 223.79 C177.67 224.51 178.06 225.23 178.46 225.98 C180.86 229.7 183.59 231.35 187.27 233.79 C186.45 234.41 185.62 235.03 184.77 235.66 C183.95 236.36 183.12 237.07 182.27 237.79 C182.27 238.45 182.27 239.11 182.27 239.79 C182.92 239.09 183.57 238.4 184.24 237.68 C187.5 235.65 187.83 235.54 191.34 236.24 C192.85 236.62 194.35 237.04 195.84 237.48 C196.59 237.68 197.35 237.88 198.12 238.08 C199.53 238.46 200.94 238.84 202.34 239.24 C205.34 240.09 208.34 240.8 211.4 241.41 C212.35 241.87 213.3 242.32 214.27 242.79 C214.99 245.11 215.66 247.44 216.27 249.79 C218.75 251.76 218.75 251.76 221.27 252.79 C220.94 254.77 220.61 256.75 220.27 258.79 C221.6 258.32 221.6 258.32 222.96 257.85 C224.06 257.5 225.15 257.15 226.27 256.79 C227.08 256.52 227.88 256.25 228.71 255.98 C233.53 255.62 237.38 258.19 241.27 260.79 C242.93 261.17 244.6 261.52 246.27 261.79 C245.28 262.12 244.29 262.45 243.27 262.79 C243.25 263.47 243.23 264.15 243.21 264.85 C241.83 269.2 238.8 271.96 235.27 274.79 C234.61 274.79 233.95 274.79 233.27 274.79 C233.25 275.49 233.23 276.19 233.21 276.91 C231.98 280.7 229.87 282.09 226.77 284.46 C226.03 285.11 226.03 285.11 225.27 285.79 C225.27 286.45 225.27 287.11 225.27 287.79 C225.88 287.29 226.49 286.8 227.11 286.28 C236.06 279.03 244.31 272.6 255.27 268.79 C256.26 268.38 257.25 267.96 258.27 267.54 C262.61 266.45 266.83 266.63 271.27 266.79 C271.27 267.45 271.27 268.11 271.27 268.79 C272.26 268.46 273.25 268.13 274.27 267.79 C276.47 267.99 276.47 267.99 278.84 268.48 C279.62 268.62 280.41 268.77 281.22 268.92 C283.27 269.79 283.27 269.79 284.55 271.68 C285.27 273.79 285.27 273.79 285.27 276.79 C289.07 275.82 289.07 275.82 292.27 273.79 C294.54 273.8 296.79 273.92 299.05 274.05 C301.83 273.72 302.37 272.73 304.27 270.79 C307.96 271.1 307.96 271.1 311.27 271.79 C311.36 273.07 311.44 274.35 311.52 275.66 C311.73 277.84 311.73 277.84 312.27 279.79 C314.2 281.38 314.2 281.38 316.27 281.79 C316.27 282.45 316.27 283.11 316.27 283.79 C319.27 285.45 321.93 286.14 325.27 286.79 C326.95 287.42 328.62 288.08 330.27 288.79 C330.27 289.45 330.27 290.11 330.27 290.79 C330.96 290.87 331.64 290.95 332.34 291.04 C335.27 291.79 335.27 291.79 338.4 293.79 C341.57 295.74 344.01 296.03 347.71 296.16 C352.77 296.48 355.87 297.65 359.77 300.9 C361.98 303.67 362.31 306.35 362.78 309.8 C363.13 312.11 363.13 312.11 365.9 313.73 C366.68 314.08 367.47 314.43 368.27 314.79 C368.27 315.45 368.27 316.11 368.27 316.79 C369.26 316.79 370.25 316.79 371.27 316.79 C376.27 322.14 376.27 322.14 376.27 324.79 C375.61 324.79 374.95 324.79 374.27 324.79 C376.6 330.05 376.6 330.05 381.21 332.98 C382.22 333.24 383.23 333.51 384.27 333.79 C391.24 338.32 392.57 344.61 394.51 352.26 C395.18 354.91 395.18 354.91 396.96 357.35 C399.06 361.24 398.69 365.45 398.27 369.79 C397.94 370.12 397.61 370.45 397.27 370.79 C397.03 374.93 397.03 374.93 398.27 378.79 C399.59 379.45 400.91 380.11 402.27 380.79 C402.27 386.73 402.27 392.67 402.27 398.79 C401.61 398.79 400.95 398.79 400.27 398.79 C400.29 399.79 400.3 400.79 400.31 401.81 C400.32 403.75 400.32 403.75 400.34 405.73 C400.35 407.01 400.36 408.3 400.37 409.63 C400.27 412.79 400.27 412.79 399.27 413.79 C399.04 415.14 398.86 416.49 398.71 417.85 C398.57 419.15 398.42 420.45 398.27 421.79 C397.61 421.79 396.95 421.79 396.27 421.79 C396.27 423.77 396.27 425.75 396.27 427.79 C395.64 428.03 395.01 428.28 394.36 428.53 C391.77 430.09 391.57 430.97 390.84 433.85 C389.56 438.27 387.65 441.79 385.17 445.65 C384.03 448.39 384.47 449.98 385.27 452.79 C383.62 452.79 381.97 452.79 380.27 452.79 C379.19 449.54 379.49 448.91 380.27 445.79 C379.94 444.8 379.61 443.81 379.27 442.79 C378.66 443.45 378.04 444.11 377.4 444.79 C375.27 446.79 375.27 446.79 373.27 446.79 C373.27 448.03 373.27 449.26 373.27 450.54 C373.27 458.79 373.27 458.79 372.05 460.39 C370.09 461.94 368.12 463.07 365.9 464.23 C362.37 466.13 359.33 468.18 356.27 470.79 C352.84 473.08 351.29 472.97 347.27 472.79 C347.27 473.45 347.27 474.11 347.27 474.79 C341.21 476.58 335.61 477.32 329.27 476.79 C328.94 476.46 328.61 476.13 328.27 475.79 C326.28 475.69 324.28 475.66 322.27 475.66 C321.18 475.66 320.09 475.66 318.96 475.65 C316.36 475.48 316.36 475.48 315.27 476.79 C309.71 477.16 306 477.07 301.27 473.79 C300.24 472.44 299.24 471.06 298.27 469.66 C295.91 466.23 295.91 466.23 291.9 464.79 C291.03 464.79 290.17 464.79 289.27 464.79 C289.27 465.45 289.27 466.11 289.27 466.79 C291.25 468.48 293.25 470.15 295.27 471.79 C295.27 472.12 295.27 472.45 295.27 472.79 C288.84 472.16 288.84 472.16 286.09 470.35 C282.32 468.26 278.69 467.75 274.46 467.1 C273.67 466.97 272.89 466.84 272.07 466.71 C270.14 466.39 268.21 466.09 266.27 465.79 C266.27 466.78 266.27 467.77 266.27 468.79 C266.93 468.79 267.59 468.79 268.27 468.79 C268.27 469.45 268.27 470.11 268.27 470.79 C266.34 470.04 266.34 470.04 264.27 468.79 C263.94 467.45 263.61 466.12 263.27 464.79 C262.61 464.52 261.95 464.25 261.27 463.98 C260.61 463.58 259.95 463.19 259.27 462.79 C258.94 460.45 258.61 458.12 258.27 455.79 C256.63 454.46 256.63 454.46 254.27 453.79 C253.18 453.11 252.09 452.43 250.96 451.73 C248.26 450.14 247.03 449.76 243.77 449.41 C239.03 448.57 236.62 446.11 233.27 442.79 C233.6 442.13 233.93 441.47 234.27 440.79 C237.24 440.79 240.21 440.79 243.27 440.79 C243.27 440.13 243.27 439.47 243.27 438.79 C242.67 438.81 242.07 438.83 241.45 438.86 C240.65 438.88 239.85 438.89 239.02 438.91 C237.84 438.95 237.84 438.95 236.63 438.98 C234.03 438.77 232.47 438.18 230.27 436.79 C229.94 436.13 229.61 435.47 229.27 434.79 C228.53 434.87 227.79 434.95 227.02 435.04 C223.43 434.71 222.74 433.32 220.27 430.79 C218.28 430.1 216.28 429.43 214.27 428.79 C213.31 428.09 212.34 427.39 211.34 426.66 C207.65 424.4 205.53 424.47 201.27 424.79 C199.95 424.79 198.63 424.79 197.27 424.79 C196.61 424.13 195.95 423.47 195.27 422.79 C195.38 421.57 195.48 420.35 195.59 419.1 C195.67 415.38 194.86 413.7 192.34 410.98 C188.91 407.88 185.68 406.79 181.29 405.6 C178.06 404.3 176.93 401.72 175.27 398.79 C174.28 398.46 173.29 398.13 172.27 397.79 C172.27 397.13 172.27 396.47 172.27 395.79 C171.61 395.75 170.95 395.71 170.27 395.66 C165.94 394.4 162.56 391.87 159.27 388.79 C158.94 387.8 158.61 386.81 158.27 385.79 C158.93 385.79 159.59 385.79 160.27 385.79 C158.12 379.72 158.12 379.72 153.27 375.79 C150.96 375.06 148.63 374.39 146.27 373.79 C145.28 373.46 144.29 373.13 143.27 372.79 C143.93 374.44 144.59 376.09 145.27 377.79 C141.81 376.3 141.81 376.3 138.27 374.79 C138.27 374.13 138.27 373.47 138.27 372.79 C137 372.62 135.72 372.46 134.4 372.29 C128.98 371.13 125.83 368.18 121.7 364.63 C118.26 362.02 115.5 361.46 111.27 360.79 C110.28 360.46 109.29 360.13 108.27 359.79 C108.27 359.13 108.27 358.47 108.27 357.79 C107.16 357.66 106.05 357.54 104.9 357.41 C101.27 356.79 101.27 356.79 99.27 354.79 C97.59 354.18 95.87 353.65 94.15 353.16 C92.78 352.77 92.78 352.77 91.39 352.37 C90.69 352.18 89.99 351.99 89.27 351.79 C89.93 351.46 90.59 351.13 91.27 350.79 C91.27 349.8 91.27 348.81 91.27 347.79 C103.23 343.48 113.51 342.62 125.76 345.98 C130.14 346.99 134.5 347.54 138.96 348.04 C139.77 348.13 140.57 348.22 141.4 348.32 C143.35 348.52 145.31 348.66 147.27 348.79 C147.6 348.46 147.93 348.13 148.27 347.79 C149.96 347.72 151.65 347.7 153.34 347.73 C154.26 347.73 155.18 347.74 156.12 347.75 C156.83 347.76 157.54 347.78 158.27 347.79 C158.6 347.13 158.93 346.47 159.27 345.79 C159.93 346.12 160.59 346.45 161.27 346.79 C161.27 346.13 161.27 345.47 161.27 344.79 C160.33 344.8 160.33 344.8 159.36 344.8 C156.52 344.82 153.68 344.84 150.84 344.85 C149.84 344.86 148.85 344.87 147.83 344.88 C146.41 344.88 146.41 344.88 144.97 344.89 C143.65 344.89 143.65 344.89 142.32 344.9 C140.27 344.79 140.27 344.79 139.27 343.79 C137.9 343.6 136.53 343.46 135.15 343.35 C130.97 342.94 127.27 342.06 123.27 340.79 C123.27 340.13 123.27 339.47 123.27 338.79 C121.91 338.88 121.91 338.88 120.52 338.98 C116.91 339 113.75 338.22 110.27 337.29 C105.74 336.08 101.95 335.37 97.27 335.79 C96.94 336.12 96.61 336.45 96.27 336.79 C94.95 336.97 93.61 337.11 92.27 337.23 C84.23 337.64 84.23 337.64 77.27 340.79 C68.72 343.11 60.66 344.18 52.38 340.64 C50.01 339.68 47.62 339.02 45.15 338.35 C41.9 337.42 40.05 336.63 37.21 334.66 C33.81 332.49 31.6 332.34 27.67 332.07 C23.68 331.6 20.02 330.19 16.27 328.79 C16.27 329.78 16.27 330.77 16.27 331.79 C15.28 331.79 14.29 331.79 13.27 331.79 C13.34 331 13.4 330.22 13.46 329.41 C13.4 328.55 13.34 327.68 13.27 326.79 C9.06 323.98 5.3 322.81 0.27 322.6 C-9.12 321.72 -17.8 315.84 -24.73 309.79 C-25.47 309.21 -26.21 308.63 -26.98 308.04 C-29.6 304.66 -30.05 300.94 -30.73 296.79 C-31.34 297.1 -31.95 297.42 -32.58 297.75 C-34.64 298.74 -36.5 299.31 -38.73 299.79 C-38.73 299.13 -38.73 298.47 -38.73 297.79 C-40.05 297.13 -41.37 296.47 -42.73 295.79 C-42.73 295.13 -42.73 294.47 -42.73 293.79 C-43.34 293.52 -43.96 293.25 -44.6 292.98 C-46.73 291.79 -46.73 291.79 -48.73 288.79 C-51.03 287.88 -51.03 287.88 -53.66 287.41 C-54.98 287.12 -54.98 287.12 -56.32 286.83 C-58.8 286.53 -58.8 286.53 -60.54 288.25 C-60.93 288.76 -61.32 289.26 -61.73 289.79 C-63.73 288.79 -63.73 288.79 -64.54 286.48 C-64.78 283.08 -63.71 282.43 -61.73 279.79 C-61.93 275.76 -63.68 273.17 -65.73 269.79 C-65.73 268.8 -65.73 267.81 -65.73 266.79 C-66.3 266.71 -66.88 266.62 -67.48 266.54 C-70.34 265.58 -71.72 264 -73.73 261.79 C-73.4 261.13 -73.07 260.47 -72.73 259.79 C-70.09 260.12 -67.45 260.45 -64.73 260.79 C-64.73 259.8 -64.73 258.81 -64.73 257.79 C-67.04 257.79 -69.35 257.79 -71.73 257.79 C-71.73 257.13 -71.73 256.47 -71.73 255.79 C-72.72 255.73 -72.72 255.73 -73.73 255.66 C-77.44 254.58 -79.74 252.71 -82.74 250.31 C-84.84 248.61 -84.84 248.61 -87.98 247.1 C-92.31 243.46 -93.72 239.29 -94.73 233.79 C-94.6 230 -94.22 226.28 -93.83 222.51 C-93.67 216.71 -95.62 212.1 -97.73 206.79 C-98.11 205.42 -98.47 204.05 -98.79 202.66 C-99.91 198.03 -99.91 198.03 -101.1 193.41 C-101.31 192.58 -101.53 191.75 -101.75 190.89 C-102.96 188.29 -104.09 187.77 -106.73 186.79 C-106.73 186.13 -106.73 185.47 -106.73 184.79 C-107.39 184.79 -108.05 184.79 -108.73 184.79 C-108.83 184.15 -108.93 183.51 -109.04 182.85 C-109.26 182.17 -109.49 181.49 -109.73 180.79 C-110.72 180.46 -111.71 180.13 -112.73 179.79 C-112.94 178.61 -112.94 178.61 -113.16 177.41 C-113.6 174.82 -113.6 174.82 -114.73 172.79 C-114.86 170.12 -114.77 167.47 -114.73 164.79 C-114.07 164.79 -113.41 164.79 -112.73 164.79 C-112.73 163.47 -112.73 162.15 -112.73 160.79 C-112.07 160.79 -111.41 160.79 -110.73 160.79 C-110.68 160.09 -110.64 159.39 -110.6 158.66 C-109.68 155.63 -109.04 154.92 -106.79 152.85 C-103.83 150.12 -102.67 147.76 -101.73 143.79 C-99.75 144.12 -97.77 144.45 -95.73 144.79 C-95.73 144.13 -95.73 143.47 -95.73 142.79 C-96.37 142.57 -97.02 142.34 -97.69 142.12 C-99.73 140.79 -99.73 140.79 -100.23 138.4 C-100.26 136.98 -100.26 136.98 -100.29 135.54 C-100.55 130.7 -101.12 126.39 -104.73 122.79 C-105.14 117.53 -104.38 114.33 -101.73 109.79 C-101.07 109.79 -100.41 109.79 -99.73 109.79 C-99.64 109.02 -99.56 108.26 -99.48 107.48 C-98.57 104.22 -97.52 103.57 -94.73 101.79 C-91.39 98.46 -90.1 95.22 -88.73 90.79 C-86.42 90.79 -84.11 90.79 -81.73 90.79 C-81.7 89.37 -81.68 87.95 -81.66 86.54 C-81.65 85.75 -81.64 84.96 -81.63 84.15 C-81.72 81.88 -82.09 79.96 -82.73 77.79 C-82.07 77.79 -81.41 77.79 -80.73 77.79 C-80.4 77.13 -80.07 76.47 -79.73 75.79 C-78.74 76.28 -78.74 76.28 -77.73 76.79 C-76.35 76.86 -74.98 76.87 -73.6 76.85 C-72.32 76.83 -71.04 76.81 -69.73 76.79 C-70.41 76.66 -71.1 76.54 -71.81 76.41 C-78.93 74.78 -78.93 74.78 -81.02 72.16 C-81.87 70.03 -82.34 68.05 -82.73 65.79 C-82.89 64.94 -83.05 64.09 -83.21 63.22 C-83.78 59.36 -83.99 56.57 -82.73 52.85 C-80.56 50.62 -78.57 49.73 -75.68 48.65 C-71.95 47 -68.92 44.29 -65.73 41.79 C-64.39 40.83 -63.06 39.87 -61.73 38.91 C-57.93 36.11 -54.82 32.85 -51.68 29.33 C-49.22 27.39 -47.78 27.48 -44.73 27.79 C-44.79 27.07 -44.85 26.34 -44.91 25.6 C-44.68 22.15 -43.56 20.73 -41.73 17.79 C-41.11 16.15 -40.5 14.5 -39.91 12.85 C-36.99 5.44 -32.67 1.87 -25.56 -1.45 C-16.6 -5.18 -8.82 -2.82 0 0 Z M-14.73 -0.21 C-15.06 0.78 -15.39 1.77 -15.73 2.79 C-15.07 2.79 -14.41 2.79 -13.73 2.79 C-14.06 1.8 -14.39 0.81 -14.73 -0.21 Z M58.27 40.79 C59.26 41.28 59.26 41.28 60.27 41.79 C60.27 42.45 60.27 43.11 60.27 43.79 C62.26 43.52 62.26 43.52 64.27 42.79 C64.6 41.8 64.93 40.81 65.27 39.79 C62.85 39.79 60.65 40.29 58.27 40.79 Z M69.27 41.79 C69.27 42.45 69.27 43.11 69.27 43.79 C70.26 44.12 71.25 44.45 72.27 44.79 C72.27 43.8 72.27 42.81 72.27 41.79 C71.28 41.79 70.29 41.79 69.27 41.79 Z M74.27 43.79 C73.94 44.45 73.61 45.11 73.27 45.79 C74.59 45.79 75.91 45.79 77.27 45.79 C77.27 45.13 77.27 44.47 77.27 43.79 C76.28 43.79 75.29 43.79 74.27 43.79 Z M86.27 62.79 C86.27 64.44 86.27 66.09 86.27 67.79 C87.26 68.28 87.26 68.28 88.27 68.79 C88.93 68.46 89.59 68.13 90.27 67.79 C89.94 66.14 89.61 64.49 89.27 62.79 C88.28 62.79 87.29 62.79 86.27 62.79 Z M84.27 71.79 C84.27 72.45 84.27 73.11 84.27 73.79 C84.93 73.46 85.59 73.13 86.27 72.79 C85.61 72.46 84.95 72.13 84.27 71.79 Z M86.27 73.79 C84 76.6 84 76.6 84.27 79.79 C88.38 80.8 88.38 80.8 92.27 79.79 C91.94 78.47 91.61 77.15 91.27 75.79 C90.61 75.79 89.95 75.79 89.27 75.79 C88.94 75.13 88.61 74.47 88.27 73.79 C87.61 73.79 86.95 73.79 86.27 73.79 Z M107.27 106.79 C106.94 107.78 106.61 108.77 106.27 109.79 C109.57 109.79 112.87 109.79 116.27 109.79 C115.94 108.8 115.61 107.81 115.27 106.79 C112.63 106.79 109.99 106.79 107.27 106.79 Z M121.27 106.79 C121.27 107.45 121.27 108.11 121.27 108.79 C120.28 109.28 120.28 109.28 119.27 109.79 C120.26 109.79 121.25 109.79 122.27 109.79 C121.94 108.8 121.61 107.81 121.27 106.79 Z M-103.73 115.79 C-102.73 117.79 -102.73 117.79 -102.73 117.79 Z M-101.73 145.79 C-100.73 147.79 -100.73 147.79 -100.73 147.79 Z M149.27 168.79 C150.27 170.79 150.27 170.79 150.27 170.79 Z M155.27 185.79 C154.61 187.44 153.95 189.09 153.27 190.79 C154.26 190.46 155.25 190.13 156.27 189.79 C155.94 188.47 155.61 187.15 155.27 185.79 Z M151.27 193.79 C152.27 195.79 152.27 195.79 152.27 195.79 Z M128.27 228.79 C127.61 230.11 126.95 231.43 126.27 232.79 C127.26 232.79 128.25 232.79 129.27 232.79 C129.93 231.47 130.59 230.15 131.27 228.79 C130.28 228.79 129.29 228.79 128.27 228.79 Z M179.27 234.79 C180.27 236.79 180.27 236.79 180.27 236.79 Z M181.27 234.79 C182.27 236.79 182.27 236.79 182.27 236.79 Z M195.27 247.79 C194.94 248.78 194.61 249.77 194.27 250.79 C195.59 251.12 196.91 251.45 198.27 251.79 C198.6 250.47 198.93 249.15 199.27 247.79 C197.95 247.79 196.63 247.79 195.27 247.79 Z M145.46 250.73 C142.47 251.72 140.39 251.97 137.27 251.79 C136.94 252.45 136.61 253.11 136.27 253.79 C141.22 254.12 146.17 254.45 151.27 254.79 C150.94 253.47 150.61 252.15 150.27 250.79 C148.19 249.45 148.19 249.45 145.46 250.73 Z M152.27 254.79 C152.27 255.78 152.27 256.77 152.27 257.79 C152.93 257.79 153.59 257.79 154.27 257.79 C154.27 256.8 154.27 255.81 154.27 254.79 C153.61 254.79 152.95 254.79 152.27 254.79 Z M208.27 256.79 C209.27 258.79 209.27 258.79 209.27 258.79 Z M-63.73 258.79 C-62.73 260.79 -62.73 260.79 -62.73 260.79 Z M219.27 260.79 C219.6 261.45 219.93 262.11 220.27 262.79 C220.93 262.13 221.59 261.47 222.27 260.79 C221.28 260.79 220.29 260.79 219.27 260.79 Z M210.27 272.79 C209.94 273.45 209.61 274.11 209.27 274.79 C210.26 275.78 211.25 276.77 212.27 277.79 C212.6 277.13 212.93 276.47 213.27 275.79 C212.94 274.8 212.61 273.81 212.27 272.79 C211.61 272.79 210.95 272.79 210.27 272.79 Z M226.27 279.79 C225.94 280.45 225.61 281.11 225.27 281.79 C225.93 281.79 226.59 281.79 227.27 281.79 C226.94 281.13 226.61 280.47 226.27 279.79 Z M-60.73 282.79 C-60.73 283.78 -60.73 284.77 -60.73 285.79 C-60.07 285.46 -59.41 285.13 -58.73 284.79 C-58.73 284.13 -58.73 283.47 -58.73 282.79 C-59.39 282.79 -60.05 282.79 -60.73 282.79 Z M329.27 305.79 C330.81 308 330.81 308 333.27 309.79 C336.75 309.53 336.75 309.53 340.27 308.79 C343.21 309.23 343.21 309.23 345.27 309.79 C344.94 309.13 344.61 308.47 344.27 307.79 C343.61 307.79 342.95 307.79 342.27 307.79 C341.94 306.8 341.61 305.81 341.27 304.79 C336.29 302.24 333.94 302.9 329.27 305.79 Z M27.27 319.79 C27.27 320.78 27.27 321.77 27.27 322.79 C30.24 323.28 30.24 323.28 33.27 323.79 C33.93 322.47 34.59 321.15 35.27 319.79 C32.63 319.79 29.99 319.79 27.27 319.79 Z M40.27 322.79 C40.93 323.45 41.59 324.11 42.27 324.79 C42.27 324.13 42.27 323.47 42.27 322.79 C41.61 322.79 40.95 322.79 40.27 322.79 Z M44.27 323.79 C43.94 324.45 43.61 325.11 43.27 325.79 C44.92 325.79 46.57 325.79 48.27 325.79 C47.94 325.13 47.61 324.47 47.27 323.79 C46.28 323.79 45.29 323.79 44.27 323.79 Z M359.27 329.79 C358.83 333.79 358.83 333.79 361.27 336.04 C361.93 336.62 362.59 337.19 363.27 337.79 C364.26 337.46 365.25 337.13 366.27 336.79 C367.01 334.77 367.01 334.77 367.27 332.79 C366.61 332.79 365.95 332.79 365.27 332.79 C365.27 332.13 365.27 331.47 365.27 330.79 C362.3 330.29 362.3 330.29 359.27 329.79 Z M373.27 343.79 C374.62 348.79 376.74 352.98 380.27 356.79 C381.26 357.12 382.25 357.45 383.27 357.79 C383.93 358.45 384.59 359.11 385.27 359.79 C385.61 357.46 385.61 357.46 385.27 354.79 C383.55 352.81 383.55 352.81 381.27 350.79 C379.97 348.95 378.74 347.08 377.52 345.18 C377.11 344.72 376.7 344.26 376.27 343.79 C375.28 343.79 374.29 343.79 373.27 343.79 Z M198.27 421.79 C198.93 422.45 199.59 423.11 200.27 423.79 C200.27 423.13 200.27 422.47 200.27 421.79 C199.61 421.79 198.95 421.79 198.27 421.79 Z M224.27 430.79 C223.94 431.45 223.61 432.11 223.27 432.79 C223.93 432.79 224.59 432.79 225.27 432.79 C224.94 432.13 224.61 431.47 224.27 430.79 Z M360.27 430.79 C361.26 432.27 361.26 432.27 362.27 433.79 C362.27 432.8 362.27 431.81 362.27 430.79 C361.61 430.79 360.95 430.79 360.27 430.79 Z M359.27 431.79 C360.27 433.79 360.27 433.79 360.27 433.79 Z M352.27 438.79 C349.75 439.41 349.75 439.41 347.27 440.79 C346.38 443.34 346.38 443.34 346.27 445.79 C340.71 448.04 335.2 448.39 329.27 448.79 C328.94 449.78 328.61 450.77 328.27 451.79 C329.26 453.27 329.26 453.27 330.27 454.79 C329.65 454.82 329.02 454.86 328.37 454.9 C320.93 455.47 314.88 457.21 308.27 460.79 C311.28 461.72 312.14 461.83 315.27 460.79 C316.67 460.64 318.06 460.52 319.46 460.41 C324.11 459.94 327.99 458.6 332.27 456.79 C333.6 456.32 333.6 456.32 334.96 455.85 C337.8 454.55 339.87 452.78 342.27 450.79 C343.26 450.15 344.25 449.51 345.27 448.85 C348.32 446.76 350.74 444.47 353.27 441.79 C352.78 440.3 352.78 440.3 352.27 438.79 Z M383.27 440.79 C384.27 442.79 384.27 442.79 384.27 442.79 Z M385.27 440.79 C386.27 442.79 386.27 442.79 386.27 442.79 Z M368.27 457.79 C368.6 458.45 368.93 459.11 369.27 459.79 C369.6 459.13 369.93 458.47 370.27 457.79 C369.61 457.79 368.95 457.79 368.27 457.79 Z " fill="#FAC82B" transform="translate(485.725341796875,641.21240234375)"/>
<path d="M0 0 C3.56 1.75 3.56 1.75 5.12 3.88 C6.56 6.17 6.56 6.17 10.25 6.5 C11.34 6.58 12.44 6.66 13.56 6.75 C13.89 8.07 14.22 9.39 14.56 10.75 C15.22 10.75 15.88 10.75 16.56 10.75 C16.56 10.09 16.56 9.43 16.56 8.75 C17.82 8.65 19.08 8.54 20.38 8.44 C23.87 8.01 25.27 7.48 27.56 4.75 C29.69 3.75 29.69 3.75 32.56 2.75 C33.25 2.47 33.93 2.18 34.64 1.89 C40.03 -0.2 43.02 -0.45 48.56 1.75 C49.7 2.12 50.83 2.49 52 2.88 C52.85 3.16 53.69 3.45 54.56 3.75 C54.56 4.41 54.56 5.07 54.56 5.75 C55.22 5.75 55.88 5.75 56.56 5.75 C56.67 6.39 56.77 7.03 56.88 7.69 C57.1 8.37 57.33 9.05 57.56 9.75 C58.55 10.08 59.54 10.41 60.56 10.75 C63.56 15.97 63.56 15.97 63.56 18.75 C64.61 19 65.67 19.25 66.75 19.5 C70.43 20.54 72.61 22.3 75.56 24.75 C78.18 26.2 80.86 27.47 83.56 28.75 C84.9 29.41 86.23 30.08 87.56 30.75 C87.56 31.41 87.56 32.07 87.56 32.75 C88.83 32.79 88.83 32.79 90.12 32.83 C97.37 33.19 102.32 34.05 108.56 37.75 C109.55 38.08 110.54 38.41 111.56 38.75 C111.56 39.41 111.56 40.07 111.56 40.75 C112.22 40.75 112.88 40.75 113.56 40.75 C115.72 44.61 116.96 47.3 116.56 51.75 C117.22 51.75 117.88 51.75 118.56 51.75 C120.67 56.03 120.8 59.89 120.69 64.56 C120.68 65.26 120.67 65.95 120.66 66.66 C120.64 68.36 120.6 70.05 120.56 71.75 C121.55 71.75 122.54 71.75 123.56 71.75 C123.56 68.78 123.56 65.81 123.56 62.75 C127.56 63.75 127.56 63.75 128.62 65.5 C128.93 66.24 129.24 66.99 129.56 67.75 C131.9 72.42 134.88 76.33 139.56 78.75 C143.62 79.24 147.5 79.11 151.56 78.75 C151.89 79.41 152.22 80.07 152.56 80.75 C151.76 81.04 150.95 81.33 150.12 81.62 C147.43 82.48 147.43 82.48 146.56 84.75 C146.49 86.46 146.48 88.17 146.5 89.88 C146.51 91.24 146.51 91.24 146.53 92.63 C146.54 93.33 146.55 94.03 146.56 94.75 C147.22 94.75 147.88 94.75 148.56 94.75 C148.84 95.56 148.84 95.56 149.11 96.39 C149.36 97.11 149.62 97.83 149.88 98.56 C150.12 99.27 150.36 99.98 150.61 100.71 C151.63 102.9 152.85 104.08 154.56 105.75 C154.56 106.41 154.56 107.07 154.56 107.75 C153.76 108.22 152.95 108.7 152.12 109.19 C149.27 110.55 149.27 110.55 148.56 113.75 C149.26 113.83 149.96 113.92 150.69 114 C155.23 115.18 158.48 117.31 161.31 121.06 C162.78 124.23 163.69 127.38 164.56 130.75 C165.22 132.73 165.9 134.72 166.59 136.69 C168.07 141.92 168.03 147.29 168.19 152.69 C168.23 153.75 168.26 154.82 168.3 155.92 C168.4 158.53 168.48 161.14 168.56 163.75 C170.21 163.75 171.86 163.75 173.56 163.75 C173.56 164.74 173.56 165.73 173.56 166.75 C172.24 167.08 170.92 167.41 169.56 167.75 C169.7 171.4 169.85 175.04 170 178.69 C170.04 179.73 170.08 180.77 170.12 181.84 C170.16 182.83 170.2 183.82 170.25 184.84 C170.28 185.76 170.32 186.67 170.36 187.62 C170.33 189.73 170.33 189.73 171.56 190.75 C171.9 195.24 171.89 199.75 171.94 204.25 C171.97 205.51 172.01 206.76 172.05 208.05 C172.13 216.15 171.1 221.1 166.56 227.75 C165.88 229.02 165.22 230.3 164.58 231.59 C163.69 233.37 162.79 235.16 161.89 236.95 C160.61 239.53 159.48 242.01 158.56 244.75 C157.9 244.75 157.24 244.75 156.56 244.75 C156.58 245.72 156.6 246.69 156.62 247.69 C156.56 250.75 156.56 250.75 155.56 251.75 C155.45 253.16 155.4 254.57 155.37 255.98 C155.36 256.88 155.34 257.77 155.32 258.7 C155.3 260.16 155.3 260.16 155.28 261.66 C155.25 263.15 155.25 263.15 155.23 264.67 C155.17 267.86 155.11 271.06 155.06 274.25 C155 278.45 154.92 282.65 154.84 286.84 C154.82 288.31 154.82 288.31 154.8 289.8 C154.79 290.7 154.77 291.6 154.75 292.52 C154.74 293.32 154.73 294.11 154.71 294.93 C154.56 296.75 154.56 296.75 153.56 297.75 C153.49 299.1 153.48 300.46 153.5 301.81 C153.53 303.76 153.53 303.76 153.56 305.75 C152.57 305.75 151.58 305.75 150.56 305.75 C150.89 306.74 151.22 307.73 151.56 308.75 C151.89 308.09 152.22 307.43 152.56 306.75 C153.22 306.75 153.88 306.75 154.56 306.75 C154.7 306.05 154.83 305.35 154.97 304.62 C155.8 300.61 156.83 296.66 157.84 292.69 C158.97 288.08 159.7 283.76 159.88 279.01 C159.92 277.95 159.96 276.88 160.01 275.78 C160.06 274.13 160.06 274.13 160.12 272.44 C160.17 271.32 160.21 270.19 160.26 269.04 C160.36 266.27 160.46 263.51 160.56 260.75 C161.22 260.75 161.88 260.75 162.56 260.75 C162.23 259.43 161.9 258.11 161.56 256.75 C162.22 256.75 162.88 256.75 163.56 256.75 C163.56 255.43 163.56 254.11 163.56 252.75 C164.22 252.75 164.88 252.75 165.56 252.75 C165.62 252.01 165.69 251.26 165.75 250.5 C166.81 246.9 168.48 245.78 171.56 243.75 C172.22 243.75 172.88 243.75 173.56 243.75 C173.62 244.39 173.68 245.03 173.75 245.68 C173.87 246.92 173.87 246.92 174 248.19 C174.08 249.01 174.16 249.83 174.25 250.68 C174.35 252.74 174.35 252.74 175.56 253.75 C175.9 256.08 176.23 258.42 176.56 260.75 C176.89 261.08 177.22 261.41 177.56 261.75 C177.77 264.87 177.91 267.99 177.99 271.12 C178.19 275.41 178.92 277.45 181.56 280.75 C182 283.44 182 283.44 182.12 286.31 C182.3 290.16 182.37 291.46 184.56 294.75 C185.2 297.01 185.2 297.01 185.69 299.44 C185.86 300.25 186.02 301.05 186.2 301.89 C186.32 302.5 186.44 303.12 186.56 303.75 C186.23 303.09 185.9 302.43 185.56 301.75 C184.57 302.08 183.58 302.41 182.56 302.75 C182.31 307.01 182.19 310.69 183.62 314.75 C185.49 317.13 185.49 317.13 188.94 316.94 C192.56 317.75 192.56 317.75 194.09 319.95 C195.36 322.52 196.49 325.1 197.56 327.75 C197.89 328.41 198.22 329.07 198.56 329.75 C198.76 332.57 198.88 335.39 198.99 338.22 C199.18 339.05 199.37 339.89 199.56 340.75 C200.88 341.44 202.22 342.11 203.56 342.75 C204.14 344.96 204.14 344.96 204.25 347.56 C204.3 348.45 204.36 349.34 204.41 350.26 C204.46 351.08 204.51 351.9 204.56 352.75 C204.86 354.42 205.18 356.09 205.56 357.75 C206.22 357.75 206.88 357.75 207.56 357.75 C207.89 358.74 208.22 359.73 208.56 360.75 C209.55 360.75 210.54 360.75 211.56 360.75 C211.56 361.41 211.56 362.07 211.56 362.75 C214.2 363.08 216.84 363.41 219.56 363.75 C219.05 367.54 218.35 369.19 215.56 371.75 C215.23 372.74 214.9 373.73 214.56 374.75 C215.22 374.75 215.88 374.75 216.56 374.75 C217.73 378.74 218.75 382.68 219.56 386.75 C219.89 387.41 220.22 388.07 220.56 388.75 C220.88 391.6 221.07 394.45 221.28 397.32 C221.3 399.7 221.3 399.7 222.56 400.75 C222.69 402.37 222.74 404 222.75 405.62 C222.76 406.51 222.78 407.39 222.79 408.3 C222.56 410.75 222.56 410.75 220.56 413.75 C221.55 413.42 222.54 413.09 223.56 412.75 C224.22 409.45 224.88 406.15 225.56 402.75 C228.13 405.32 228.1 407.23 228.56 410.75 C229.22 410.75 229.88 410.75 230.56 410.75 C230.61 411.49 230.66 412.22 230.71 412.98 C230.82 414.44 230.82 414.44 230.94 415.94 C231.01 416.9 231.08 417.86 231.15 418.86 C231.84 423.67 233.75 427.79 236.56 431.75 C237.8 432.49 237.8 432.49 239.06 433.25 C242.05 435.04 242.93 436.72 244.56 439.75 C245.54 441.1 246.54 442.43 247.56 443.75 C244.56 444.75 244.56 444.75 241.56 443.75 C241.56 445.07 241.56 446.39 241.56 447.75 C240.9 447.75 240.24 447.75 239.56 447.75 C239.89 448.31 240.21 448.87 240.55 449.45 C241.68 452.02 241.79 453.72 241.76 456.52 C241.75 457.41 241.74 458.29 241.74 459.21 C241.72 460.13 241.7 461.05 241.69 462 C241.68 462.94 241.67 463.87 241.66 464.84 C241.64 467.14 241.6 469.45 241.56 471.75 C241.23 470.76 240.9 469.77 240.56 468.75 C239.9 468.75 239.24 468.75 238.56 468.75 C236.94 466.25 236.94 466.25 235.56 463.75 C234.42 467.73 234.28 469.23 236.31 472.94 C238.31 475.65 238.31 475.65 240.19 477.04 C242.25 479.6 241.85 481.71 241.75 484.94 C241.72 486.02 241.7 487.11 241.67 488.23 C241.62 489.48 241.62 489.48 241.56 490.75 C240.9 490.75 240.24 490.75 239.56 490.75 C239.59 491.96 239.59 491.96 239.62 493.19 C239.56 495.75 239.56 495.75 238.56 496.75 C238.28 499.75 238.11 502.76 237.94 505.77 C237.58 508.62 236.99 510.3 235.56 512.75 C235.27 513.49 234.99 514.24 234.69 515 C234.32 515.91 233.94 516.82 233.56 517.75 C233.09 518.95 232.61 520.14 232.12 521.38 C228.58 528.44 221.65 535.34 214.56 538.75 C214.09 539.6 213.61 540.44 213.12 541.31 C211.56 543.75 211.56 543.75 209.19 544.75 C205.86 544.75 204.23 543.66 201.56 541.75 C197.6 544.22 197.6 544.22 193.56 546.75 C196.48 548.7 198.19 549.2 201.56 549.75 C201.56 551.07 201.56 552.39 201.56 553.75 C200.57 554.41 199.58 555.07 198.56 555.75 C197.57 554.43 196.58 553.11 195.56 551.75 C194.9 552.08 194.24 552.41 193.56 552.75 C189.7 554.04 186.62 553.89 182.56 553.75 C182.56 554.41 182.56 555.07 182.56 555.75 C175.59 558.39 168.62 558.01 161.25 557.94 C159.96 557.94 158.68 557.94 157.35 557.94 C147.84 557.89 147.84 557.89 145.56 556.75 C142.42 556.52 139.29 556.36 136.15 556.23 C129.49 555.89 129.49 555.89 126.56 553.75 C125.2 551.5 124.48 549.23 123.56 546.75 C122.9 546.77 122.23 546.8 121.55 546.82 C112.81 547 112.81 547 108.56 544.75 C107.82 544.44 107.08 544.13 106.31 543.81 C104.56 542.75 104.56 542.75 103.56 539.75 C102.57 539.42 101.58 539.09 100.56 538.75 C100.56 538.09 100.56 537.43 100.56 536.75 C99.33 536.72 99.33 536.72 98.06 536.69 C93.07 535.35 89.97 532.57 86.56 528.75 C85.12 525.62 85.12 525.62 84.56 522.75 C84.38 521.9 84.19 521.06 84 520.19 C83.86 519.38 83.71 518.58 83.56 517.75 C83.38 516.82 83.19 515.89 83 514.94 C82.86 514.22 82.71 513.49 82.56 512.75 C80.91 513.08 79.26 513.41 77.56 513.75 C74.6 509.89 72.37 506.49 70.62 501.94 C69.16 498.4 68.95 497.94 65.31 496.19 C64.4 496.04 63.5 495.9 62.56 495.75 C62.56 494.76 62.56 493.77 62.56 492.75 C61.9 492.75 61.24 492.75 60.56 492.75 C58.04 489.36 57.09 486.97 57.56 482.75 C57.89 482.42 58.22 482.09 58.56 481.75 C59.18 476.29 58.49 471.99 56.36 466.99 C55.04 463.29 54.57 459.46 53.99 455.58 C53.26 450.77 52.17 446.35 50.56 441.75 C49.8 441.67 49.04 441.59 48.25 441.5 C45.56 440.75 45.56 440.75 43.69 438.94 C42.56 436.75 42.56 436.75 42.62 434.75 C43.56 432.75 43.56 432.75 45.56 430.94 C48.23 428.02 48.27 425.61 48.56 421.75 C49.55 421.42 50.54 421.09 51.56 420.75 C52.58 416.65 52.58 416.65 51.56 412.75 C50.57 412.42 49.58 412.09 48.56 411.75 C47.02 404.04 46.66 395.3 50.44 388.25 C51.14 387.42 51.84 386.6 52.56 385.75 C52.98 384.78 53.39 383.81 53.81 382.81 C55.9 379.15 58.42 377.08 61.64 374.42 C63.74 372.71 63.74 372.71 65.69 370 C67.99 367.24 70.35 366.29 73.56 364.75 C74.65 363.67 74.65 363.67 75.75 362.56 C76.35 361.96 76.95 361.37 77.56 360.75 C78.55 360.75 79.54 360.75 80.56 360.75 C80.56 360.09 80.56 359.43 80.56 358.75 C74.7 361.19 69.08 363.97 63.44 366.88 C59.54 368.85 55.75 370.48 51.56 371.75 C50.57 372.08 49.58 372.41 48.56 372.75 C48.5 372.11 48.44 371.47 48.38 370.81 C48.3 369.94 48.21 369.08 48.12 368.19 C48.04 367.27 47.96 366.36 47.88 365.41 C47.6 362.55 47.6 362.55 46.62 359.06 C46.55 355.23 47.1 354.63 49.5 351.81 C50.5 350.77 51.52 349.75 52.56 348.75 C50.63 347.66 50.63 347.66 48.56 347.44 C46.56 346.75 46.56 346.75 45.5 344.81 C45.19 344.13 44.88 343.45 44.56 342.75 C43.57 342.09 42.58 341.43 41.56 340.75 C41.56 339.76 41.56 338.77 41.56 337.75 C40.57 337.42 39.58 337.09 38.56 336.75 C37.79 333.34 37.44 330.2 37.46 326.7 C37.47 325.78 37.47 324.85 37.47 323.89 C37.48 322.94 37.49 321.98 37.5 321 C37.5 320.03 37.51 319.06 37.51 318.06 C37.53 315.62 37.54 313.19 37.56 310.75 C37.67 309.43 37.67 309.43 35.81 307.75 C33.42 304.56 32.05 301.52 30.59 297.84 C29.67 295.68 29.67 295.68 27.94 294.16 C26.56 292.75 26.56 292.75 26.56 289.75 C25.57 289.42 24.58 289.09 23.56 288.75 C22.01 285.44 21.26 282 22.12 278.44 C24.02 276.21 25.94 275.03 28.56 273.75 C29.55 273.75 30.54 273.75 31.56 273.75 C31.56 273.09 31.56 272.43 31.56 271.75 C30.31 271.8 29.06 271.84 27.77 271.89 C26.11 271.93 24.46 271.96 22.81 272 C21.99 272.03 21.16 272.07 20.31 272.1 C14.07 272.2 14.07 272.2 11.31 269.75 C10.74 269.09 10.16 268.43 9.56 267.75 C6.98 267.27 6.98 267.27 4.31 267.5 C3.42 267.54 2.53 267.57 1.61 267.61 C0.93 267.66 0.26 267.7 -0.44 267.75 C-0.77 268.74 -1.1 269.73 -1.44 270.75 C-2.01 270.12 -2.57 269.5 -3.16 268.85 C-7.94 263.42 -7.94 263.42 -14.31 260.5 C-17.44 259.75 -17.44 259.75 -19.5 257.38 C-20.44 254.75 -20.44 254.75 -19.62 252.44 C-19.23 251.88 -18.84 251.32 -18.44 250.75 C-16.13 252.07 -13.82 253.39 -11.44 254.75 C-11.44 255.41 -11.44 256.07 -11.44 256.75 C-10.84 256.87 -10.24 257 -9.62 257.12 C-7.44 257.75 -7.44 257.75 -4.44 259.75 C-4.44 260.41 -4.44 261.07 -4.44 261.75 C-2.13 261.75 0.18 261.75 2.56 261.75 C2.56 261.09 2.56 260.43 2.56 259.75 C1.9 259.42 1.24 259.09 0.56 258.75 C0.89 257.43 1.22 256.11 1.56 254.75 C1.56 255.41 1.56 256.07 1.56 256.75 C5.71 256.61 9.85 256.46 14 256.31 C15.18 256.27 16.37 256.23 17.59 256.19 C18.71 256.15 19.84 256.11 21 256.07 C22.04 256.03 23.08 255.99 24.15 255.96 C26.51 256.01 26.51 256.01 27.56 254.75 C29.14 254.54 30.73 254.38 32.31 254.25 C38.33 253.7 43.76 252.46 49.56 250.75 C49.23 250.42 48.9 250.09 48.56 249.75 C46.07 249.76 43.62 249.83 41.13 249.94 C39.6 250 38.07 250.06 36.54 250.12 C34.11 250.21 31.69 250.31 29.26 250.42 C26.93 250.52 24.59 250.61 22.26 250.69 C21.53 250.73 20.81 250.76 20.06 250.8 C16.28 250.93 14.8 250.91 11.56 248.75 C9.42 248.5 7.28 248.35 5.12 248.25 C1.07 248.07 -1.93 247.88 -5.44 245.75 C-5.44 245.09 -5.44 244.43 -5.44 243.75 C-6.77 243.56 -6.77 243.56 -8.12 243.38 C-11.14 242.81 -13.64 241.98 -16.44 240.75 C-16.77 241.74 -17.1 242.73 -17.44 243.75 C-20.18 243.36 -21.29 242.9 -23.25 240.88 C-25.41 238.5 -25.41 238.5 -28.94 237.38 C-33.08 235.45 -33.98 233.48 -36.44 229.75 C-39.55 228.32 -39.55 228.32 -42.44 227.75 C-41.23 225.26 -39.98 223.07 -38.44 220.75 C-41.94 219.58 -44.76 219.69 -48.44 219.75 C-52.56 219.75 -55.55 219.05 -59.44 217.75 C-60.1 217.09 -60.76 216.43 -61.44 215.75 C-63.59 215.8 -63.59 215.8 -65.94 216.25 C-68.34 216.66 -68.34 216.66 -70.44 216.75 C-72.44 214.75 -72.44 214.75 -72.94 211.69 C-73.1 210.72 -73.27 209.75 -73.44 208.75 C-74.1 208.42 -74.76 208.09 -75.44 207.75 C-75.44 207.09 -75.44 206.43 -75.44 205.75 C-76.49 205.56 -76.49 205.56 -77.56 205.38 C-84.04 203.97 -87.52 201.96 -92.34 197.5 C-95.44 194.92 -98.81 193.47 -102.44 191.75 C-102.77 191.09 -103.1 190.43 -103.44 189.75 C-104.61 190.1 -105.79 190.45 -107 190.81 C-109.19 191.12 -109.19 191.12 -111.44 190.75 C-114.31 188.09 -116.37 185.06 -118.44 181.75 C-119.34 182.24 -119.34 182.24 -120.27 182.74 C-122.81 183.92 -124.66 183.9 -127.44 183.75 C-128.1 181.44 -128.76 179.13 -129.44 176.75 C-127.13 174.69 -127.13 174.69 -124.44 172.75 C-123.45 173.08 -122.46 173.41 -121.44 173.75 C-122.18 172.61 -122.18 172.61 -122.94 171.44 C-124.44 168.75 -124.44 168.75 -124.44 165.75 C-125.1 165.75 -125.76 165.75 -126.44 165.75 C-129.71 158.19 -132.14 152.04 -131.44 143.75 C-132.1 143.75 -132.76 143.75 -133.44 143.75 C-133.46 140.77 -133.48 137.79 -133.5 134.81 C-133.51 133.96 -133.52 133.11 -133.53 132.24 C-133.53 131.43 -133.53 130.62 -133.54 129.79 C-133.54 129.04 -133.55 128.29 -133.55 127.52 C-133.44 125.75 -133.44 125.75 -132.44 124.75 C-132.34 122.74 -132.25 120.73 -132.2 118.72 C-131.97 110.99 -131.65 104.45 -127.44 97.75 C-126.83 96.76 -126.83 96.76 -126.2 95.76 C-125.37 94.43 -124.52 93.11 -123.66 91.8 C-122.34 89.58 -121.4 87.34 -120.44 84.94 C-118.8 81.09 -117.39 79.43 -113.44 77.75 C-112.67 77.36 -111.91 76.97 -111.12 76.56 C-110.29 76.16 -110.29 76.16 -109.44 75.75 C-109.44 75.09 -109.44 74.43 -109.44 73.75 C-108.78 73.42 -108.12 73.09 -107.44 72.75 C-106.42 70.76 -105.42 68.76 -104.44 66.75 C-103.78 66.09 -103.12 65.43 -102.44 64.75 C-106.29 65.3 -107.79 67.02 -110.44 69.75 C-111.16 70.1 -111.88 70.45 -112.62 70.81 C-114.8 71.67 -114.8 71.67 -115.44 74.75 C-117.14 75.71 -117.14 75.71 -119.25 76.56 C-123.45 78.52 -125.06 80.73 -127.44 84.75 C-129.1 86.42 -130.77 88.08 -132.44 89.75 C-133.47 91.4 -134.47 93.07 -135.44 94.75 C-136.06 95.51 -136.68 96.28 -137.31 97.06 C-139.99 100.45 -142.2 104.06 -144.44 107.75 C-148.79 101.22 -148.79 101.22 -148.44 96.75 C-147.94 96.25 -147.94 96.25 -147.44 95.75 C-147.23 93.42 -147.07 91.09 -146.94 88.75 C-146.55 81.86 -146.55 81.86 -145.44 80.75 C-145.17 75.66 -145.05 70.56 -146.12 65.56 C-146.53 61.92 -145.52 59.38 -144.23 56 C-143.36 53.74 -143.36 53.74 -143.04 51.23 C-141.73 45.81 -136.82 42 -132.81 38.38 C-128.47 36.28 -124.33 35.8 -119.57 35.18 C-112.58 34.22 -107.23 32.86 -102.76 27.23 C-100.93 25.18 -98.83 24.06 -96.44 22.75 C-94.76 21.43 -93.09 20.1 -91.44 18.75 C-89.42 17.23 -87.39 15.72 -85.37 14.21 C-83.73 12.97 -82.14 11.68 -80.56 10.38 C-78.44 8.75 -78.44 8.75 -76.44 8.75 C-76.44 7.43 -76.44 6.11 -76.44 4.75 C-71.69 3.62 -68.95 3.96 -64.44 5.75 C-63.39 6.08 -62.33 6.41 -61.25 6.75 C-58.44 7.75 -58.44 7.75 -55.44 9.75 C-55.14 12.79 -55.14 12.79 -55.25 16.38 C-55.29 18.16 -55.29 18.16 -55.33 19.98 C-55.37 20.89 -55.4 21.81 -55.44 22.75 C-54.45 22.75 -53.46 22.75 -52.44 22.75 C-52.44 18.79 -52.44 14.83 -52.44 10.75 C-46.8 10.51 -41.89 11.36 -36.44 12.75 C-36.44 11.43 -36.44 10.11 -36.44 8.75 C-29.85 5.91 -29.85 5.91 -26.99 4.81 C-24.44 3.75 -22.15 2.48 -19.75 1.12 C-13.06 -2.23 -7.07 -2.33 0 0 Z M-142.44 56.75 C-142.11 57.41 -141.78 58.07 -141.44 58.75 C-140.78 58.42 -140.12 58.09 -139.44 57.75 C-140.43 57.42 -141.42 57.09 -142.44 56.75 Z M-101.44 61.75 C-101.77 62.41 -102.1 63.07 -102.44 63.75 C-101.45 63.42 -100.46 63.09 -99.44 62.75 C-100.1 62.42 -100.76 62.09 -101.44 61.75 Z M-112.44 65.75 C-112.44 66.74 -112.44 67.73 -112.44 68.75 C-110.27 67.92 -110.27 67.92 -109.44 65.75 C-110.43 65.75 -111.42 65.75 -112.44 65.75 Z M-105.44 69.75 C-104.44 71.75 -104.44 71.75 -104.44 71.75 Z M-143.44 97.75 C-142.44 101.75 -142.44 101.75 -142.44 101.75 Z M-145.44 100.75 C-145.44 101.41 -145.44 102.07 -145.44 102.75 C-144.78 102.42 -144.12 102.09 -143.44 101.75 C-144.1 101.42 -144.76 101.09 -145.44 100.75 Z M149.56 105.75 C150.56 107.75 150.56 107.75 150.56 107.75 Z M-119.44 137.75 C-121.72 139.59 -121.72 139.59 -121.56 142.38 C-121.52 143.16 -121.48 143.94 -121.44 144.75 C-119.79 143.52 -119.79 143.52 -118.44 141.75 C-118.67 139.59 -118.67 139.59 -119.44 137.75 Z M-123.44 139.75 C-122.44 141.75 -122.44 141.75 -122.44 141.75 Z M-123.44 142.75 C-122.44 144.75 -122.44 144.75 -122.44 144.75 Z M-120.44 151.75 C-120.77 153.4 -121.1 155.05 -121.44 156.75 C-120.45 156.75 -119.46 156.75 -118.44 156.75 C-118.44 155.1 -118.44 153.45 -118.44 151.75 C-119.1 151.75 -119.76 151.75 -120.44 151.75 Z M-105.44 169.75 C-105.09 171.73 -105.09 171.73 -104.44 173.75 C-103.78 174.08 -103.12 174.41 -102.44 174.75 C-101.78 174.42 -101.12 174.09 -100.44 173.75 C-100.44 172.76 -100.44 171.77 -100.44 170.75 C-102.09 170.42 -103.74 170.09 -105.44 169.75 Z M-95.44 169.75 C-95.25 170.35 -95.07 170.95 -94.88 171.56 C-94.44 173.75 -94.44 173.75 -95.44 176.75 C-94.13 178.31 -94.13 178.31 -92.44 179.75 C-91.45 179.75 -90.46 179.75 -89.44 179.75 C-88.75 177.4 -88.75 177.4 -88.44 174.75 C-89.1 173.76 -89.76 172.77 -90.44 171.75 C-91.1 171.75 -91.76 171.75 -92.44 171.75 C-92.44 171.09 -92.44 170.43 -92.44 169.75 C-93.43 169.75 -94.42 169.75 -95.44 169.75 Z M159.56 177.75 C159.56 178.41 159.56 179.07 159.56 179.75 C160.22 179.42 160.88 179.09 161.56 178.75 C160.9 178.42 160.24 178.09 159.56 177.75 Z M159.56 192.75 C160.56 194.75 160.56 194.75 160.56 194.75 Z M-66.44 202.75 C-68.74 205.47 -68.74 205.47 -68.06 207.94 C-67.86 208.54 -67.65 209.13 -67.44 209.75 C-66.78 209.75 -66.12 209.75 -65.44 209.75 C-65.44 207.44 -65.44 205.13 -65.44 202.75 C-65.77 202.75 -66.1 202.75 -66.44 202.75 Z M-51.44 216.75 C-50.78 217.41 -50.12 218.07 -49.44 218.75 C-49.44 218.09 -49.44 217.43 -49.44 216.75 C-50.1 216.75 -50.76 216.75 -51.44 216.75 Z M47.56 245.75 C47.23 246.74 46.9 247.73 46.56 248.75 C47.55 248.42 48.54 248.09 49.56 247.75 C49.56 247.09 49.56 246.43 49.56 245.75 C48.9 245.75 48.24 245.75 47.56 245.75 Z M66.56 262.75 C66.23 263.74 65.9 264.73 65.56 265.75 C64.9 265.75 64.24 265.75 63.56 265.75 C63.23 269.71 62.9 273.67 62.56 277.75 C63.55 277.42 64.54 277.09 65.56 276.75 C65.78 274.8 65.78 274.8 66 272.81 C66.44 268.88 66.44 268.88 67.56 267.75 C67.6 266.08 67.61 264.42 67.56 262.75 C67.23 262.75 66.9 262.75 66.56 262.75 Z M41.56 303.75 C41.56 304.41 41.56 305.07 41.56 305.75 C40.24 305.75 38.92 305.75 37.56 305.75 C37.89 306.41 38.22 307.07 38.56 307.75 C40.21 307.42 41.86 307.09 43.56 306.75 C43.89 305.43 44.22 304.11 44.56 302.75 C43.34 302.68 43.34 302.68 41.56 303.75 Z M149.56 310.75 C149.89 312.07 150.22 313.39 150.56 314.75 C150.89 313.43 151.22 312.11 151.56 310.75 C150.9 310.75 150.24 310.75 149.56 310.75 Z M46.56 320.75 C46.89 321.74 47.22 322.73 47.56 323.75 C48.55 324.08 49.54 324.41 50.56 324.75 C51.22 323.76 51.88 322.77 52.56 321.75 C51.5 320.45 51.5 320.45 49 320.69 C48.2 320.71 47.39 320.73 46.56 320.75 Z M69.56 340.75 C69.56 341.74 69.56 342.73 69.56 343.75 C70.88 344.08 72.2 344.41 73.56 344.75 C73.23 343.76 72.9 342.77 72.56 341.75 C71.57 341.42 70.58 341.09 69.56 340.75 Z M46.56 437.75 C46.23 438.41 45.9 439.07 45.56 439.75 C46.22 439.75 46.88 439.75 47.56 439.75 C47.23 439.09 46.9 438.43 46.56 437.75 Z M232.56 463.75 C233.56 465.75 233.56 465.75 233.56 465.75 Z M70.56 465.75 C70.23 467.07 69.9 468.39 69.56 469.75 C68.9 469.75 68.24 469.75 67.56 469.75 C68.02 473.22 68.45 476.42 69.56 479.75 C70.22 479.75 70.88 479.75 71.56 479.75 C71.56 477.77 71.56 475.79 71.56 473.75 C72.22 473.75 72.88 473.75 73.56 473.75 C73.77 469.61 73.77 469.61 72.56 465.75 C71.9 465.75 71.24 465.75 70.56 465.75 Z M225.56 481.75 C225.24 482.35 224.91 482.96 224.57 483.58 C224.14 484.38 223.7 485.18 223.25 486 C222.82 486.79 222.39 487.58 221.95 488.39 C220.56 490.75 220.56 490.75 218.91 492.88 C217.18 495.28 217.32 496.86 217.56 499.75 C216.9 499.75 216.24 499.75 215.56 499.75 C215.23 500.41 214.9 501.07 214.56 501.75 C213.24 501.09 211.92 500.43 210.56 499.75 C209.21 500.88 209.21 500.88 209.5 503.81 C209.52 504.78 209.54 505.75 209.56 506.75 C208.24 506.75 206.92 506.75 205.56 506.75 C205.89 508.07 206.22 509.39 206.56 510.75 C205.11 511.73 203.65 512.71 202.19 513.69 C200.97 514.51 200.97 514.51 199.73 515.34 C197.56 516.75 197.56 516.75 195.56 517.75 C195.89 518.74 196.22 519.73 196.56 520.75 C203.31 517.67 208.34 513.98 213.56 508.75 C214.02 508.36 214.47 507.97 214.94 507.56 C218.39 503.71 220.56 500.03 220.56 494.75 C221.22 494.75 221.88 494.75 222.56 494.75 C226.02 488.53 226.02 488.53 225.56 481.75 Z M218.56 487.75 C218.56 488.74 218.56 489.73 218.56 490.75 C219.22 490.42 219.88 490.09 220.56 489.75 C220.56 489.09 220.56 488.43 220.56 487.75 C219.9 487.75 219.24 487.75 218.56 487.75 Z M215.56 496.75 C216.56 498.75 216.56 498.75 216.56 498.75 Z M88.56 499.75 C87.69 502.2 87.46 503.43 88.25 505.94 C89.43 507.93 89.43 507.93 91.69 508.5 C92.31 508.58 92.92 508.66 93.56 508.75 C93.08 504.1 93.08 504.1 91.56 499.75 C90.57 499.75 89.58 499.75 88.56 499.75 Z M78.56 509.75 C79.56 511.75 79.56 511.75 79.56 511.75 Z M98.56 516.75 C98.94 522.17 100.65 524.13 104.56 527.75 C104.89 528.74 105.22 529.73 105.56 530.75 C106.88 530.42 108.2 530.09 109.56 529.75 C108.77 527.75 108.77 527.75 107.56 525.75 C106.57 525.42 105.58 525.09 104.56 524.75 C103.38 521.69 103.38 521.69 102.56 518.75 C101.9 518.75 101.24 518.75 100.56 518.75 C99.9 518.09 99.24 517.43 98.56 516.75 Z M186.56 524.75 C186.23 525.74 185.9 526.73 185.56 527.75 C186.55 527.42 187.54 527.09 188.56 526.75 C187.9 526.09 187.24 525.43 186.56 524.75 Z M222.56 526.75 C222.56 529.75 222.56 529.75 222.56 529.75 Z M103.56 527.75 C104.56 529.75 104.56 529.75 104.56 529.75 Z M113.56 527.75 C114.56 529.75 114.56 529.75 114.56 529.75 Z M219.56 529.75 C218.9 531.07 218.24 532.39 217.56 533.75 C218.88 532.43 220.2 531.11 221.56 529.75 C220.9 529.75 220.24 529.75 219.56 529.75 Z M209.56 538.75 C209.89 539.74 210.22 540.73 210.56 541.75 C211.22 541.42 211.88 541.09 212.56 540.75 C212.56 540.09 212.56 539.43 212.56 538.75 C211.57 538.75 210.58 538.75 209.56 538.75 Z M188.56 549.75 C188.89 550.41 189.22 551.07 189.56 551.75 C189.89 551.09 190.22 550.43 190.56 549.75 C189.9 549.75 189.24 549.75 188.56 549.75 Z M197.56 551.75 C198.56 553.75 198.56 553.75 198.56 553.75 Z " fill="#FAC82B" transform="translate(610.4375,222.25)"/>
<path d="M0 0 C2.86 0.14 2.86 0.14 6.31 0.69 C8.01 0.94 8.01 0.94 9.74 1.2 C13.03 2.01 15.28 2.99 18 5 C18 5.66 18 6.32 18 7 C19.32 7.33 20.64 7.66 22 8 C20.68 8.66 19.36 9.32 18 10 C18.99 13.8 20.01 16.02 22.56 19.06 C24.94 21.93 25.79 23.34 26 27 C25.5 27.5 25.5 27.5 25 28 C24.96 29.67 24.96 31.33 25 33 C27.34 34.26 29.41 35.11 32 35.81 C35.58 37.23 36.92 38.8 39 42 C39 42.66 39 43.32 39 44 C39.66 44 40.32 44 41 44 C42.46 46.65 43 47.89 43 51 C43.66 51 44.32 51 45 51 C45.08 52.9 45.14 54.79 45.19 56.69 C45.24 58.27 45.24 58.27 45.29 59.89 C44.96 63.42 43.92 65.06 42 68 C41.38 69.75 40.81 71.52 40.31 73.31 C40.06 74.2 39.81 75.08 39.55 75.99 C39.37 76.65 39.19 77.32 39 78 C41.75 77.31 43.53 76.64 45.22 74.31 C46.2 72.57 47.11 70.79 48 69 C48.66 69 49.32 69 50 69 C52.2 72.55 52.27 75.5 52.25 79.62 C52.26 81.35 52.26 81.35 52.27 83.1 C52 86 52 86 50 88 C49.81 89.95 49.81 89.95 49.62 91.94 C48.68 101.73 45.43 108.63 38 115 C37.11 115.89 36.23 116.77 35.31 117.69 C34.55 118.45 33.79 119.21 33 120 C32.36 120.7 31.72 121.4 31.06 122.12 C28.59 124.37 26.02 125.63 23 127 C20.66 124.52 20.02 123.22 19.71 119.77 C19.74 118.61 19.78 117.45 19.81 116.25 C19.85 114.49 19.85 114.49 19.89 112.7 C19.93 111.81 19.96 110.92 20 110 C18.35 111.23 18.35 111.23 17 113 C17.28 114.91 17.28 114.91 18 117 C18.13 120.67 18.04 124.32 18 128 C11.07 128 4.14 128 -3 128 C-3.66 126.68 -4.32 125.36 -5 124 C-4.26 123.46 -3.51 122.93 -2.75 122.38 C0.18 119.85 1.92 117.23 4 114 C4.66 113.67 5.32 113.34 6 113 C2.51 113.65 -0.85 114.48 -4.25 115.5 C-5.56 115.89 -5.56 115.89 -6.89 116.28 C-8.96 116.81 -8.96 116.81 -10 118 C-16.03 118.67 -20.57 117.82 -26 115 C-26.95 114.53 -27.9 114.05 -28.88 113.56 C-31 112 -31 112 -31.81 110 C-32 108 -32 108 -32 105 C-33.15 103.63 -33.15 103.63 -36.25 103.75 C-40.78 102.84 -42.11 101.53 -45 98 C-46.05 96.36 -47.05 94.7 -48 93 C-50.27 89.32 -50.27 89.32 -53 86 C-53.95 86.04 -54.9 86.08 -55.88 86.12 C-59 86 -59 86 -60.88 84.81 C-62.35 82.44 -62.22 80.74 -62 78 C-60.54 78.06 -59.08 78.15 -57.62 78.25 C-56.81 78.3 -56 78.34 -55.16 78.39 C-53 79 -53 79 -51.71 81.05 C-51.36 82.01 -51.36 82.01 -51 83 C-50.01 82.01 -50.01 82.01 -49 81 C-49.74 79.82 -49.74 79.82 -50.5 78.62 C-52 76 -52 76 -52 74 C-52.84 73.63 -52.84 73.63 -53.69 73.25 C-60.27 69.69 -60.27 69.69 -61.76 66.23 C-64.67 55.11 -64.16 43.19 -58.38 33.19 C-57.92 32.47 -57.47 31.74 -57 31 C-56.3 28.81 -56.3 28.81 -56 27 C-55.34 27 -54.68 27 -54 27 C-54 25.68 -54 24.36 -54 23 C-53.34 23 -52.68 23 -52 23 C-51.77 22.44 -51.54 21.89 -51.3 21.32 C-49.65 18.37 -47.58 16.32 -45.19 13.94 C-44.34 13.08 -43.48 12.22 -42.61 11.34 C-39.05 8.15 -36.52 6.09 -31.69 5.81 C-30.8 5.87 -29.91 5.94 -29 6 C-29 5.34 -29 4.68 -29 4 C-8.19 0.69 -8.19 0.69 -2 2 C-1.34 1.34 -0.68 0.68 0 0 Z M-43 27 C-43.33 27.99 -43.66 28.98 -44 30 C-42.68 30.33 -41.36 30.66 -40 31 C-39.67 29.68 -39.34 28.36 -39 27 C-40.32 27 -41.64 27 -43 27 Z M-52 46 C-54.52 49.78 -53.83 50.67 -53 55 C-52.93 57.46 -52.91 59.92 -52.94 62.38 C-52.95 63.62 -52.96 64.87 -52.96 66.15 C-52.98 67.09 -52.99 68.03 -53 69 C-52.01 68.34 -51.02 67.68 -50 67 C-49.58 64.78 -49.58 64.78 -49.71 62.21 C-49.72 61.27 -49.73 60.33 -49.74 59.36 C-49.76 58.37 -49.79 57.39 -49.81 56.38 C-49.83 55.38 -49.84 54.39 -49.85 53.37 C-49.89 50.91 -49.94 48.46 -50 46 C-50.66 46 -51.32 46 -52 46 Z M29 47 C29 47.99 29 48.98 29 50 C29.66 50 30.32 50 31 50 C30.67 49.01 30.34 48.02 30 47 C29.67 47 29.34 47 29 47 Z M-55 59 C-55 60.98 -55 62.96 -55 65 C-54.67 65 -54.34 65 -54 65 C-54 63.02 -54 61.04 -54 59 C-54.33 59 -54.66 59 -55 59 Z M-49 83 C-49 83.66 -49 84.32 -49 85 C-48.34 85 -47.68 85 -47 85 C-47 84.34 -47 83.68 -47 83 C-47.66 83 -48.32 83 -49 83 Z M-14 92 C-15.32 93.32 -16.64 94.64 -18 96 C-17.34 97.65 -16.68 99.3 -16 101 C-11.57 101.3 -11.57 101.3 -7.62 99.5 C-6.82 98.76 -6.82 98.76 -6 98 C-6.33 97.01 -6.66 96.02 -7 95 C-10.5 93.28 -10.5 93.28 -14 92 Z M20 101 C20 101.66 20 102.32 20 103 C20.66 103 21.32 103 22 103 C22 102.34 22 101.68 22 101 C21.34 101 20.68 101 20 101 Z " fill="#F9C72B" transform="translate(427,136)"/>
<path d="M0 0 C1.2 0 1.2 0 2.43 0 C11.51 0.1 19.16 1.99 27.25 6.19 C27.25 6.85 27.25 7.51 27.25 8.19 C28.24 8.68 28.24 8.68 29.25 9.19 C29.61 10.85 29.94 12.52 30.25 14.19 C31.64 18.02 34.01 19.8 37.25 22.19 C37.75 20.7 37.75 20.7 38.25 19.19 C37.78 18.57 37.3 17.95 36.81 17.31 C35.25 15.19 35.25 15.19 34.88 12.56 C35 11.78 35.12 11 35.25 10.19 C36.24 9.53 37.23 8.87 38.25 8.19 C40.75 9.81 40.75 9.81 43.25 12.19 C43.56 15.44 43.56 15.44 43.25 18.19 C42.59 18.19 41.93 18.19 41.25 18.19 C41.25 18.85 41.25 19.51 41.25 20.19 C41.83 20.44 42.42 20.69 43.02 20.94 C45.57 22.36 47.09 23.93 49 26.12 C49.61 26.81 50.23 27.5 50.86 28.21 C52.25 30.19 52.25 30.19 52.25 33.19 C52.91 33.19 53.57 33.19 54.25 33.19 C54.31 33.81 54.37 34.44 54.43 35.09 C54.52 35.9 54.6 36.72 54.69 37.56 C54.77 38.37 54.85 39.19 54.93 40.02 C55.14 42.23 55.14 42.23 56.25 44.19 C57.22 44.39 58.19 44.6 59.19 44.81 C60.2 45.27 61.21 45.72 62.25 46.19 C63.29 49.05 63.85 51.23 64.25 54.19 C64.36 54.95 64.47 55.71 64.58 56.49 C64.83 58.39 65.05 60.29 65.25 62.19 C64.59 62.19 63.93 62.19 63.25 62.19 C63.23 63.14 63.21 64.09 63.19 65.06 C62.55 69.91 59.64 73.25 56.75 77.05 C55.06 79.03 55.06 79.03 55.25 81.19 C55.91 80.77 56.57 80.36 57.25 79.94 C67.11 74.19 67.11 74.19 69.25 74.19 C69.3 76.54 69.34 78.9 69.38 81.25 C69.4 82.56 69.42 83.87 69.45 85.22 C69.24 89.31 68.52 92.34 67.25 96.19 C62.3 96.68 62.3 96.68 57.25 97.19 C56.59 96.2 55.93 95.21 55.25 94.19 C54.59 94.19 53.93 94.19 53.25 94.19 C53.25 93.53 53.25 92.87 53.25 92.19 C51.6 92.19 49.95 92.19 48.25 92.19 C48.58 93.18 48.91 94.17 49.25 95.19 C51.18 96.07 51.18 96.07 53.5 96.62 C57.55 97.71 60.08 99.45 63.25 102.19 C57.21 108.81 51.67 113.93 43.25 117.19 C42 117.74 42 117.74 40.72 118.3 C35.48 119.64 30.33 119.44 24.94 119.38 C23.83 119.37 22.72 119.37 21.58 119.37 C13.39 119.33 13.39 119.33 12.25 118.19 C10.9 117.96 9.55 117.78 8.19 117.62 C6.89 117.48 5.59 117.34 4.25 117.19 C4.25 116.53 4.25 115.87 4.25 115.19 C2.6 115.19 0.95 115.19 -0.75 115.19 C0.24 114.86 1.23 114.53 2.25 114.19 C2.75 112.7 2.75 112.7 3.25 111.19 C5.58 110.52 7.92 109.85 10.25 109.19 C10.75 107.7 10.75 107.7 11.25 106.19 C2.67 106.19 -5.91 106.19 -14.75 106.19 C-15.08 105.2 -15.41 104.21 -15.75 103.19 C-16.41 103.19 -17.07 103.19 -17.75 103.19 C-17.75 102.53 -17.75 101.87 -17.75 101.19 C-18.41 101.19 -19.07 101.19 -19.75 101.19 C-19.75 100.53 -19.75 99.87 -19.75 99.19 C-20.41 99.19 -21.07 99.19 -21.75 99.19 C-21.75 98.53 -21.75 97.87 -21.75 97.19 C-22.41 97.19 -23.07 97.19 -23.75 97.19 C-26.95 93.13 -26.75 90.2 -26.75 85.19 C-28.12 82.32 -28.12 82.32 -29.75 80.19 C-33.21 80.68 -33.21 80.68 -36.75 81.19 C-37.08 79.87 -37.41 78.55 -37.75 77.19 C-38.41 77.19 -39.07 77.19 -39.75 77.19 C-39.75 76.53 -39.75 75.87 -39.75 75.19 C-40.41 75.19 -41.07 75.19 -41.75 75.19 C-42.74 73.21 -43.73 71.23 -44.75 69.19 C-45.33 69.33 -45.9 69.48 -46.5 69.62 C-47.96 69.99 -49.43 70.36 -50.89 70.72 C-51.5 70.88 -52.12 71.03 -52.75 71.19 C-53.26 69.15 -53.76 67.11 -54.25 65.06 C-54.53 63.93 -54.81 62.79 -55.09 61.62 C-56.59 53.81 -56.59 53.81 -54.69 50.13 C-54.24 49.53 -53.78 48.93 -53.31 48.31 C-50.93 44.81 -50.33 42.37 -50.05 38.2 C-49.59 35.13 -48.19 32.69 -46.71 29.99 C-45.65 28.12 -45.65 28.12 -44.88 25.69 C-41.79 18.83 -35.94 11.9 -29.62 7.81 C-27.75 7.19 -27.75 7.19 -23.75 7.19 C-23.75 6.53 -23.75 5.87 -23.75 5.19 C-20.35 3.09 -17.7 3.01 -13.75 3.19 C-13.75 2.53 -13.75 1.87 -13.75 1.19 C-9.16 0.04 -4.7 -0 0 0 Z M4.25 9.19 C3.92 10.51 3.59 11.83 3.25 13.19 C3.93 13.32 4.6 13.45 5.3 13.59 C6.19 13.77 7.08 13.94 8 14.12 C8.88 14.3 9.76 14.47 10.67 14.65 C13.25 15.19 13.25 15.19 15.31 15.78 C17.54 16.25 19.25 16.09 21.5 15.75 C22.74 15.56 23.98 15.38 25.25 15.19 C24.92 14.53 24.59 13.87 24.25 13.19 C21.76 12.83 19.3 12.74 16.79 12.63 C13.85 12.12 12.56 11.01 10.25 9.19 C7.08 8.94 7.08 8.94 4.25 9.19 Z M-16.75 13.19 C-17.08 14.18 -17.41 15.17 -17.75 16.19 C-16.43 16.52 -15.11 16.85 -13.75 17.19 C-13.75 15.87 -13.75 14.55 -13.75 13.19 C-14.74 13.19 -15.73 13.19 -16.75 13.19 Z M44.25 55.19 C41.77 56.67 41.77 56.67 39.25 58.19 C39.48 63.22 39.48 63.22 42.31 67.12 C42.95 67.48 43.59 67.83 44.25 68.19 C45.77 65.2 47.19 62.37 48.25 59.19 C46.93 57.87 45.61 56.55 44.25 55.19 Z M39.25 93.19 C38.92 94.18 38.59 95.17 38.25 96.19 C39.24 96.19 40.23 96.19 41.25 96.19 C41.25 95.2 41.25 94.21 41.25 93.19 C40.59 93.19 39.93 93.19 39.25 93.19 Z M36.25 104.19 C37.25 106.19 37.25 106.19 37.25 106.19 Z M35.25 115.19 C35.58 115.85 35.91 116.51 36.25 117.19 C36.58 116.53 36.91 115.87 37.25 115.19 C36.59 115.19 35.93 115.19 35.25 115.19 Z " fill="#F9C72B" transform="translate(396.75,516.8125)"/>
<path d="M0 0 C9.04 -0.71 15.05 0.75 23 5 C24.07 5.43 25.14 5.87 26.25 6.31 C32.62 10.22 36.61 16.49 40 23 C38.68 23 37.36 23 36 23 C36 23.66 36 24.32 36 25 C34.68 25 33.36 25 32 25 C32 26.65 32 28.3 32 30 C32.86 30.19 32.86 30.19 33.74 30.38 C36.05 31.01 37.99 31.86 40.12 32.94 C40.81 33.28 41.49 33.62 42.2 33.96 C44 35 44 35 46 37 C46.2 39.89 46.28 42.67 46.25 45.56 C46.25 46.38 46.24 47.19 46.24 48.03 C46.14 54.26 45.84 60.32 43 66 C43.58 65.71 44.15 65.42 44.75 65.12 C46.83 64.08 48.92 63.04 51 62 C51.08 64.38 51.14 66.75 51.19 69.12 C51.21 69.79 51.24 70.46 51.26 71.14 C51.33 75.91 50.36 78.9 48 83 C47.56 84.09 47.56 84.09 47.11 85.2 C45.22 89.75 43.21 92.44 38.61 94.38 C31.6 96.05 23 96.68 16.56 93 C15.72 92.34 14.87 91.68 14 91 C14 90.34 14 89.68 14 89 C12.86 88.81 12.86 88.81 11.69 88.62 C9 88 9 88 6 86 C6.33 84.35 6.66 82.7 7 81 C7.66 81 8.32 81 9 81 C9.5 79.51 9.5 79.51 10 78 C8.35 78 6.7 78 5 78 C5 77.34 5 76.68 5 76 C3.35 75.67 1.7 75.34 0 75 C0 74.34 0 73.68 0 73 C-1.49 72.5 -1.49 72.5 -3 72 C-3 71.34 -3 70.68 -3 70 C-4.11 69.91 -4.11 69.91 -5.25 69.81 C-9.52 68.55 -11.07 65.58 -13.25 61.88 C-14 60 -14 60 -14 57 C-14.66 57 -15.32 57 -16 57 C-16.33 55.35 -16.66 53.7 -17 52 C-17.66 52 -18.32 52 -19 52 C-19.1 51.15 -19.21 50.31 -19.31 49.44 C-19.85 45.96 -19.85 45.96 -21.56 42.94 C-24.86 35.67 -23.71 26.29 -21 19 C-20.34 19 -19.68 19 -19 19 C-18.93 18.28 -18.87 17.57 -18.8 16.83 C-17.75 13.11 -15.93 11.39 -13.19 8.69 C-12.31 7.8 -11.44 6.92 -10.54 6.01 C-8 4 -8 4 -4 4 C-4 3.34 -4 2.68 -4 2 C-2.68 2 -1.36 2 0 2 C0 1.34 0 0.68 0 0 Z M10.25 9.5 C9.84 10 9.43 10.49 9 11 C9.66 12.32 10.32 13.64 11 15 C11.6 14.79 12.2 14.59 12.81 14.38 C15 14 15 14 18 16 C18.66 17.84 18.66 17.84 19.06 19.94 C19.67 23.02 20.17 24.26 22 27 C23.98 26.73 23.98 26.73 26 26 C26.33 25.01 26.66 24.02 27 23 C26.34 23 25.68 23 25 23 C24.73 21.95 24.46 20.9 24.19 19.81 C22.58 14.64 20.81 10.77 16 8 C12.12 7.57 12.12 7.57 10.25 9.5 Z M30 26 C31 28 31 28 31 28 Z M35 82 C35 82.99 35 83.98 35 85 C35.33 84.34 35.66 83.68 36 83 C36.66 82.67 37.32 82.34 38 82 C37.01 82 36.02 82 35 82 Z " fill="#F9C72B" transform="translate(483,91)"/>
<path d="M0 0 C7.13 4.57 14.41 10.61 20.09 16.92 C20.45 18.58 20.78 20.25 21.09 21.92 C22.07 23.93 23.07 25.93 24.09 27.92 C25.5 31.62 26.09 33.91 26.09 37.92 C26.75 37.92 27.41 37.92 28.09 37.92 C28.58 36.93 28.58 36.93 29.09 35.92 C30.08 35.59 31.07 35.26 32.09 34.92 C32.09 36.24 32.09 37.56 32.09 38.92 C32.75 38.92 33.41 38.92 34.09 38.92 C35.76 41.88 36.42 44.29 36.71 47.67 C36.83 48.87 36.83 48.87 36.94 50.09 C37.01 50.99 37.01 50.99 37.09 51.92 C37.75 51.92 38.41 51.92 39.09 51.92 C38.74 59.28 38.07 64.73 32.71 70.11 C26.83 75.41 22.95 76.24 15.21 76.17 C14.03 76.18 14.03 76.18 12.82 76.19 C8.18 76.18 4.45 75.68 0.09 73.92 C1.14 71.3 1.74 70.12 4.21 68.67 C4.83 68.42 5.45 68.17 6.09 67.92 C6.09 67.59 6.09 67.26 6.09 66.92 C1.26 66.82 -3.17 66.88 -7.91 67.92 C-8.24 67.59 -8.57 67.26 -8.91 66.92 C-10.47 66.79 -12.03 66.69 -13.6 66.61 C-18.35 66.17 -21.24 65.13 -24.91 61.92 C-26.92 58.72 -27.27 55.9 -27.54 52.17 C-27.61 51.18 -27.68 50.2 -27.76 49.18 C-27.81 48.44 -27.86 47.69 -27.91 46.92 C-31.19 47.67 -31.19 47.67 -32.91 50.92 C-33.57 50.92 -34.23 50.92 -34.91 50.92 C-34.91 51.58 -34.91 52.24 -34.91 52.92 C-35.57 52.92 -36.23 52.92 -36.91 52.92 C-36.91 52.26 -36.91 51.6 -36.91 50.92 C-37.9 50.59 -38.89 50.26 -39.91 49.92 C-45.53 45.46 -49.36 36.36 -50.23 29.36 C-50.51 23.86 -50.28 18.41 -49.91 12.92 C-49.25 12.92 -48.59 12.92 -47.91 12.92 C-47.82 12.18 -47.73 11.44 -47.64 10.67 C-46.1 4.85 -40.32 0.54 -35.29 -2.46 C-22.68 -8.53 -11.99 -6.79 0 0 Z M-42.1 21.98 C-44.17 23.84 -44.17 23.84 -44.41 26.79 C-43.63 31.65 -41.01 33.87 -37.54 37.17 C-34.59 39.13 -32.4 39.59 -28.91 39.92 C-28.58 38.93 -28.25 37.94 -27.91 36.92 C-29.01 36.1 -30.12 35.29 -31.22 34.48 C-32.14 33.8 -32.14 33.8 -33.09 33.11 C-35.01 31.74 -35.01 31.74 -37.91 30.92 C-39.18 28.19 -38.95 27.04 -37.97 24.17 C-37.62 23.43 -37.27 22.68 -36.91 21.92 C-39.82 20.56 -39.82 20.56 -42.1 21.98 Z M-27.91 37.92 C-26.91 39.92 -26.91 39.92 -26.91 39.92 Z M22.09 63.92 C21.76 64.58 21.43 65.24 21.09 65.92 C22.08 65.59 23.07 65.26 24.09 64.92 C23.43 64.59 22.77 64.26 22.09 63.92 Z M32.09 63.92 C31.76 64.58 31.43 65.24 31.09 65.92 C31.75 65.92 32.41 65.92 33.09 65.92 C32.76 65.26 32.43 64.6 32.09 63.92 Z M34.09 63.92 C35.09 65.92 35.09 65.92 35.09 65.92 Z M23.09 71.92 C24.09 73.92 24.09 73.92 24.09 73.92 Z M18.09 73.92 C18.09 74.25 18.09 74.58 18.09 74.92 C19.74 74.92 21.39 74.92 23.09 74.92 C23.09 74.59 23.09 74.26 23.09 73.92 C21.44 73.92 19.79 73.92 18.09 73.92 Z " fill="#F8C62B" transform="translate(333.91015625,600.08203125)"/>
<path d="M0 0 C0.75 0.01 1.49 0.02 2.26 0.03 C4.09 0.05 5.92 0.09 7.75 0.12 C7.75 0.78 7.75 1.45 7.75 2.12 C8.74 2.46 9.73 2.78 10.75 3.12 C10.42 4.77 10.09 6.42 9.75 8.12 C12.4 8.2 14.54 8.19 17.09 7.4 C21.76 6.92 24.48 10.12 28.02 12.86 C38.15 21.25 38.15 21.25 39.75 27.12 C40.47 27.02 41.19 26.92 41.94 26.81 C45.97 27.26 47.26 29.01 49.75 32.12 C50.5 34.69 50.5 34.69 50.75 37.12 C50.94 37.74 51.12 38.36 51.31 39 C52.36 44.11 52.24 47.81 49.56 52.31 C46.55 56.72 42.84 60.28 37.75 62.12 C34.5 62.25 34.5 62.25 31.75 62.12 C31.25 60.14 31.25 60.14 30.75 58.12 C26.93 56.75 23.68 57.45 19.75 58.12 C19.75 58.78 19.75 59.45 19.75 60.12 C10.55 62.31 0.42 56.82 -7.5 52.25 C-18.4 43.83 -18.4 43.83 -19.25 39.12 C-19.77 37.79 -20.29 36.46 -20.81 35.12 C-23.47 27.22 -23.08 18.91 -20.25 11.12 C-19.59 11.12 -18.93 11.12 -18.25 11.12 C-18.19 10.38 -18.13 9.64 -18.06 8.88 C-16.83 4.72 -14.07 3.34 -10.6 1.02 C-7.11 -0.31 -3.67 -0.08 0 0 Z M-8.25 18.12 C-8.25 18.78 -8.25 19.45 -8.25 20.12 C-6.93 19.79 -5.61 19.47 -4.25 19.12 C-5.57 18.79 -6.89 18.47 -8.25 18.12 Z M-11.25 21.12 C-11.93 24.53 -11.93 24.53 -12.25 28.12 C-11.59 28.78 -10.93 29.45 -10.25 30.12 C-9.98 32.81 -10.16 35.42 -10.25 38.12 C-9.26 38.12 -8.27 38.12 -7.25 38.12 C-7.36 36.04 -7.49 33.96 -7.62 31.88 C-7.73 30.13 -7.73 30.13 -7.84 28.36 C-8.21 25.42 -8.73 23.63 -10.25 21.12 C-10.58 21.12 -10.91 21.12 -11.25 21.12 Z M39.75 47.12 C39.42 47.78 39.09 48.45 38.75 49.12 C40.07 49.12 41.39 49.12 42.75 49.12 C42.75 48.47 42.75 47.8 42.75 47.12 C41.76 47.12 40.77 47.12 39.75 47.12 Z M46.75 51.12 C47.75 53.12 47.75 53.12 47.75 53.12 Z M27.75 55.12 C31.75 56.12 31.75 56.12 31.75 56.12 Z " fill="#F6C52B" transform="translate(287.25,671.875)"/>
<path d="M0 0 C1.03 0.97 2.04 1.96 3 3 C3.66 3.29 4.32 3.58 5 3.88 C7.73 5.41 8.54 7.26 10 10 C10.52 10.8 11.03 11.61 11.56 12.44 C14.36 17.42 15.26 22.09 15.56 27.75 C15.68 32.03 15.68 32.03 17 36 C17.04 38 17.04 40 17 42 C16.01 42.33 15.02 42.66 14 43 C13.28 44.98 12.62 46.99 12 49 C11.01 50.67 10.01 52.34 9 54 C9 54.66 9 55.32 9 56 C10.32 56.33 11.64 56.66 13 57 C13.5 59.5 13.5 59.5 13 63 C9.81 67.38 6.38 70.43 1.38 72.5 C-5.8 73.56 -10.79 72.89 -17 69 C-19.64 66.55 -21.99 63.99 -24 61 C-24 59 -24 59 -22.5 57.38 C-22 56.92 -21.51 56.47 -21 56 C-21.99 56 -22.98 56 -24 56 C-24 55.34 -24 54.68 -24 54 C-24.61 53.76 -25.22 53.52 -25.85 53.27 C-28.47 51.72 -29.09 50.49 -30.36 47.75 C-30.75 46.92 -31.15 46.08 -31.55 45.22 C-31.95 44.34 -32.34 43.46 -32.75 42.56 C-33.16 41.69 -33.57 40.82 -34 39.92 C-37 33.43 -37 33.43 -37 30 C-35.02 29.5 -35.02 29.5 -33 29 C-33 26.69 -33 24.38 -33 22 C-33.8 22.02 -34.61 22.04 -35.44 22.06 C-38 22 -38 22 -39 21 C-39.53 14.96 -39.79 10 -36 5 C-35.88 4.32 -35.75 3.64 -35.62 2.94 C-34.63 -0.15 -32.64 -1.24 -30 -3 C-20.11 -7.82 -9.17 -5.09 0 0 Z M-13 5 C-13.99 5.66 -14.98 6.32 -16 7 C-13.4 10.9 -11.44 10.85 -7 12 C-6.26 12.39 -5.51 12.78 -4.75 13.19 C-2.83 14.32 -2.83 14.32 0 13 C-3.05 9.48 -5.58 8.32 -10 7 C-10.99 6.34 -11.98 5.68 -13 5 Z M-19 9 C-19.33 9.66 -19.66 10.32 -20 11 C-19.34 11.66 -18.68 12.32 -18 13 C-18.33 11.68 -18.66 10.36 -19 9 Z M-2 62 C-2.33 62.99 -2.66 63.98 -3 65 C-1.68 64.67 -0.36 64.34 1 64 C0.67 63.34 0.34 62.68 0 62 C-0.66 62 -1.32 62 -2 62 Z " fill="#F8C72B" transform="translate(582,96)"/>
<path d="M0 0 C12.21 -0.55 18.72 2.02 29.07 8.28 C32 10.06 32 10.06 35.22 11.52 C38.95 13.5 40.55 16.15 42 20 C42.56 22.7 42.81 25.24 43 28 C43.33 28 43.66 28 44 28 C44.5 29.98 44.5 29.98 45 32 C46.32 30.68 47.64 29.36 49 28 C52.73 33.67 55.56 38.16 56 45 C56.33 45.33 56.66 45.66 57 46 C57.07 47.52 57.08 49.04 57.06 50.56 C57.05 51.39 57.04 52.22 57.04 53.07 C57.02 53.7 57.01 54.34 57 55 C56.34 55 55.68 55 55 55 C55 55.76 55 56.53 55 57.31 C54 60 54 60 50.62 61.81 C45.48 63.48 40.34 63.27 35 63 C35 60.36 35 57.72 35 55 C34.46 55.32 33.92 55.65 33.37 55.98 C27.93 58.32 21.08 57.77 15.62 55.75 C14.76 55.17 13.89 54.6 13 54 C11.55 53.13 11.55 53.13 10.06 52.25 C0.53 45.25 0.53 45.25 -0.51 40.84 C-0.75 39.93 -0.75 39.93 -1 39 C-1.99 38.67 -2.98 38.34 -4 38 C-8.84 29.83 -11.92 20.55 -11 11 C-10.16 7.93 -9.15 4.96 -8 2 C-5.36 2 -2.72 2 0 2 C0 1.34 0 0.68 0 0 Z M11 6 C10.69 8.93 10.69 8.93 12.19 10.5 C16.15 13.84 16.15 13.84 21 15 C19.92 11.75 19.11 10.96 16.56 8.81 C15.64 8.02 15.64 8.02 14.69 7.21 C13.07 5.81 13.07 5.81 11 6 Z M42 33 C43 35 43 35 43 35 Z M46 46 C45.34 47.32 44.68 48.64 44 50 C45.32 49.67 46.64 49.34 48 49 C48 48.01 48 47.02 48 46 C47.34 46 46.68 46 46 46 Z " fill="#F7C62B" transform="translate(288,747)"/>
<path d="M0 0 C11.71 -0.38 22.17 1.7 31.09 9.93 C32.83 11.89 34.43 13.89 36 16 C36.51 16.64 37.01 17.27 37.54 17.93 C40.11 21.28 41 22.65 41 27 C41.66 27 42.32 27 43 27 C43 28.32 43 29.64 43 31 C43.66 31 44.32 31 45 31 C45.08 33.56 45.14 36.12 45.19 38.69 C45.21 39.41 45.24 40.13 45.26 40.87 C45.33 45.53 44.68 48.21 42 52 C42 52.66 42 53.32 42 54 C43.65 54.33 45.3 54.66 47 55 C47.34 60.74 47.37 65.07 44 70 C41.81 71.38 41.81 71.38 40 72 C40 71.01 40 70.02 40 69 C39.01 70.32 38.02 71.64 37 73 C37.99 73.5 37.99 73.5 39 74 C35.7 75.65 32.46 74.86 29 74 C22.93 71.37 16.84 67.52 12 63 C11.67 62.01 11.34 61.02 11 60 C12.65 60 14.3 60 16 60 C15.67 58.68 15.34 57.36 15 56 C13.89 55.81 13.89 55.81 12.75 55.62 C10.2 55.05 8.27 54.26 6 53 C6 52.34 6 51.68 6 51 C4.68 50.67 3.36 50.34 2 50 C2 49.34 2 48.68 2 48 C1.01 47.67 0.02 47.34 -1 47 C-2.39 43.12 -3 40.14 -3 36 C-3.66 35.67 -4.32 35.34 -5 35 C-7.13 28.5 -7.26 21.77 -7 15 C-6.34 15 -5.68 15 -5 15 C-5 13.02 -5 11.04 -5 9 C-4.34 9 -3.68 9 -3 9 C-1.76 6.02 -0.74 3.14 0 0 Z M-1 18 C-1.33 18.99 -1.66 19.98 -2 21 C-1.34 21.66 -0.68 22.32 0 23 C0.62 25.12 0.62 25.12 1 27 C1.99 27 2.98 27 4 27 C3.51 23.88 3 21 2 18 C1.01 18 0.02 18 -1 18 Z M0 28 C1 31 1 31 1 31 Z M4 29 C3.67 29.99 3.34 30.98 3 32 C3.66 32 4.32 32 5 32 C4.67 31.01 4.34 30.02 4 29 Z M29 62 C29.33 63.32 29.66 64.64 30 66 C33.07 65.22 33.07 65.22 35 63 C32.03 62.5 32.03 62.5 29 62 Z M41 66 C42 68 42 68 42 68 Z M43 66 C44 68 44 68 44 68 Z " fill="#F8C62B" transform="translate(620,120)"/>
<path d="M0 0 C7.38 4.7 12.94 14.42 15.66 22.7 C16.4 29.68 16.04 35.5 12.66 41.7 C13.98 40.71 15.3 39.72 16.66 38.7 C16.66 39.36 16.66 40.02 16.66 40.7 C17.65 40.7 18.64 40.7 19.66 40.7 C20.08 46.4 18.92 50.86 15.3 55.4 C12.44 58.44 9.84 60.76 5.66 61.7 C2.24 61.35 -1.02 60.59 -4.34 59.7 C-4.34 59.04 -4.34 58.38 -4.34 57.7 C-5.02 57.67 -5.7 57.65 -6.4 57.63 C-10.74 56.25 -13.51 53.22 -16.34 49.7 C-16.34 49.04 -16.34 48.38 -16.34 47.7 C-17 47.7 -17.66 47.7 -18.34 47.7 C-18.01 46.71 -17.68 45.72 -17.34 44.7 C-15.27 44.01 -15.27 44.01 -13.34 43.7 C-13.34 43.04 -13.34 42.38 -13.34 41.7 C-14.24 41.45 -15.15 41.2 -16.09 40.95 C-21.87 38.72 -23.83 35.17 -26.34 29.7 C-29.07 20.84 -30.48 11.82 -28.34 2.7 C-20.97 -7.74 -9.81 -5.34 0 0 Z M-2.34 5.7 C-2.34 6.69 -2.34 7.68 -2.34 8.7 C-1.35 8.37 -0.36 8.04 0.66 7.7 C0.33 7.04 0 6.38 -0.34 5.7 C-1 5.7 -1.66 5.7 -2.34 5.7 Z M-25.34 8.7 C-25.01 9.36 -24.68 10.02 -24.34 10.7 C-23.68 10.7 -23.02 10.7 -22.34 10.7 C-22.34 10.04 -22.34 9.38 -22.34 8.7 C-23.33 8.7 -24.32 8.7 -25.34 8.7 Z M1.66 49.7 C1.33 50.69 1 51.68 0.66 52.7 C1.65 52.37 2.64 52.04 3.66 51.7 C3.66 51.04 3.66 50.38 3.66 49.7 C3 49.7 2.34 49.7 1.66 49.7 Z M12.66 52.7 C13.66 54.7 13.66 54.7 13.66 54.7 Z " fill="#F7C52B" transform="translate(713.3359375,171.3046875)"/>
<path d="M0 0 C0 0.66 0 1.32 0 2 C0.78 2.04 1.57 2.08 2.38 2.12 C7.57 3.38 11.54 6.13 16 9 C16.98 9.57 16.98 9.57 17.98 10.14 C19.62 11.12 19.62 11.12 22 13 C22 14.32 22 15.64 22 17 C22.66 17 23.32 17 24 17 C24.5 22.45 24.5 22.45 25 28 C27.22 24.3 27.22 24.3 27 21 C30.06 21.33 31.6 21.6 33.81 23.81 C35 26 35 26 35 30 C35.66 30 36.32 30 37 30 C37 31.32 37 32.64 37 34 C37.66 34 38.32 34 39 34 C39.62 44.66 39.62 44.66 37.38 49.5 C33.79 53.28 31.35 55.81 25.95 56.24 C22.95 56.25 19.99 56.17 17 56 C16.34 54.68 15.68 53.36 15 52 C15.99 50.68 16.98 49.36 18 48 C16.79 48.5 16.79 48.5 15.56 49 C11.33 50.19 7.37 50.57 3 50 C2.01 49.34 1.02 48.68 0 48 C0 47.34 0 46.68 0 46 C-0.73 45.92 -1.46 45.84 -2.21 45.76 C-8.22 44.12 -13.13 37.83 -16.31 32.62 C-16.87 31.43 -17.43 30.23 -18 29 C-18.59 27.75 -18.59 27.75 -19.19 26.47 C-21.67 20.64 -22.55 16.28 -20.91 10.09 C-19.59 7.06 -17.78 5.7 -15 4 C-14.23 3.2 -14.23 3.2 -13.44 2.38 C-9.09 -1.79 -5.62 -0.94 0 0 Z M-12 25 C-12.99 25.5 -12.99 25.5 -14 26 C-14 26.66 -14 27.32 -14 28 C-13.01 28.33 -12.02 28.66 -11 29 C-11.33 27.68 -11.66 26.36 -12 25 Z M29 40 C29.66 40.66 30.32 41.32 31 42 C31 41.34 31 40.68 31 40 C30.34 40 29.68 40 29 40 Z M19 47 C19.33 47.99 19.66 48.98 20 50 C20 49.34 20 48.68 20 48 C20.66 47.67 21.32 47.34 22 47 C21.01 47 20.02 47 19 47 Z M33 48 C34 50 34 50 34 50 Z M35 48 C36 50 36 50 36 50 Z " fill="#F7C62B" transform="translate(327,826)"/>
<path d="M0 0 C4.76 1.37 7.46 2.46 10.04 6.72 C11.24 9.57 11.38 12.04 11.56 15.12 C11.71 19.21 11.71 19.21 13 23 C13.56 29.97 13.56 29.97 11.56 33.62 C7.99 35.54 5.73 34.69 1.93 33.68 C0 33 0 33 -1 32 C-4.56 31.71 -8.11 31.55 -11.68 31.38 C-15 31 -15 31 -18 29 C-18.69 26.88 -18.69 26.88 -19 25 C-18.34 24.79 -17.68 24.59 -17 24.38 C-11.29 21.76 -5.38 18.01 -3 12 C-2.66 9.69 -2.44 7.41 -2.31 5.09 C-2 3 -2 3 0 0 Z " fill="#F4C32A" transform="translate(381,656)"/>
<path d="M0 0 C1.32 0.66 2.64 1.32 4 2 C4.04 4.33 4.04 6.67 4 9 C3.67 9.33 3.34 9.66 3 10 C2.84 11.49 2.75 12.98 2.68 14.47 C2.64 15.37 2.6 16.27 2.56 17.2 C2.52 18.14 2.48 19.09 2.44 20.06 C2.39 21.01 2.35 21.96 2.31 22.94 C2.2 25.29 2.1 27.65 2 30 C-7.23 31.52 -7.23 31.52 -10.5 29.31 C-11.33 28.55 -12.15 27.79 -13 27 C-16.9 25.16 -20.94 23.4 -25.18 22.57 C-27 22 -27 22 -29 19 C-29.44 16.5 -29.44 16.5 -29 14 C-26.63 11.63 -24.76 11.02 -21.43 10.93 C-19.51 10.98 -17.58 11.03 -15.66 11.08 C-11.02 10.94 -8.2 9.06 -4.81 6.06 C-3.09 4.11 -1.51 2.12 0 0 Z " fill="#F6C52B" transform="translate(534,183)"/>
<path d="M0 0 C17.12 -0.62 17.12 -0.62 25 3 C27 5 27 5 27.19 8.06 C27 11 27 11 26 12 C19.55 12.64 14.86 11.87 9 9 C7.74 8.69 6.48 8.38 5.19 8.06 C2 7 2 7 0.56 5.06 C0 3 0 3 0 0 Z " fill="#F1C029" transform="translate(638,197)"/>
<path d="M0 0 C3 0 3 0 5.17 1.3 C8.11 5.65 7.42 10.14 7.25 15.25 C7.23 16.28 7.21 17.31 7.2 18.38 C7.15 20.92 7.08 23.46 7 26 C5.02 26.66 3.04 27.32 1 28 C1 27.34 1 26.68 1 26 C-0.32 25.67 -1.64 25.34 -3 25 C-4.08 20.1 -3.85 15.73 -3.19 10.81 C-3.1 10.1 -3.02 9.39 -2.94 8.66 C-2.48 5.1 -2.02 3.03 0 0 Z M4 14 C5 18 5 18 5 18 Z M4 22 C3.67 22.66 3.34 23.32 3 24 C3.66 24 4.32 24 5 24 C4.67 23.34 4.34 22.68 4 22 Z " fill="#F0C029" transform="translate(351,786)"/>
<path d="M0 0 C3.26 0.26 4.62 0.57 6.81 3.06 C8.43 7.07 8.42 9.68 8 14 C6.83 15.76 6.83 15.76 5 17 C2.3 17.07 2.3 17.07 -0.69 16.69 C-1.68 16.57 -2.68 16.45 -3.7 16.32 C-4.46 16.22 -5.22 16.11 -6 16 C-6.61 13.65 -6.61 13.65 -7 11 C-5.25 8.56 -5.25 8.56 -3 6 C-1.96 4.02 -0.94 2.03 0 0 Z " fill="#EEBE29" transform="translate(348,715)"/>
<path d="M0 0 C0.12 2.38 0.12 2.38 0 5 C-3.99 8.99 -9.07 9.29 -14.5 9.31 C-19.54 9.25 -22.85 8.85 -27 6 C-27 5.01 -27 4.02 -27 3 C-25.99 2.88 -24.97 2.76 -23.93 2.63 C-22.58 2.46 -21.23 2.29 -19.88 2.12 C-19.21 2.05 -18.54 1.97 -17.86 1.89 C-14.67 1.48 -11.77 0.92 -8.72 -0.09 C-5.44 -1.19 -3.32 -0.79 0 0 Z M-3 2 C-2 4 -2 4 -2 4 Z M-7 4 C-6 6 -6 6 -6 6 Z " fill="#EABA28" transform="translate(449,640)"/>
<path d="M0 0 C3.1 0.92 4.73 1.67 6.81 4.19 C8.26 7.62 8.22 10.31 8 14 C7.34 14 6.68 14 6 14 C5.88 14.76 5.75 15.53 5.62 16.31 C5 19 5 19 3 22 C0.38 22.19 0.38 22.19 -2 22 C-3.72 17.41 -2.63 12.44 -1.44 7.81 C-0.89 5.88 -0.89 5.88 -1 3.31 C-1 1 -1 1 0 0 Z M5 7 C6 9 6 9 6 9 Z " fill="#F8C62B" transform="translate(371,858)"/>
<path d="M0 0 C1.32 0 2.64 0 4 0 C5.89 7.97 4.89 15.24 1.04 22.41 C0 24 0 24 -2 26 C-4.62 26.12 -4.62 26.12 -7 26 C-7.33 24.02 -7.66 22.04 -8 20 C-7.34 20 -6.68 20 -6 20 C-5.92 19.34 -5.83 18.68 -5.75 18 C-5.08 15.32 -4.29 13.52 -3 11.12 C-1.02 7.35 -0.35 4.23 0 0 Z M2 9 C3 11 3 11 3 11 Z M1 13 C2 15 2 15 2 15 Z M-1 20 C0 22 0 22 0 22 Z M-4 22 C-4.33 22.99 -4.66 23.98 -5 25 C-4.01 24.67 -3.02 24.34 -2 24 C-2.66 23.34 -3.32 22.68 -4 22 Z " fill="#EEBD29" transform="translate(481,232)"/>
<path d="M0 0 C-0.06 1.61 -0.15 3.21 -0.25 4.81 C-0.32 6.15 -0.32 6.15 -0.39 7.52 C-1 10 -1 10 -2.89 11.8 C-5.54 13.31 -7 13.37 -10 13 C-12.81 12 -12.81 12 -15 11 C-15 10.34 -15 9.68 -15 9 C-15.66 9 -16.32 9 -17 9 C-17.33 7.02 -17.66 5.04 -18 3 C-16.97 2.71 -15.94 2.42 -14.88 2.12 C-12.47 1.45 -10.22 0.7 -7.88 -0.19 C-4.77 -1.06 -3.06 -0.9 0 0 Z M-6 7 C-5 9 -5 9 -5 9 Z M-8 9 C-8 9.99 -8 10.98 -8 12 C-7.01 11.67 -6.02 11.34 -5 11 C-5.33 10.34 -5.66 9.68 -6 9 C-6.66 9 -7.32 9 -8 9 Z " fill="#EFBF29" transform="translate(588,175)"/>
<path d="M0 0 C2.4 0.45 4.79 0.91 7.19 1.38 C7.86 1.5 8.53 1.63 9.23 1.76 C13.01 2.5 16.48 3.43 20 5 C20 6.32 20 7.64 20 9 C18.08 10.92 14.73 10.17 12.19 10.19 C10.94 10.2 9.7 10.22 8.42 10.23 C5.27 10.02 3.61 9.66 1 8 C1 7.01 1 6.02 1 5 C0.34 5 -0.32 5 -1 5 C-0.67 3.35 -0.34 1.7 0 0 Z " fill="#E1B326" transform="translate(704,233)"/>
<path d="M0 0 C0.03 1.81 0.05 3.62 0.06 5.44 C0.07 6.45 0.09 7.46 0.1 8.5 C0 11 0 11 -1 12 C-1.34 17.33 -1.34 17.33 1 22 C1.99 22.66 2.98 23.32 4 24 C1 26 1 26 -0.94 25.75 C-1.62 25.5 -2.3 25.25 -3 25 C-4.08 24.69 -4.08 24.69 -5.19 24.38 C-7 23 -7 23 -7.81 19.44 C-7.87 18.3 -7.94 17.17 -8 16 C-7.67 15.67 -7.34 15.34 -7 15 C-6.77 13.32 -6.59 11.63 -6.44 9.94 C-6.35 9.02 -6.27 8.1 -6.18 7.15 C-6.12 6.44 -6.06 5.73 -6 5 C-5.34 5 -4.68 5 -4 5 C-4 3.68 -4 2.36 -4 1 C-1 0 -1 0 0 0 Z " fill="#E9B927" transform="translate(468,343)"/>
<path d="M0 0 C0.93 0.14 1.86 0.29 2.81 0.44 C5 1 5 1 7 3 C7.2 5.38 7.2 5.38 7.12 8.12 C7.11 9.04 7.09 9.95 7.07 10.88 C7.05 11.58 7.02 12.28 7 13 C6.01 13 5.02 13 4 13 C3.75 12.22 3.5 11.43 3.25 10.62 C1.77 7.51 1.17 7.17 -2 6 C-5.37 5.71 -8.72 5.62 -12.1 5.54 C-13.54 5.27 -13.54 5.27 -15 5 C-16.4 2.96 -16.4 2.96 -17 1 C-11.01 -0.46 -6.14 -1.32 0 0 Z " fill="#E6B828" transform="translate(550,652)"/>
<path d="M0 0 C3.47 1.98 3.47 1.98 7 4 C7 4.66 7 5.32 7 6 C7.6 6.12 8.2 6.25 8.81 6.38 C11 7 11 7 14 9 C14 9.66 14 10.32 14 11 C15.32 11 16.64 11 18 11 C19.12 12.69 19.12 12.69 20 15 C19.12 17.75 19.12 17.75 18 20 C16.89 19.06 15.79 18.13 14.69 17.19 C14.07 16.67 13.46 16.14 12.82 15.61 C11 14 11 14 9.49 12.36 C7.88 10.68 7.88 10.68 4.5 10.12 C1 9 1 9 -1.06 6.62 C-2 4 -2 4 -1.19 1.69 C-0.8 1.13 -0.4 0.57 0 0 Z " fill="#E9B928" transform="translate(592,473)"/>
<path d="M0 0 C1.92 1.52 1.92 1.52 3 3 C2.67 3.99 2.34 4.98 2 6 C-1.89 6.07 -5.25 5.97 -9 5 C-9.99 5.5 -9.99 5.5 -11 6 C-12.71 6.07 -14.42 6.08 -16.12 6.06 C-17.04 6.05 -17.95 6.04 -18.88 6.04 C-19.58 6.02 -20.28 6.01 -21 6 C-21 4.68 -21 3.36 -21 2 C-14.29 -0.56 -7.1 -0.83 0 0 Z " fill="#EDBD28" transform="translate(370,732)"/>
<path d="M0 0 C0.66 0.33 1.32 0.66 2 1 C1.34 4.3 0.68 7.6 0 11 C-0.99 11.33 -1.98 11.66 -3 12 C-3 15.96 -3 19.92 -3 24 C-7 23 -7 23 -9 20 C-8.8 13.37 -6.37 7.01 -2 2 C-1.34 2 -0.68 2 0 2 C0 1.34 0 0.68 0 0 Z M-5 20 C-4 22 -4 22 -4 22 Z " fill="#E6B727" transform="translate(590,183)"/>
<path d="M0 0 C0.33 0.66 0.66 1.32 1 2 C1.66 2.33 2.32 2.66 3 3 C3.12 6.38 3.12 6.38 3 10 C2.34 10.66 1.68 11.32 1 12 C1.29 14.35 1.29 14.35 2 17 C2.34 19 2.67 21 3 23 C1.02 23.99 1.02 23.99 -1 25 C-2.69 21.26 -3.37 18.02 -3.69 13.94 C-3.77 12.92 -3.86 11.89 -3.95 10.84 C-3.99 8.3 -3.77 6.41 -3 4 C-2.34 4 -1.68 4 -1 4 C-0.67 2.68 -0.34 1.36 0 0 Z M-3 9 C-2 11 -2 11 -2 11 Z " fill="#DEB126" transform="translate(652,590)"/>
<path d="M0 0 C0.79 0.29 1.58 0.58 2.39 0.88 C4.33 1.6 6.26 2.33 8.19 3.06 C8.19 4.05 8.19 5.04 8.19 6.06 C4.88 6.25 4.88 6.25 1.19 6.06 C0.72 5.55 0.25 5.05 -0.23 4.52 C-1.75 2.79 -1.75 2.79 -4.22 3.06 C-5.1 3.2 -5.97 3.35 -6.88 3.5 C-9.54 3.93 -9.54 3.93 -11.81 4.06 C-12.47 3.4 -13.13 2.74 -13.81 2.06 C-13.81 0.74 -13.81 -0.58 -13.81 -1.94 C-8.68 -3.74 -4.82 -1.85 0 0 Z " fill="#EEBE29" transform="translate(743.8125,894.9375)"/>
<path d="M0 0 C2.34 0.29 4.67 0.62 7 1 C7.33 2.65 7.66 4.3 8 6 C5.26 8.58 3.65 9.91 -0.12 10.44 C-3 10 -3 10 -4.88 8.69 C-6 7 -6 7 -6 4 C-3.56 2.38 -3.56 2.38 -1 1 C-0.67 0.67 -0.34 0.34 0 0 Z M1 6 C1.33 6.66 1.66 7.32 2 8 C2.33 7.34 2.66 6.68 3 6 C2.34 6 1.68 6 1 6 Z " fill="#E5B626" transform="translate(458,263)"/>
<path d="M0 0 C1.65 0 3.3 0 5 0 C5.33 0.99 5.66 1.98 6 3 C8.02 3.73 8.02 3.73 10 4 C10 4.66 10 5.32 10 6 C12.31 6.66 14.62 7.32 17 8 C17.33 9.98 17.66 11.96 18 14 C11.09 11.55 3.98 8.4 0 2 C0 1.34 0 0.68 0 0 Z " fill="#EFBE29" transform="translate(556,987)"/>
<path d="M0 0 C2 0.94 2 0.94 3.19 3.44 C3.83 6.21 4.19 8.68 4.44 11.5 C4.79 15.32 5.68 17.8 8 20.94 C5.63 20.72 5.63 20.72 3 19.94 C1.74 17.97 1.74 17.97 0.88 15.44 C0.56 14.54 0.24 13.65 -0.09 12.73 C-0.39 11.81 -0.69 10.89 -1 9.94 C-1.3 9.06 -1.6 8.18 -1.91 7.27 C-2.63 5.17 -3.32 3.06 -4 0.94 C-2 -0.06 -2 -0.06 0 0 Z " fill="#F4C32A" transform="translate(786,445.0625)"/>
<path d="M0 0 C0.59 0.22 1.18 0.44 1.79 0.66 C2.15 8.02 2.15 8.02 0.67 10.66 C-2 12.08 -4.24 11.86 -7.21 11.66 C-8.08 9.04 -8.08 9.04 -8.21 5.66 C-6.19 2.5 -3.98 -0.61 0 0 Z M-3.21 7.66 C-2.21 9.66 -2.21 9.66 -2.21 9.66 Z " fill="#E9BA27" transform="translate(466.20703125,622.33984375)"/>
<path d="M0 0 C1.46 0.06 2.92 0.15 4.38 0.25 C5.59 0.32 5.59 0.32 6.84 0.39 C9 1 9 1 10.16 2.98 C10.58 3.98 10.58 3.98 11 5 C11.66 5.33 12.32 5.66 13 6 C12.01 6.99 11.02 7.98 10 9 C9.67 8.67 9.34 8.34 9 8 C8.05 8.04 7.1 8.08 6.12 8.12 C3 8 3 8 1.12 6.81 C-0.35 4.44 -0.22 2.74 0 0 Z " fill="#D8AC24" transform="translate(365,214)"/>
<path d="M0 0 C4.88 2.88 4.88 2.88 6 4 C6.04 6 6.04 8 6 10 C4.35 10.33 2.7 10.66 1 11 C-1.02 8.73 -1.95 7.43 -2.31 4.38 C-2 2 -2 2 0 0 Z " fill="#EDBD29" transform="translate(434,525)"/>
<path d="M0 0 C1.32 0 2.64 0 4 0 C6 3 6 3 5.62 5.69 C5.42 6.45 5.21 7.21 5 8 C3.02 8 1.04 8 -1 8 C-1.62 5.12 -1.62 5.12 -2 2 C-1.34 1.34 -0.68 0.68 0 0 Z M2 4 C2.33 4.66 2.66 5.32 3 6 C3.33 5.34 3.66 4.68 4 4 C3.34 4 2.68 4 2 4 Z " fill="#D8AD25" transform="translate(334,740)"/>
<path d="M0 0 C0.66 0.33 1.32 0.66 2 1 C1.34 4.3 0.68 7.6 0 11 C-1.32 11.33 -2.64 11.66 -4 12 C-5.34 6.62 -5.34 6.62 -3.69 3.62 C-2 2 -2 2 0 2 C0 1.34 0 0.68 0 0 Z " fill="#EEBD28" transform="translate(590,183)"/>
<path d="M0 0 C1.98 0.66 3.96 1.32 6 2 C6 3.32 6 4.64 6 6 C3 8 3 8 -1 8 C-1.62 5.12 -1.62 5.12 -2 2 C-1.34 1.34 -0.68 0.68 0 0 Z M1 4 C2 6 2 6 2 6 Z " fill="#E6B627" transform="translate(893,1008)"/>
<path d="M0 0 C2.69 0.31 2.69 0.31 5 1 C5.12 3.38 5.12 3.38 5 6 C4.34 6.66 3.68 7.32 3 8 C1 7.88 1 7.88 -1 7 C-2.25 4.94 -2.25 4.94 -3 3 C-1.81 1.44 -1.81 1.44 0 0 Z " fill="#D4A924" transform="translate(480,617)"/>
<path d="M0 0 C2.88 0.25 2.88 0.25 6 1 C7.5 2.81 7.5 2.81 8 5 C7.12 7.25 7.12 7.25 6 9 C3.16 7.73 0.86 6.55 -1 4 C-0.69 1.81 -0.69 1.81 0 0 Z M5 3 C6 5 6 5 6 5 Z " fill="#C99F21" transform="translate(630,807)"/>
<path d="M0 0 C2.44 0.75 2.44 0.75 5 2 C5.81 4.12 5.81 4.12 6 6 C3 8 3 8 0.81 7.62 C0.21 7.42 -0.38 7.21 -1 7 C-1.62 4.62 -1.62 4.62 -2 2 C-1.34 1.34 -0.68 0.68 0 0 Z M1 4 C1 4.66 1 5.32 1 6 C1.66 5.67 2.32 5.34 3 5 C2.34 4.67 1.68 4.34 1 4 Z " fill="#E7B828" transform="translate(445,280)"/>
<path d="M0 0 C2.97 0.5 2.97 0.5 6 1 C6.62 3.38 6.62 3.38 7 6 C6.34 6.66 5.68 7.32 5 8 C3 7.81 3 7.81 1 7 C-1 4 -1 4 -0.62 1.81 C-0.42 1.21 -0.21 0.62 0 0 Z M3 4 C3 4.99 3 5.98 3 7 C3.66 6.67 4.32 6.34 5 6 C5 5.34 5 4.68 5 4 C4.34 4 3.68 4 3 4 Z " fill="#E4B627" transform="translate(599,169)"/>
<path d="M0 0 C0.99 0.33 1.98 0.66 3 1 C3 7.27 3 13.54 3 20 C1 18 1 18 0.88 14.88 C0.92 13.93 0.96 12.98 1 12 C0.34 12 -0.32 12 -1 12 C-1 11.34 -1 10.68 -1 10 C-0.34 10 0.32 10 1 10 C0.67 6.7 0.34 3.4 0 0 Z " fill="#8A6711" transform="translate(352,789)"/>
<path d="M0 0 C2.31 0 4.62 0 7 0 C7.62 1.88 7.62 1.88 8 4 C7.34 4.66 6.68 5.32 6 6 C3.38 5.62 3.38 5.62 1 5 C0.67 3.35 0.34 1.7 0 0 Z " fill="#E5B626" transform="translate(515,225)"/>
<path d="M0 0 C0.99 0 1.98 0 3 0 C2.94 1.61 2.85 3.21 2.75 4.81 C2.7 5.71 2.66 6.6 2.61 7.52 C2 10 2 10 -0.05 11.82 C-1.01 12.41 -1.01 12.41 -2 13 C-2.66 12.67 -3.32 12.34 -4 12 C-3.48 11.07 -2.97 10.14 -2.44 9.19 C-0.6 6.07 -0.6 6.07 -2 3 C-1.34 2.34 -0.68 1.68 0 1 C0 0.67 0 0.34 0 0 Z " fill="#E5B626" transform="translate(585,175)"/>
<path d="M0 0 C1.98 0.99 3.96 1.98 6 3 C5.34 4.32 4.68 5.64 4 7 C2.68 7 1.36 7 0 7 C-0.66 6.34 -1.32 5.68 -2 5 C-1.46 1.46 -1.46 1.46 0 0 Z M1 4 C1 4.66 1 5.32 1 6 C1.66 5.67 2.32 5.34 3 5 C2.34 4.67 1.68 4.34 1 4 Z " fill="#D7AC25" transform="translate(632,1025)"/>
<path d="M0 0 C0.78 0.04 1.57 0.08 2.38 0.12 C2.71 1.77 3.03 3.42 3.38 5.12 C1.07 5.12 -1.25 5.12 -3.62 5.12 C-3.96 4.13 -4.28 3.14 -4.62 2.12 C-2.62 0.12 -2.62 0.12 0 0 Z " fill="#D3A824" transform="translate(725.625,776.875)"/>
<path d="M0 0 C0.6 0.35 1.2 0.7 1.81 1.06 C1.48 2.38 1.15 3.7 0.81 5.06 C-3.19 5.06 -3.19 5.06 -5.19 4.06 C-5.19 2.74 -5.19 1.42 -5.19 0.06 C-2.19 -0.94 -2.19 -0.94 0 0 Z " fill="#DDB126" transform="translate(807.1875,527.9375)"/>
<path d="M0 0 C1.32 0.99 2.64 1.98 4 3 C3.19 4.94 3.19 4.94 2 7 C1.01 7.33 0.02 7.66 -1 8 C-1 7.34 -1 6.68 -1 6 C-1.66 5.67 -2.32 5.34 -3 5 C-1.12 1.12 -1.12 1.12 0 0 Z " fill="#C29B21" transform="translate(409,673)"/>
<path d="M0 0 C2.12 0.38 2.12 0.38 4 1 C4.33 2.32 4.66 3.64 5 5 C3.02 5.99 3.02 5.99 1 7 C0.01 5.35 -0.98 3.7 -2 2 C-1.34 1.34 -0.68 0.68 0 0 Z " fill="#D3A623" transform="translate(645,568)"/>
<path d="M0 0 C2.97 0.5 2.97 0.5 6 1 C6.33 2.65 6.66 4.3 7 6 C4.62 5.81 4.62 5.81 2 5 C0.69 2.44 0.69 2.44 0 0 Z " fill="#F3C22A" transform="translate(573,191)"/>
<path d="M0 0 C2.06 0.44 2.06 0.44 4 1 C4.2 4.72 4.15 5.77 2 9 C0.68 8.67 -0.64 8.34 -2 8 C-1.01 7.34 -0.02 6.68 1 6 C0.67 5.67 0.34 5.34 0 5 C-0.62 3 -0.62 3 -1 1 C-0.67 0.67 -0.34 0.34 0 0 Z " fill="#CBA122" transform="translate(640,825)"/>
<path d="M0 0 C2.48 0.5 2.48 0.5 5 1 C4.67 3.31 4.34 5.62 4 8 C2.68 7.34 1.36 6.68 0 6 C0 4.02 0 2.04 0 0 Z M3 4 C4 6 4 6 4 6 Z " fill="#F2C12A" transform="translate(361,740)"/>
<path d="M0 0 C2.12 0.38 2.12 0.38 4 1 C4 2.98 4 4.96 4 7 C2.12 6.75 2.12 6.75 0 6 C-1.25 3.94 -1.25 3.94 -2 2 C-1.34 1.34 -0.68 0.68 0 0 Z " fill="#DCAE24" transform="translate(710,881)"/>
<path d="M0 0 C2.5 0.31 2.5 0.31 5 1 C5.33 1.66 5.66 2.32 6 3 C5.67 3.99 5.34 4.98 5 6 C3.35 5.67 1.7 5.34 0 5 C-0.56 3.06 -0.56 3.06 -1 1 C-0.67 0.67 -0.34 0.34 0 0 Z M3 3 C4 5 4 5 4 5 Z " fill="#DBAE25" transform="translate(592,197)"/>
<path d="M0 0 C1.32 0.33 2.64 0.66 4 1 C4 1.99 4 2.98 4 4 C4.66 4 5.32 4 6 4 C5.67 4.99 5.34 5.98 5 7 C3.06 6.31 3.06 6.31 1 5 C0.25 2.38 0.25 2.38 0 0 Z " fill="#E6B827" transform="translate(360,722)"/>
<path d="M0 0 C7.92 0 15.84 0 24 0 C24 0.33 24 0.66 24 1 C16.08 1 8.16 1 0 1 C0 0.67 0 0.34 0 0 Z " fill="#000000" transform="translate(633,473)"/>
<path d="M0 0 C6.93 0 13.86 0 21 0 C21 0.33 21 0.66 21 1 C14.07 1 7.14 1 0 1 C0 0.67 0 0.34 0 0 Z " fill="#000000" transform="translate(763,781)"/>
<path d="M0 0 C1.32 0.33 2.64 0.66 4 1 C4 2.65 4 4.3 4 6 C3.01 6 2.02 6 1 6 C0.67 4.02 0.34 2.04 0 0 Z " fill="#E9B927" transform="translate(375,887)"/>
<path d="M0 0 C1.32 0 2.64 0 4 0 C4 1.65 4 3.3 4 5 C2.68 5 1.36 5 0 5 C-0.56 3.06 -0.56 3.06 -1 1 C-0.67 0.67 -0.34 0.34 0 0 Z " fill="#E9B927" transform="translate(665,856)"/>
<path d="M0 0 C1.32 0 2.64 0 4 0 C4 0.66 4 1.32 4 2 C4.66 2.33 5.32 2.66 6 3 C5 4 5 4 2.44 4.06 C1.23 4.03 1.23 4.03 0 4 C-0.33 3.01 -0.66 2.02 -1 1 C-0.67 0.67 -0.34 0.34 0 0 Z " fill="#E0B327" transform="translate(629,519)"/>
<path d="M0 0 C2.48 0.5 2.48 0.5 5 1 C5 1.99 5 2.98 5 4 C3.35 3.67 1.7 3.34 0 3 C0 2.01 0 1.02 0 0 Z " fill="#EDBC28" transform="translate(730,246)"/>
<path d="M0 0 C2.48 0.5 2.48 0.5 5 1 C5 2.32 5 3.64 5 5 C3.68 4.67 2.36 4.34 1 4 C0.67 2.68 0.34 1.36 0 0 Z " fill="#DDAF25" transform="translate(626,505)"/>
<path d="M0 0 C2.17 0.51 4 1 6 2 C5.67 2.99 5.34 3.98 5 5 C4.01 4.67 3.02 4.34 2 4 C2 3.34 2 2.68 2 2 C1.34 1.34 0.68 0.68 0 0 Z " fill="#CDA121" transform="translate(651,849)"/>
<path d="M0 0 C3.96 0 7.92 0 12 0 C12 0.33 12 0.66 12 1 C8.04 1 4.08 1 0 1 C0 0.67 0 0.34 0 0 Z " fill="#000000" transform="translate(431,265)"/>
<path d="M0 0 C3.63 0 7.26 0 11 0 C11 0.33 11 0.66 11 1 C7.37 1 3.74 1 0 1 C0 0.67 0 0.34 0 0 Z " fill="#000000" transform="translate(385,624)"/>
<path d="M0 0 C0.33 0 0.66 0 1 0 C1 3.3 1 6.6 1 10 C0.67 10 0.34 10 0 10 C0 6.7 0 3.4 0 0 Z " fill="#000000" transform="translate(530,132)"/>
<path d="M0 0 C2.97 0 5.94 0 9 0 C9 0.33 9 0.66 9 1 C6.03 1 3.06 1 0 1 C0 0.67 0 0.34 0 0 Z " fill="#000000" transform="translate(613,471)"/>
<path d="M0 0 C2.97 0 5.94 0 9 0 C9 0.33 9 0.66 9 1 C6.03 1 3.06 1 0 1 C0 0.67 0 0.34 0 0 Z " fill="#000000" transform="translate(711,244)"/>
<path d="M0 0 C2.64 0 5.28 0 8 0 C8 0.33 8 0.66 8 1 C5.36 1 2.72 1 0 1 C0 0.67 0 0.34 0 0 Z " fill="#000000" transform="translate(748,779)"/>
<path d="M0 0 C2.64 0 5.28 0 8 0 C8 0.33 8 0.66 8 1 C5.36 1 2.72 1 0 1 C0 0.67 0 0.34 0 0 Z " fill="#000000" transform="translate(342,732)"/>
<path d="M0 0 C0.33 0 0.66 0 1 0 C1 2.64 1 5.28 1 8 C0.67 8 0.34 8 0 8 C0 5.36 0 2.72 0 0 Z " fill="#000000" transform="translate(842,636)"/>
<path d="M0 0 C0.33 0 0.66 0 1 0 C1 2.64 1 5.28 1 8 C0.67 8 0.34 8 0 8 C0 5.36 0 2.72 0 0 Z " fill="#000000" transform="translate(793,506)"/>
<path d="M0 0 C0.33 0 0.66 0 1 0 C1 2.31 1 4.62 1 7 C0.67 7 0.34 7 0 7 C0 4.69 0 2.38 0 0 Z " fill="#000000" transform="translate(619,844)"/>
<path d="M0 0 C2.31 0 4.62 0 7 0 C7 0.33 7 0.66 7 1 C4.69 1 2.38 1 0 1 C0 0.67 0 0.34 0 0 Z " fill="#000000" transform="translate(527,214)"/>
<path d="M0 0 C0.33 0 0.66 0 1 0 C1 2.31 1 4.62 1 7 C0.67 7 0.34 7 0 7 C0 4.69 0 2.38 0 0 Z " fill="#FBC92C" transform="translate(612,137)"/>
<path d="M0 0 C0.33 0 0.66 0 1 0 C1 2.31 1 4.62 1 7 C0.67 7 0.34 7 0 7 C0 4.69 0 2.38 0 0 Z " fill="#000000" transform="translate(598,123)"/>
<path d="M0 0 C0.33 0 0.66 0 1 0 C1 1.98 1 3.96 1 6 C0.67 6 0.34 6 0 6 C0 4.02 0 2.04 0 0 Z " fill="#000000" transform="translate(638,812)"/>
<path d="M0 0 C0.33 0 0.66 0 1 0 C1 1.98 1 3.96 1 6 C0.67 6 0.34 6 0 6 C0 4.02 0 2.04 0 0 Z " fill="#000000" transform="translate(619,793)"/>
<path d="M0 0 C1.98 0 3.96 0 6 0 C6 0.33 6 0.66 6 1 C4.02 1 2.04 1 0 1 C0 0.67 0 0.34 0 0 Z " fill="#000000" transform="translate(723,783)"/>
<path d="M0 0 C0.33 0 0.66 0 1 0 C1 1.98 1 3.96 1 6 C0.67 6 0.34 6 0 6 C0 4.02 0 2.04 0 0 Z " fill="#000000" transform="translate(600,733)"/>
<path d="M0 0 C1.98 0 3.96 0 6 0 C6 0.33 6 0.66 6 1 C4.02 1 2.04 1 0 1 C0 0.67 0 0.34 0 0 Z " fill="#000000" transform="translate(614,490)"/>
<path d="M0 0 C0.33 0 0.66 0 1 0 C1 1.98 1 3.96 1 6 C0.67 6 0.34 6 0 6 C0 4.02 0 2.04 0 0 Z " fill="#000000" transform="translate(791,455)"/>
<path d="M0 0 C0.33 0 0.66 0 1 0 C1 1.98 1 3.96 1 6 C0.67 6 0.34 6 0 6 C0 4.02 0 2.04 0 0 Z " fill="#000000" transform="translate(477,224)"/>
<path d="M0 0 C1.98 0 3.96 0 6 0 C6 0.33 6 0.66 6 1 C4.02 1 2.04 1 0 1 C0 0.67 0 0.34 0 0 Z " fill="#000000" transform="translate(656,210)"/>
<path d="M0 0 C0.33 0 0.66 0 1 0 C1 1.98 1 3.96 1 6 C0.67 6 0.34 6 0 6 C0 4.02 0 2.04 0 0 Z " fill="#000000" transform="translate(666,155)"/>
<path d="M0 0 C1.65 0 3.3 0 5 0 C5 0.33 5 0.66 5 1 C3.35 1 1.7 1 0 1 C0 0.67 0 0.34 0 0 Z " fill="#000000" transform="translate(764,1110)"/>
<path d="M0 0 C1.65 0 3.3 0 5 0 C5 0.33 5 0.66 5 1 C3.35 1 1.7 1 0 1 C0 0.67 0 0.34 0 0 Z " fill="#000000" transform="translate(593,749)"/>
<path d="M0 0 C0.33 0 0.66 0 1 0 C1 1.65 1 3.3 1 5 C0.67 5 0.34 5 0 5 C0 3.35 0 1.7 0 0 Z " fill="#000000" transform="translate(356,721)"/>
<path d="M0 0 C0.33 0 0.66 0 1 0 C1 1.65 1 3.3 1 5 C0.67 5 0.34 5 0 5 C0 3.35 0 1.7 0 0 Z " fill="#000000" transform="translate(339,713)"/>
<path d="M0 0 C0.33 0 0.66 0 1 0 C1 1.65 1 3.3 1 5 C0.67 5 0.34 5 0 5 C0 3.35 0 1.7 0 0 Z " fill="#000000" transform="translate(793,529)"/>
<path d="M0 0 C0.33 0 0.66 0 1 0 C1 1.65 1 3.3 1 5 C0.67 5 0.34 5 0 5 C0 3.35 0 1.7 0 0 Z " fill="#000000" transform="translate(757,310)"/>
<path d="M0 0 C4 1 4 1 4 1 Z " fill="#000000" transform="translate(821,1091)"/>
<path d="M0 0 C4 1 4 1 4 1 Z " fill="#000000" transform="translate(516,974)"/>
<path d="M0 0 C4 1 4 1 4 1 Z " fill="#000000" transform="translate(541,658)"/>
<path d="M0 0 C1 4 1 4 1 4 Z " fill="#000000" transform="translate(655,593)"/>
<path d="M0 0 C4 1 4 1 4 1 Z " fill="#000000" transform="translate(630,524)"/>
<path d="M0 0 C1 4 1 4 1 4 Z " fill="#000000" transform="translate(668,176)"/>
<path d="M0 0 C4 1 4 1 4 1 Z " fill="#FBC92C" transform="translate(430,135)"/>
<path d="M0 0 C3 1 3 1 3 1 Z " fill="#000000" transform="translate(867,1095)"/>
<path d="M0 0 C3 1 3 1 3 1 Z " fill="#000000" transform="translate(730,1091)"/>
<path d="M0 0 C3 1 3 1 3 1 Z " fill="#000000" transform="translate(622,985)"/>
<path d="M0 0 C3 1 3 1 3 1 Z " fill="#000000" transform="translate(748,902)"/>
<path d="" fill="#FBC92C" transform="translate(0,0)"/>
<path d="" fill="#000000" transform="translate(0,0)"/>
<path d="" fill="#000000" transform="translate(0,0)"/>
<path d="M0 0 C3 1 3 1 3 1 Z " fill="#000000" transform="translate(654,195)"/>
<path d="M0 0 C2 1 2 1 2 1 Z " fill="#000000" transform="translate(655,1038)"/>
<path d="M0 0 C2 1 2 1 2 1 Z " fill="#000000" transform="translate(508,972)"/>
<path d="" fill="#000000" transform="translate(0,0)"/>
<path d="" fill="#000000" transform="translate(0,0)"/>
<path d="" fill="#000000" transform="translate(0,0)"/>
<path d="M0 0 C2 1 2 1 2 1 Z " fill="#000000" transform="translate(309,730)"/>
<path d="M0 0 C2 1 2 1 2 1 Z " fill="#000000" transform="translate(291,730)"/>
<path d="" fill="#000000" transform="translate(0,0)"/>
<path d="" fill="#000000" transform="translate(0,0)"/>
<path d="" fill="#000000" transform="translate(0,0)"/>
<path d="" fill="#000000" transform="translate(0,0)"/>
<path d="M0 0 C2 1 2 1 2 1 Z " fill="#000000" transform="translate(514,208)"/>
<path d="" fill="#FBC92C" transform="translate(0,0)"/>
<path d="" fill="#000000" transform="translate(0,0)"/>
<path d="" fill="#000000" transform="translate(0,0)"/>
<path d="" fill="#000000" transform="translate(0,0)"/>
<path d="" fill="#000000" transform="translate(0,0)"/>
<path d="" fill="#000000" transform="translate(0,0)"/>
<path d="" fill="#000000" transform="translate(0,0)"/>
<path d="" fill="#000000" transform="translate(0,0)"/>
<path d="" fill="#000000" transform="translate(0,0)"/>
<path d="" fill="#FBC92C" transform="translate(0,0)"/>
<path d="" fill="#000000" transform="translate(0,0)"/>
<path d="" fill="#000000" transform="translate(0,0)"/>
<path d="" fill="#000000" transform="translate(0,0)"/>
<path d="" fill="#856210" transform="translate(0,0)"/>
<path d="" fill="#856210" transform="translate(0,0)"/>
<path d="" fill="#000000" transform="translate(0,0)"/>
<path d="" fill="#000000" transform="translate(0,0)"/>
<path d="" fill="#000000" transform="translate(0,0)"/>
<path d="" fill="#856210" transform="translate(0,0)"/>
<path d="" fill="#000000" transform="translate(0,0)"/>
<path d="" fill="#FBC92C" transform="translate(0,0)"/>
<path d="" fill="#856210" transform="translate(0,0)"/>
<path d="" fill="#000000" transform="translate(0,0)"/>
<path d="" fill="#FBC92C" transform="translate(0,0)"/>
<path d="" fill="#FBC92C" transform="translate(0,0)"/>
<path d="" fill="#FBC92C" transform="translate(0,0)"/>
<path d="" fill="#000000" transform="translate(0,0)"/>
<path d="" fill="#FBC92C" transform="translate(0,0)"/>
<path d="" fill="#000000" transform="translate(0,0)"/>
<path d="" fill="#856210" transform="translate(0,0)"/>
<path d="" fill="#000000" transform="translate(0,0)"/>
<path d="" fill="#FBC92C" transform="translate(0,0)"/>
<path d="" fill="#FBC92C" transform="translate(0,0)"/>
<path d="" fill="#000000" transform="translate(0,0)"/>
<path d="" fill="#000000" transform="translate(0,0)"/>
<path d="" fill="#FBC92C" transform="translate(0,0)"/>
<path d="" fill="#000000" transform="translate(0,0)"/>
<path d="" fill="#000000" transform="translate(0,0)"/>
<path d="" fill="#000000" transform="translate(0,0)"/>
<path d="" fill="#000000" transform="translate(0,0)"/>
<path d="" fill="#FBC92C" transform="translate(0,0)"/>
<path d="" fill="#FBC92C" transform="translate(0,0)"/>
<path d="" fill="#000000" transform="translate(0,0)"/>
<path d="" fill="#000000" transform="translate(0,0)"/>
<path d="" fill="#000000" transform="translate(0,0)"/>
<path d="" fill="#000000" transform="translate(0,0)"/>
<path d="" fill="#856210" transform="translate(0,0)"/>
<path d="" fill="#000000" transform="translate(0,0)"/>
<path d="" fill="#000000" transform="translate(0,0)"/>
<path d="" fill="#000000" transform="translate(0,0)"/>
<path d="" fill="#000000" transform="translate(0,0)"/>
<path d="" fill="#000000" transform="translate(0,0)"/>
<path d="" fill="#FBC92C" transform="translate(0,0)"/>
<path d="" fill="#856210" transform="translate(0,0)"/>
<path d="" fill="#FBC92C" transform="translate(0,0)"/>
<path d="" fill="#FBC92C" transform="translate(0,0)"/>
<path d="" fill="#FBC92C" transform="translate(0,0)"/>
<path d="" fill="#000000" transform="translate(0,0)"/>
<path d="" fill="#000000" transform="translate(0,0)"/>
<path d="" fill="#FBC92C" transform="translate(0,0)"/>
<path d="" fill="#000000" transform="translate(0,0)"/>
<path d="" fill="#FBC92C" transform="translate(0,0)"/>
<path d="" fill="#FBC92C" transform="translate(0,0)"/>
<path d="" fill="#000000" transform="translate(0,0)"/>
<path d="" fill="#000000" transform="translate(0,0)"/>
<path d="" fill="#000000" transform="translate(0,0)"/>
<path d="" fill="#000000" transform="translate(0,0)"/>
<path d="" fill="#000000" transform="translate(0,0)"/>
<path d="" fill="#000000" transform="translate(0,0)"/>
<path d="" fill="#FBC92C" transform="translate(0,0)"/>
<path d="" fill="#000000" transform="translate(0,0)"/>
<path d="" fill="#FBC92C" transform="translate(0,0)"/>
<path d="" fill="#FBC92C" transform="translate(0,0)"/>
<path d="" fill="#000000" transform="translate(0,0)"/>
<path d="" fill="#FBC92C" transform="translate(0,0)"/>
<path d="" fill="#000000" transform="translate(0,0)"/>
<path d="" fill="#000000" transform="translate(0,0)"/>
<path d="" fill="#000000" transform="translate(0,0)"/>
<path d="" fill="#FBC92C" transform="translate(0,0)"/>
<path d="" fill="#000000" transform="translate(0,0)"/>
<path d="" fill="#000000" transform="translate(0,0)"/>
<path d="" fill="#000000" transform="translate(0,0)"/>
<path d="" fill="#000000" transform="translate(0,0)"/>
<path d="" fill="#FBC92C" transform="translate(0,0)"/>
<path d="" fill="#000000" transform="translate(0,0)"/>
<path d="" fill="#000000" transform="translate(0,0)"/>
<path d="" fill="#FBC92C" transform="translate(0,0)"/>
<path d="" fill="#FBC92C" transform="translate(0,0)"/>
<path d="" fill="#856210" transform="translate(0,0)"/>
<path d="" fill="#856210" transform="translate(0,0)"/>
<path d="" fill="#000000" transform="translate(0,0)"/>
<path d="" fill="#000000" transform="translate(0,0)"/>
<path d="" fill="#000000" transform="translate(0,0)"/>
<path d="" fill="#FBC92C" transform="translate(0,0)"/>
<path d="" fill="#FBC92C" transform="translate(0,0)"/>
<path d="" fill="#FBC92C" transform="translate(0,0)"/>
<path d="" fill="#856210" transform="translate(0,0)"/>
<path d="" fill="#000000" transform="translate(0,0)"/>
<path d="" fill="#000000" transform="translate(0,0)"/>
<path d="" fill="#FBC92C" transform="translate(0,0)"/>
<path d="" fill="#000000" transform="translate(0,0)"/>
<path d="" fill="#000000" transform="translate(0,0)"/>
<path d="" fill="#FBC92C" transform="translate(0,0)"/>
<path d="" fill="#000000" transform="translate(0,0)"/>
<path d="" fill="#000000" transform="translate(0,0)"/>
<path d="" fill="#FBC92C" transform="translate(0,0)"/>
<path d="" fill="#856210" transform="translate(0,0)"/>
<path d="" fill="#000000" transform="translate(0,0)"/>
<path d="" fill="#000000" transform="translate(0,0)"/>
<path d="" fill="#FBC92C" transform="translate(0,0)"/>
<path d="" fill="#000000" transform="translate(0,0)"/>
<path d="" fill="#FBC92C" transform="translate(0,0)"/>
<path d="" fill="#000000" transform="translate(0,0)"/>
<path d="" fill="#000000" transform="translate(0,0)"/>
<path d="" fill="#FBC92C" transform="translate(0,0)"/>
<path d="" fill="#FBC92C" transform="translate(0,0)"/>
<path d="" fill="#000000" transform="translate(0,0)"/>
<path d="" fill="#FBC92C" transform="translate(0,0)"/>
<path d="" fill="#856210" transform="translate(0,0)"/>
<path d="" fill="#000000" transform="translate(0,0)"/>
<path d="" fill="#FBC92C" transform="translate(0,0)"/>
<path d="" fill="#FBC92C" transform="translate(0,0)"/>
<path d="" fill="#856210" transform="translate(0,0)"/>
<path d="" fill="#856210" transform="translate(0,0)"/>
<path d="" fill="#FBC92C" transform="translate(0,0)"/>
<path d="" fill="#856210" transform="translate(0,0)"/>
<path d="" fill="#856210" transform="translate(0,0)"/>
<path d="" fill="#FBC92C" transform="translate(0,0)"/>
<path d="" fill="#000000" transform="translate(0,0)"/>
<path d="" fill="#000000" transform="translate(0,0)"/>
<path d="" fill="#000000" transform="translate(0,0)"/>
<path d="" fill="#FBC92C" transform="translate(0,0)"/>
<path d="" fill="#FBC92C" transform="translate(0,0)"/>
<path d="" fill="#856210" transform="translate(0,0)"/>
<path d="" fill="#000000" transform="translate(0,0)"/>
<path d="" fill="#FBC92C" transform="translate(0,0)"/>
<path d="" fill="#FBC92C" transform="translate(0,0)"/>
<path d="" fill="#FBC92C" transform="translate(0,0)"/>
</svg>
