<?xml version="1.0" encoding="UTF-8"?>
<!-- Generator: visioncortex VTracer 0.6.3 -->
<svg version="1.1" xmlns="http://www.w3.org/2000/svg" width="1280" height="947">
<path d="M0 0 C1.05 0.15 1.05 0.15 2.12 0.31 C2.74 0.54 3.36 0.77 4 1 C4.4 1.93 4.4 1.93 4.81 2.88 C6.85 6.52 11.18 7.48 15.04 8.58 C17.84 9.28 20.66 9.92 23.48 10.55 C28.8 11.8 28.8 11.8 31 14 C31.68 16.33 32.34 18.66 33 21 C33.99 22.49 33.99 22.49 35 24 C35 24.99 35 25.98 35 27 C35.73 27.12 36.46 27.23 37.21 27.36 C40.04 28.01 42.15 28.92 44.69 30.31 C45.84 30.93 45.84 30.93 47.01 31.55 C50.08 33.79 50.82 35.88 51.41 39.58 C51.52 40.9 51.52 40.9 51.62 42.25 C51.74 43.59 51.74 43.59 51.85 44.95 C51.9 45.63 51.95 46.3 52 47 C52.89 47.25 53.77 47.5 54.69 47.75 C60.54 49.96 60.54 49.96 63 53 C63.48 57.04 63.43 60.96 63 65 C62.67 65.33 62.34 65.66 62 66 C61.83 68.5 61.83 68.5 62 71 C62.33 71.33 62.66 71.66 63 72 C63.12 73.24 63.25 74.47 63.38 75.75 C63.79 79.54 65.03 81.74 67 85 C67.78 89.38 66.78 91.64 64.44 95.25 C63.96 95.92 63.49 96.58 63 97.27 C62.5 98.12 62.5 98.12 62 99 C62.33 99.66 62.66 100.32 63 101 C62.67 101.99 62.34 102.98 62 104 C61.34 104 60.68 104 60 104 C60.95 107.35 61.9 110.69 63 114 C62.24 114.19 61.47 114.37 60.69 114.56 C56.81 116.63 56.43 118.92 55 123 C54.01 123 53.02 123 52 123 C51.96 123.99 51.92 124.98 51.88 126 C51.17 130.97 48.37 134.42 45 138 C42.44 139.69 42.44 139.69 40 141 C38.31 142.65 36.65 144.31 35 146 C33.69 147.03 32.36 148.04 31 149 C30.01 148.34 29.02 147.68 28 147 C28 147.99 28 148.98 28 150 C28.66 150.33 29.32 150.66 30 151 C28.34 152.34 26.67 153.67 25 155 C24.01 155.8 24.01 155.8 23 156.62 C19.34 159.14 16.13 160.04 11.75 160.38 C5.31 161 -0.11 162.97 -4.56 167.75 C-5.04 168.49 -5.51 169.24 -6 170 C-5.49 169.64 -4.98 169.28 -4.46 168.91 C2.78 164.03 2.78 164.03 8 165 C9.88 166.5 9.88 166.5 11 168 C10.3 168.35 9.6 168.7 8.88 169.06 C4.4 172.08 1.4 176.11 -1.8 180.42 C-2.4 181.23 -3 182.04 -3.62 182.88 C-4.17 183.64 -4.72 184.4 -5.29 185.18 C-7.19 187.2 -8.29 187.63 -11 188 C-11.1 188.66 -11.2 189.33 -11.3 190.01 C-12.21 195.42 -13.07 198.95 -17 203 C-17.66 203.99 -18.32 204.98 -19 206 C-20.48 205.01 -20.48 205.01 -22 204 C-22 204.99 -22 205.98 -22 207 C-21.34 207.33 -20.68 207.66 -20 208 C-20.33 208.66 -20.66 209.32 -21 210 C-21.04 212.33 -21.04 214.67 -21 217 C-21.72 217.23 -22.44 217.45 -23.19 217.69 C-29.71 220.73 -31.67 225.28 -34.03 231.68 C-35.2 234.47 -36.56 236.21 -39 238 C-39.66 238 -40.32 238 -41 238 C-41 240.97 -41 243.94 -41 247 C-41.74 247.12 -42.48 247.25 -43.25 247.38 C-47.47 248.33 -50.09 249.8 -53 253 C-53.33 252.01 -53.66 251.02 -54 250 C-54.33 251.32 -54.66 252.64 -55 254 C-55.66 254 -56.32 254 -57 254 C-57.33 254.99 -57.66 255.98 -58 257 C-67.9 262.45 -78.06 263.43 -89 261 C-89.49 259.02 -89.49 259.02 -90 257 C-90.99 257 -91.98 257 -93 257 C-92.67 257.66 -92.34 258.32 -92 259 C-92.33 259.66 -92.66 260.32 -93 261 C-93.66 261 -94.32 261 -95 261 C-95 260.01 -95 259.02 -95 258 C-95.99 257.67 -96.98 257.34 -98 257 C-99.36 255.69 -100.69 254.35 -102 253 C-102.96 252.36 -102.96 252.36 -103.94 251.7 C-107.89 248.45 -109.69 243.48 -112 239 C-112.99 237.3 -112.99 237.3 -114 235.56 C-115 233 -115 233 -114.19 230.62 C-113.8 230.09 -113.4 229.55 -113 229 C-113.66 229 -114.32 229 -115 229 C-116.85 225.07 -117.22 222.01 -117.12 217.69 C-117.11 216.62 -117.09 215.55 -117.07 214.45 C-117.05 213.64 -117.02 212.83 -117 212 C-116.34 212 -115.68 212 -115 212 C-114.9 210.74 -114.79 209.48 -114.69 208.19 C-113.39 197.55 -111.5 191.52 -103.28 184.19 C-101.17 182.17 -100.08 180.68 -99 178 C-98.01 178 -97.02 178 -96 178 C-96 176.02 -96 174.04 -96 172 C-89.5 169 -89.5 169 -85 169 C-84.84 168.26 -84.67 167.51 -84.5 166.75 C-82.3 162.72 -79.27 161.43 -75 160 C-70.39 159.53 -67.16 159.98 -63 162 C-63 161.34 -63 160.68 -63 160 C-64.18 159.57 -64.18 159.57 -65.38 159.12 C-68 158 -68 158 -70 156 C-69.38 154.12 -69.38 154.12 -68 152 C-64.88 150.75 -64.88 150.75 -62 150 C-61.88 148.89 -61.75 147.77 -61.62 146.62 C-61 143 -61 143 -59 141 C-58.01 140.67 -57.02 140.34 -56 140 C-56 139.34 -56 138.68 -56 138 C-55.01 137.34 -54.02 136.68 -53 136 C-51.94 134.03 -50.93 132.03 -50 130 C-49.34 130 -48.68 130 -48 130 C-48.04 129.28 -48.08 128.56 -48.12 127.81 C-47.99 124.79 -47.25 122.73 -46 120 C-44.35 120.33 -42.7 120.66 -41 121 C-41.66 120.01 -42.32 119.02 -43 118 C-43.12 115.31 -43.12 115.31 -43 113 C-43.66 113 -44.32 113 -45 113 C-45.99 111.02 -46.98 109.04 -48 107 C-47.34 107 -46.68 107 -46 107 C-46 106.34 -46 105.68 -46 105 C-46.66 105 -47.32 105 -48 105 C-47.62 102.56 -47.62 102.56 -47 100 C-46.34 99.67 -45.68 99.34 -45 99 C-44.78 100.67 -44.78 100.67 -44.56 102.38 C-44.22 105.82 -44.22 105.82 -43 108 C-42.39 108.29 -41.77 108.57 -41.14 108.87 C-38.55 110.24 -37.44 111.75 -35.75 114.12 C-35.23 114.85 -34.71 115.57 -34.17 116.32 C-33.79 116.87 -33.4 117.43 -33 118 C-32.67 117.67 -32.34 117.34 -32 117 C-32.4 116.53 -32.8 116.05 -33.21 115.57 C-37.19 110.59 -39.33 106.11 -41 100 C-41.39 98.8 -41.78 97.61 -42.19 96.38 C-43.27 91.87 -43.79 87.92 -42 83.56 C-41.67 83.05 -41.34 82.53 -41 82 C-41.66 81.44 -42.32 80.89 -43 80.31 C-45.39 77.54 -45.19 76.53 -45 73 C-45.66 72.34 -46.32 71.68 -47 71 C-47 69 -47 69 -45 67 C-45.33 66.01 -45.66 65.02 -46 64 C-46.3 61.2 -46.51 58.4 -46.72 55.59 C-46.92 52.89 -46.92 52.89 -48 50 C-48.04 47.67 -48.04 45.33 -48 43 C-48.66 43 -49.32 43 -50 43 C-49.67 42.01 -49.34 41.02 -49 40 C-48.03 39.77 -48.03 39.77 -47.04 39.53 C-46.36 39.36 -45.69 39.18 -45 39 C-44.48 37.84 -43.97 36.69 -43.44 35.5 C-40.06 27.99 -32.05 22.86 -25 19 C-18.04 16.38 -11.25 17.09 -4 18 C-6.94 16.33 -9.17 15.72 -12.55 15.59 C-13.39 15.55 -14.24 15.51 -15.11 15.47 C-16.41 15.42 -16.41 15.42 -17.75 15.38 C-18.64 15.34 -19.53 15.3 -20.44 15.26 C-22.63 15.16 -24.81 15.08 -27 15 C-26.25 11.7 -25.75 10.1 -23 8 C-21.87 7.53 -20.73 7.05 -19.56 6.56 C-16.01 5.28 -16.01 5.28 -14.06 2.94 C-10.1 -0.78 -5.12 -1.53 0 0 Z M-38 52 C-38 52.66 -38 53.32 -38 54 C-37.34 54 -36.68 54 -36 54 C-36 53.34 -36 52.68 -36 52 C-36.66 52 -37.32 52 -38 52 Z M-51 133 C-50 135 -50 135 -50 135 Z M-8 170 C-7 172 -7 172 -7 172 Z M-12.62 172.5 C-13.08 173 -13.53 173.49 -14 174 C-13.01 174.5 -13.01 174.5 -12 175 C-11.01 174.34 -10.02 173.68 -9 173 C-9 172.34 -9 171.68 -9 171 C-11.12 170.77 -11.12 170.77 -12.62 172.5 Z M-111 196 C-110 198 -110 198 -110 198 Z M-74 250 C-74.33 250.66 -74.66 251.32 -75 252 C-73.68 252 -72.36 252 -71 252 C-71 251.34 -71 250.68 -71 250 C-71.99 250 -72.98 250 -74 250 Z " fill="#F7C82D" transform="translate(1154,126)"/>
<path d="M0 0 C4.28 3.33 7.24 5.72 9 11 C9.99 11.66 10.98 12.32 12 13 C12 13.66 12 14.32 12 15 C12.99 15 13.98 15 15 15 C16.21 17.42 17.42 19.84 18.62 22.26 C19.47 23.95 20.34 25.63 21.22 27.3 C23.1 30.87 24 32.89 24 37 C21.71 35.87 19.45 34.7 17.2 33.49 C15.68 32.69 15.68 32.69 14.12 31.88 C13.12 31.34 12.11 30.8 11.07 30.24 C7.8 28.92 5.5 28.76 2 29 C2.81 29.38 3.62 29.75 4.45 30.14 C14.21 34.81 19.27 39.3 24 49 C24.56 50.15 24.56 50.15 25.14 51.32 C26.24 54.75 26.19 57.72 26.12 61.31 C26.11 62.57 26.09 63.82 26.07 65.11 C26.05 66.07 26.02 67.02 26 68 C26.66 68 27.32 68 28 68 C28 68.66 28 69.32 28 70 C28.99 70 29.98 70 31 70 C31 70.66 31 71.32 31 72 C28.53 72.5 28.53 72.5 26 73 C26.1 73.76 26.21 74.53 26.31 75.31 C26.16 76.64 26.16 76.64 26 78 C23.62 79.56 23.62 79.56 21 81 C19.67 83.07 19.67 83.07 19 85 C18.34 85 17.68 85 17 85 C16.81 86.18 16.81 86.18 16.62 87.38 C16 90 16 90 14 92 C13.92 92.8 13.84 93.61 13.75 94.44 C13 97 13 97 10.25 98.62 C9.18 99.08 8.11 99.53 7 100 C3.34 101.85 3.34 101.85 1 105 C1.66 105 2.32 105 3 105 C1.42 109.34 -0.46 113.15 -3 117 C-5.31 118.06 -5.31 118.06 -8 119 C-9.18 119.94 -10.32 120.93 -11.44 121.94 C-14.4 124.6 -17.33 126.39 -21 128 C-17.88 127.56 -15.17 127.07 -12.25 125.88 C-11.51 125.59 -10.76 125.3 -10 125 C-9.34 125.33 -8.68 125.66 -8 126 C-7.34 125.67 -6.68 125.34 -6 125 C-5.34 122.47 -5.34 122.47 -5 120 C-3.02 120.5 -3.02 120.5 -1 121 C-1.5 122.49 -1.5 122.49 -2 124 C-2.66 124 -3.32 124 -4 124 C-4 124.99 -4 125.98 -4 127 C-4.66 127 -5.32 127 -6 127 C-6 128.32 -6 129.64 -6 131 C-6.76 131.1 -7.53 131.21 -8.31 131.31 C-11.26 132.07 -12.08 132.73 -14 135 C-15 136 -16 137 -17 138 C-16.01 138.33 -15.02 138.66 -14 139 C-14.12 139.94 -14.24 140.89 -14.36 141.86 C-15.19 150.1 -14.84 155.5 -11.73 163.32 C-10.54 167.69 -11.91 170.12 -14 174 C-13.01 174.33 -12.02 174.66 -11 175 C-10.5 178.47 -10.5 178.47 -10 182 C-12.31 182.33 -14.62 182.66 -17 183 C-16.41 183.36 -15.82 183.73 -15.21 184.1 C-10.24 187.26 -6.24 190.04 -3 195 C-2.61 197.32 -2.27 199.66 -2 202 C-0.1 204.58 0.89 204.96 4 206 C4 206.99 4 207.98 4 209 C3.34 209 2.68 209 2 209 C2.22 210.27 2.22 210.27 2.44 211.57 C3.19 216.13 3.84 220.7 4.5 225.27 C4.72 227.9 4.72 227.9 6 229 C6.73 235.38 5.51 240.17 3 246 C1.74 248.8 1.74 248.8 2.56 250.81 C3.2 254.01 2.26 256.04 1 259 C-0.5 260.69 -0.5 260.69 -2 262 C-2.66 262.99 -3.32 263.98 -4 265 C-5.24 265.43 -5.24 265.43 -6.5 265.88 C-7.33 266.25 -8.15 266.62 -9 267 C-9.3 267.78 -9.59 268.57 -9.89 269.38 C-12.17 274.77 -18.42 277.15 -23.38 279.81 C-29.12 281.7 -34.98 282 -41 282 C-40.34 281.01 -39.68 280.02 -39 279 C-39.64 279.37 -40.28 279.74 -40.94 280.12 C-47.37 281.96 -53.53 279.01 -59.27 276.1 C-62.99 273.73 -64.78 270.73 -67 267 C-67.74 266.18 -68.49 265.35 -69.25 264.5 C-71 262 -71 262 -70.75 259.19 C-70.38 258.1 -70.38 258.1 -70 257 C-70.99 256.67 -71.98 256.34 -73 256 C-73.95 253.71 -73.95 253.71 -74.69 250.94 C-74.94 250.02 -75.19 249.1 -75.45 248.15 C-75.63 247.44 -75.81 246.73 -76 246 C-76.99 246 -77.98 246 -79 246 C-78.92 245.2 -78.83 244.41 -78.75 243.59 C-78.22 238.15 -77.89 233.39 -79 228 C-78.67 227.01 -78.34 226.02 -78 225 C-78.11 220.74 -78.73 216.78 -80.12 212.75 C-81.12 209.61 -80.88 208.13 -80 205 C-78.64 199.57 -78.29 193.76 -79.69 188.31 C-80.15 184.9 -78.66 182.93 -77 180 C-76.67 179.01 -76.34 178.02 -76 177 C-76.99 177 -77.98 177 -79 177 C-79.12 176.38 -79.24 175.77 -79.37 175.13 C-80.24 170.73 -81.12 166.33 -82.06 161.94 C-82.22 161.2 -82.37 160.47 -82.54 159.71 C-82.85 157.98 -82.85 157.98 -84 157 C-84.04 155 -84.04 153 -84 151 C-85.32 151.33 -86.64 151.66 -88 152 C-88.99 147.05 -88.99 147.05 -90 142 C-88.68 142 -87.36 142 -86 142 C-85.67 144.64 -85.34 147.28 -85 150 C-84.09 150.08 -83.18 150.16 -82.25 150.25 C-78.42 151.13 -77.52 152.05 -75 155 C-73.85 157.04 -72.76 159.13 -71.75 161.25 C-71.23 162.33 -70.71 163.41 -70.17 164.52 C-69.79 165.34 -69.4 166.16 -69 167 C-73.3 153.29 -73.3 153.29 -83 143 C-83.72 142.65 -84.45 142.3 -85.2 141.94 C-87 141 -87 141 -87.75 138.88 C-87.87 137.95 -87.87 137.95 -88 137 C-88.66 137 -89.32 137 -90 137 C-90.18 136.29 -90.36 135.57 -90.55 134.84 C-92.21 128.43 -92.21 128.43 -94.56 122.25 C-96.06 118.87 -97.03 115.57 -98 112 C-98.26 111.21 -98.52 110.43 -98.79 109.62 C-100.57 104.19 -101.59 99.72 -101 94 C-99.5 91.5 -99.5 91.5 -98 90 C-98.66 90 -99.32 90 -100 90 C-100.12 89.31 -100.24 88.63 -100.37 87.92 C-100.53 87.02 -100.7 86.12 -100.88 85.19 C-101.04 84.29 -101.2 83.4 -101.37 82.48 C-101.91 79.77 -101.91 79.77 -104 77 C-101.03 76.01 -101.03 76.01 -98 75 C-98.09 73.64 -98.09 73.64 -98.19 72.25 C-97.98 68.6 -97.14 67.79 -95 65 C-95.29 63.66 -95.63 62.32 -96 61 C-95.99 58.14 -95.6 55.84 -95 53 C-93 51.62 -93 51.62 -91 51 C-90.67 50.34 -90.34 49.68 -90 49 C-89.34 49 -88.68 49 -88 49 C-87.75 48.38 -87.5 47.76 -87.25 47.12 C-85.79 44.65 -84.62 44.05 -82 43 C-82 41.68 -82 40.36 -82 39 C-81.01 38.5 -81.01 38.5 -80 38 C-79.19 35.51 -78.59 32.99 -77.98 30.45 C-76.8 27.49 -75.76 26.54 -73 25 C-70.75 24.49 -70.75 24.49 -68.44 24.31 C-67.67 24.25 -66.91 24.18 -66.12 24.11 C-64.42 24.02 -62.71 24 -61 24 C-59.17 22.5 -59.17 22.5 -57.44 20.56 C-54.17 17.09 -54.17 17.09 -52 16 C-49.94 15.98 -47.89 15.96 -45.83 15.96 C-38.12 16.04 -38.12 16.04 -31.21 13.12 C-29.17 10.95 -29.17 10.95 -27.61 8.62 C-27.08 8.08 -26.55 7.55 -26 7 C-23.68 7.17 -23.68 7.17 -21 8 C-20.02 8.23 -19.04 8.45 -18.03 8.68 C-17.01 8.93 -15.99 9.18 -14.94 9.44 C-13.92 9.68 -12.89 9.93 -11.84 10.18 C-9 11 -9 11 -6.85 12.15 C-3.75 13.57 -1.12 12 2 11 C3.32 11 4.64 11 6 11 C6 10.34 6 9.68 6 9 C5.22 8.79 4.43 8.59 3.62 8.38 C1 7 1 7 -0.31 3.88 C-0.54 2.93 -0.77 1.98 -1 1 C-0.67 0.67 -0.34 0.34 0 0 Z M13 75 C13.66 75.66 14.32 76.32 15 77 C15 76.34 15 75.68 15 75 C14.34 75 13.68 75 13 75 Z M-28 129 C-28 129.66 -28 130.32 -28 131 C-27.34 130.67 -26.68 130.34 -26 130 C-26.66 129.67 -27.32 129.34 -28 129 Z M-14 129 C-14 129.66 -14 130.32 -14 131 C-13.34 130.67 -12.68 130.34 -12 130 C-12.66 129.67 -13.32 129.34 -14 129 Z M-67 169 C-66 171 -66 171 -66 171 Z M-20 181 C-20.66 181.66 -21.32 182.32 -22 183 C-21.01 183 -20.02 183 -19 183 C-19.33 182.34 -19.66 181.68 -20 181 Z M-5 251 C-4 253 -4 253 -4 253 Z M-56 265 C-55.34 265.66 -54.68 266.32 -54 267 C-53.01 266.67 -52.02 266.34 -51 266 C-52.65 265.67 -54.3 265.34 -56 265 Z M-48 267 C-48 267.66 -48 268.32 -48 269 C-47.01 268.67 -46.02 268.34 -45 268 C-45.99 267.67 -46.98 267.34 -48 267 Z " fill="#F7C82D" transform="translate(1002,210)"/>
<path d="M0 0 C5.66 0.69 10.54 2.22 15.2 5.59 C17.75 9.01 17.44 12.17 17.25 16.25 C17.23 17 17.21 17.74 17.2 18.51 C17.15 20.34 17.08 22.17 17 24 C14.97 25.02 12.93 26.03 10.88 27 C8.83 27.97 8.83 27.97 7 30 C3.88 30.12 3.88 30.12 1 30 C1 30.66 1 31.32 1 32 C0.11 31.81 -0.77 31.63 -1.69 31.44 C-5.3 30.78 -5.3 30.78 -10 32 C-10.33 35.96 -10.66 39.92 -11 44 C-12.32 43.34 -13.64 42.68 -15 42 C-15 44.97 -15 47.94 -15 51 C-14.67 50.67 -14.34 50.34 -14 50 C-13.01 49.01 -13.01 49.01 -12 48 C-12.25 50.38 -12.25 50.38 -13 53 C-13.62 53.29 -14.24 53.58 -14.88 53.88 C-17.41 54.9 -17.41 54.9 -18.06 58.44 C-18.75 60.32 -18.75 60.32 -20 62 C-22.82 63.16 -25.52 63.8 -28.5 64.39 C-31.16 64.81 -31.16 64.81 -33 67 C-35.04 67.23 -37.08 67.45 -39.12 67.65 C-41.55 68.1 -42.32 69.24 -44 71 C-47.44 71.62 -47.44 71.62 -51 72 C-52.34 72.31 -53.68 72.63 -55 73 C-53.02 73.33 -51.04 73.66 -49 74 C-51 76 -51 76 -54.56 76.94 C-55.7 77.29 -56.83 77.64 -58 78 C-58.5 79.49 -58.5 79.49 -59 81 C-59.66 81 -60.32 81 -61 81 C-61 81.66 -61 82.32 -61 83 C-61.99 83 -62.98 83 -64 83 C-64.19 84.36 -64.19 84.36 -64.38 85.75 C-65.15 89.79 -66.1 92.1 -69 95 C-68.67 95.99 -68.34 96.98 -68 98 C-68.99 98 -69.98 98 -71 98 C-70.81 98.97 -70.63 99.94 -70.44 100.94 C-69.67 106.51 -69.51 111.98 -72.94 116.62 C-73.96 117.8 -73.96 117.8 -75 119 C-75.23 120.09 -75.45 121.19 -75.69 122.31 C-77.81 128.28 -82.63 132.16 -88.15 135.17 C-90.06 136 -90.06 136 -93 137 C-93.33 136.67 -93.66 136.34 -94 136 C-94.33 136.66 -94.66 137.32 -95 138 C-96.58 138.08 -98.17 138.14 -99.75 138.19 C-100.63 138.22 -101.51 138.26 -102.42 138.29 C-105.5 137.94 -106.67 136.98 -109 135 C-110.18 134.36 -111.36 133.73 -112.56 133.12 C-115.87 131.27 -117.38 129.5 -119 126 C-119.36 125.24 -119.72 124.49 -120.09 123.71 C-122.18 117.48 -120.8 108.85 -118 103 C-116.25 100.44 -114.44 97.92 -112.62 95.41 C-110.81 92.72 -109.75 90.16 -109 87 C-108.34 87 -107.68 87 -107 87 C-106.73 86.24 -106.46 85.47 -106.19 84.69 C-104.71 81.34 -103.26 79.63 -100 78 C-99.81 76.98 -99.81 76.98 -99.62 75.94 C-98.9 72.52 -97.51 69.91 -95.84 66.87 C-94.79 64.89 -94.79 64.89 -95 62 C-94.69 61.42 -94.38 60.85 -94.06 60.25 C-92.81 57.88 -92.81 57.88 -92.5 54.5 C-92 51 -92 51 -91.01 49.04 C-89.96 46.92 -89.65 45.26 -89.31 42.94 C-87.42 34.04 -81.75 27.01 -74.77 21.43 C-72.84 19.96 -72.84 19.96 -70.94 17.62 C-68.16 15.3 -65.54 15.38 -62 15 C-59.32 13.92 -58.06 13.06 -56 11 C-51.24 11.31 -47.35 11.96 -43 14 C-42.67 13.34 -42.34 12.68 -42 12 C-40.71 12.45 -39.41 12.91 -38.12 13.38 C-37.41 13.63 -36.69 13.89 -35.95 14.15 C-34 15 -34 15 -32 17 C-30.33 16.7 -28.66 16.36 -27 16 C-24 17 -24 17 -22 20 C-21.34 20.33 -20.68 20.66 -20 21 C-18.33 22.67 -16.67 24.33 -15 26 C-14.34 26.33 -13.68 26.66 -13 27 C-13 25.35 -13 23.7 -13 22 C-12.34 22 -11.68 22 -11 22 C-11 20.02 -11 18.04 -11 16 C-9.68 15.67 -8.36 15.34 -7 15 C-7.66 15 -8.32 15 -9 15 C-7.83 11.66 -6.81 9.23 -4 7 C-3.34 7 -2.68 7 -2 7 C-2 5.68 -2 4.36 -2 3 C-1.34 3 -0.68 3 0 3 C0 2.01 0 1.02 0 0 Z M-10 26 C-10.33 27.32 -10.66 28.64 -11 30 C-9.68 29.67 -8.36 29.34 -7 29 C-7.33 28.01 -7.66 27.02 -8 26 C-8.66 26 -9.32 26 -10 26 Z M-93 60 C-93 60.66 -93 61.32 -93 62 C-92.34 62 -91.68 62 -91 62 C-90.67 62.99 -90.34 63.98 -90 65 C-90 63.35 -90 61.7 -90 60 C-90.99 60 -91.98 60 -93 60 Z M-91 70 C-90 72 -90 72 -90 72 Z " fill="#F6C82D" transform="translate(766,608)"/>
<path d="M0 0 C0.64 0.43 1.28 0.87 1.94 1.31 C3.48 2.02 3.48 2.02 5.06 2.75 C7.94 4.31 7.94 4.31 9.94 7.31 C10.35 10.23 10.35 10.23 10.56 13.5 C10.67 15.13 10.67 15.13 10.79 16.79 C10.84 17.62 10.89 18.46 10.94 19.31 C9.52 20.27 8.11 21.23 6.69 22.19 C5.9 22.72 5.11 23.25 4.3 23.8 C0.72 26.09 -1.93 27.48 -6.19 27.75 C-7.47 27.94 -8.75 28.12 -10.06 28.31 C-11.05 29.8 -11.05 29.8 -12.06 31.31 C-13.38 31.31 -14.7 31.31 -16.06 31.31 C-15.94 33.68 -15.94 33.68 -15.06 36.31 C-14.22 36.85 -13.37 37.38 -12.5 37.94 C-10.06 40.31 -10.06 40.31 -9.88 42.8 C-9.96 44.75 -10.05 46.69 -10.16 48.64 C-10.03 52.35 -8.1 54.29 -6.06 57.31 C-6.05 59.67 -6.38 61.83 -6.79 64.15 C-7.22 66.49 -7.22 66.49 -6.25 69.44 C-6.06 72.31 -6.06 72.31 -7.26 73.99 C-8.35 75.18 -9.46 76.36 -10.59 77.53 C-12.35 79.4 -12.35 79.4 -12.94 82.81 C-14.36 87.25 -16.6 88.91 -20.19 91.73 C-22.3 93.36 -22.3 93.36 -24.06 96.31 C-34.08 103 -46.23 104.46 -58.06 104.31 C-59.55 103.82 -59.55 103.82 -61.06 103.31 C-61.39 102.65 -61.72 101.99 -62.06 101.31 C-63.38 101.31 -64.7 101.31 -66.06 101.31 C-64.58 102.3 -64.58 102.3 -63.06 103.31 C-63.06 103.97 -63.06 104.63 -63.06 105.31 C-64.01 105.39 -64.96 105.48 -65.94 105.56 C-70.97 106.28 -75.42 108.32 -80.06 110.31 C-80.74 110.58 -81.42 110.86 -82.12 111.14 C-84.57 112.13 -86.75 113.06 -88.82 114.75 C-92.73 117.48 -97.34 118.56 -101.85 120.03 C-105 121.02 -105 121.02 -106.5 122.88 C-108.54 124.75 -109.57 124.65 -112.3 124.53 C-113.99 124.45 -115.68 124.36 -117.38 124.25 C-118.22 124.22 -119.06 124.19 -119.93 124.17 C-125.5 123.86 -128.76 122.92 -133.06 119.31 C-134.25 117.25 -134.25 117.25 -135.06 115.31 C-135.58 114.82 -136.09 114.32 -136.62 113.81 C-139.41 110.9 -139.22 107.11 -139.25 103.25 C-139.26 102.39 -139.28 101.54 -139.29 100.65 C-139.06 98.31 -139.06 98.31 -137.06 95.31 C-138.05 94.98 -139.04 94.65 -140.06 94.31 C-138.73 92.98 -137.4 91.65 -136.06 90.31 C-135.45 89.68 -134.83 89.05 -134.19 88.4 C-126.22 80.59 -119.56 77.55 -108.5 76.59 C-104.17 76.1 -100.22 75.47 -97.06 72.31 C-97.06 72.97 -97.06 73.63 -97.06 74.31 C-94.75 74.97 -92.44 75.63 -90.06 76.31 C-90.06 75.32 -90.06 74.33 -90.06 73.31 C-87.11 71.83 -84.32 72.25 -81.06 72.31 C-80.73 71.65 -80.4 70.99 -80.06 70.31 C-78.74 70.31 -77.42 70.31 -76.06 70.31 C-75.96 69.69 -75.86 69.08 -75.75 68.44 C-75.06 66.31 -75.06 66.31 -72.06 64.31 C-71.57 62.83 -71.57 62.83 -71.06 61.31 C-70.4 61.31 -69.74 61.31 -69.06 61.31 C-68.4 59.99 -67.74 58.67 -67.06 57.31 C-66.4 57.31 -65.74 57.31 -65.06 57.31 C-64.4 55.99 -63.74 54.67 -63.06 53.31 C-62.4 53.31 -61.74 53.31 -61.06 53.31 C-61.06 50.67 -61.06 48.03 -61.06 45.31 C-60.4 44.98 -59.74 44.65 -59.06 44.31 C-56.89 40.72 -54.88 37.09 -53.06 33.31 C-52.57 32.32 -52.57 32.32 -52.06 31.31 C-45.84 29.31 -39.54 29.1 -33.06 29.31 C-33.06 27.99 -33.06 26.67 -33.06 25.31 C-29.1 25.31 -25.14 25.31 -21.06 25.31 C-20.88 23.12 -20.88 23.12 -20.69 20.88 C-20.48 18.38 -20.48 18.38 -20.06 16.31 C-19.07 15.82 -19.07 15.82 -18.06 15.31 C-18.14 14.61 -18.23 13.91 -18.31 13.19 C-17.97 9.27 -16.51 7.35 -14.06 4.31 C-10.25 1.43 -4.8 -1.6 0 0 Z M-20.06 21.31 C-20.06 21.97 -20.06 22.63 -20.06 23.31 C-19.4 22.98 -18.74 22.65 -18.06 22.31 C-18.72 21.98 -19.38 21.65 -20.06 21.31 Z M-19.06 24.31 C-19.06 25.63 -19.06 26.95 -19.06 28.31 C-17.41 28.31 -15.76 28.31 -14.06 28.31 C-14.72 26.99 -15.38 25.67 -16.06 24.31 C-17.05 24.31 -18.04 24.31 -19.06 24.31 Z M-67.06 58.31 C-66.73 58.97 -66.4 59.63 -66.06 60.31 C-65.73 59.65 -65.4 58.99 -65.06 58.31 C-65.72 58.31 -66.38 58.31 -67.06 58.31 Z M-68.06 60.31 C-67.73 61.3 -67.4 62.29 -67.06 63.31 C-67.06 62.32 -67.06 61.33 -67.06 60.31 C-67.39 60.31 -67.72 60.31 -68.06 60.31 Z M-98.06 76.31 C-97.07 77.8 -97.07 77.8 -96.06 79.31 C-95.4 78.98 -94.74 78.65 -94.06 78.31 C-94.39 77.65 -94.72 76.99 -95.06 76.31 C-96.05 76.31 -97.04 76.31 -98.06 76.31 Z " fill="#F7C82D" transform="translate(864.0625,608.6875)"/>
<path d="M0 0 C2.07 1.04 2.07 1.04 5.39 3.17 C6.71 3.85 8.04 4.52 9.39 5.17 C9.39 6.16 9.39 7.15 9.39 8.17 C10.48 8.23 11.57 8.29 12.7 8.36 C16.39 9.17 16.39 9.17 18.26 11.48 C19.2 13.73 19.94 15.78 20.39 18.17 C21.38 18.17 22.37 18.17 23.39 18.17 C23.06 16.52 22.73 14.87 22.39 13.17 C23.38 13.66 23.38 13.66 24.39 14.17 C25.07 13.21 25.07 13.21 25.76 12.23 C27.39 10.17 27.39 10.17 29.39 9.17 C29.72 8.51 30.05 7.85 30.39 7.17 C32.05 6.5 33.72 5.83 35.39 5.17 C35.72 4.51 36.05 3.85 36.39 3.17 C38.76 2.2 40.04 2.08 42.53 2.74 C44.96 4.03 46.59 5.06 48.39 7.17 C49.21 11.26 49.1 15.06 48.39 19.17 C45.56 23.4 42.2 23.99 37.39 25.17 C32.15 25.55 32.15 25.55 29.39 24.17 C26.3 24.61 26.3 24.61 23.39 26.17 C22.16 29.18 22.16 29.18 21.39 32.17 C19.9 32.66 19.9 32.66 18.39 33.17 C17.37 35.16 16.37 37.16 15.39 39.17 C13.89 41.48 13.89 41.48 11.39 43.17 C8.5 43.63 5.67 43.86 2.75 43.99 C0.43 43.91 0.43 43.91 -0.61 45.17 C-1.58 45.13 -2.55 45.09 -3.55 45.04 C-7.78 44.95 -11.33 46.21 -15.28 47.61 C-17.82 48.22 -19.18 48.01 -21.61 47.17 C-21.94 48.16 -22.27 49.15 -22.61 50.17 C-23.4 50.42 -24.18 50.66 -24.99 50.92 C-28.79 52.73 -29.14 55.35 -30.61 59.17 C-32.11 61.11 -32.11 61.11 -33.61 62.17 C-34.6 62.17 -35.59 62.17 -36.61 62.17 C-35.62 62.66 -35.62 62.66 -34.61 63.17 C-34.88 63.68 -35.15 64.2 -35.43 64.73 C-36.72 67.3 -36.72 67.3 -37.93 70.61 C-39.7 74.36 -41.55 76.41 -44.61 79.17 C-45.07 79.68 -45.52 80.2 -45.99 80.73 C-50.39 84.62 -54.8 86.6 -60.61 87.17 C-60.61 86.18 -60.61 85.19 -60.61 84.17 C-61.27 84.17 -61.93 84.17 -62.61 84.17 C-62.61 84.83 -62.61 85.49 -62.61 86.17 C-69.21 84.7 -72.58 82.83 -76.61 77.17 C-78.66 72.7 -78.82 69.9 -77.61 65.17 C-77.43 64.42 -77.24 63.67 -77.05 62.89 C-75.27 56.63 -75.27 56.63 -72.36 54.61 C-71.46 54.13 -70.55 53.66 -69.61 53.17 C-68.43 51.91 -67.29 50.61 -66.18 49.29 C-58.6 40.38 -58.6 40.38 -53.74 39.86 C-53.04 39.96 -52.34 40.06 -51.61 40.17 C-51.83 39.12 -51.83 39.12 -52.05 38.04 C-51.37 33.56 -48.12 31.77 -44.61 29.17 C-45.11 28.18 -45.11 28.18 -45.61 27.17 C-44.66 25.43 -43.7 23.69 -42.67 21.99 C-41.4 19.8 -40.48 17.55 -39.61 15.17 C-38.62 15.17 -37.63 15.17 -36.61 15.17 C-36.52 14.02 -36.52 14.02 -36.43 12.86 C-35.35 9.3 -33.8 8.88 -30.61 7.17 C-29.95 6.18 -29.29 5.19 -28.61 4.17 C-26.97 3.44 -25.3 2.78 -23.61 2.17 C-22.27 1.41 -22.27 1.41 -20.9 0.63 C-14.63 -2.16 -6.54 -2.08 0 0 Z M24.39 17.17 C24.06 18.16 23.73 19.15 23.39 20.17 C24.38 20.17 25.37 20.17 26.39 20.17 C26.39 19.18 26.39 18.19 26.39 17.17 C25.73 17.17 25.07 17.17 24.39 17.17 Z M16.39 29.17 C17.39 33.17 17.39 33.17 17.39 33.17 Z " fill="#F6C82D" transform="translate(389.61328125,794.83203125)"/>
<path d="M0 0 C3.81 0.22 6.93 1.56 9.84 4.06 C12.44 8.41 11.39 14.12 11 19 C3.14 21.46 -4.83 21.62 -13 22 C-12.39 24.96 -11.75 26.38 -10 29 C-9.81 32.12 -9.81 32.12 -10 35 C-10.33 35.33 -10.66 35.66 -11 36 C-11.21 37.83 -11.37 39.66 -11.5 41.5 C-11.89 46.89 -11.89 46.89 -13 48 C-13.08 49.28 -13.17 50.56 -13.25 51.88 C-13.49 54.07 -13.49 54.07 -14 56 C-16.38 57.69 -16.38 57.69 -19 59 C-19.5 59.83 -19.99 60.65 -20.5 61.5 C-22.3 64.5 -23.85 65.54 -27 67 C-28.32 67 -29.64 67 -31 67 C-31 67.99 -31 68.98 -31 70 C-32.13 69.98 -33.27 69.96 -34.44 69.94 C-37.82 69.58 -37.82 69.58 -39 71 C-40.83 71.1 -42.67 71.13 -44.5 71.12 C-45.5 71.13 -46.5 71.13 -47.53 71.13 C-50 71 -50 71 -51 70 C-53.78 69.97 -56.55 70.07 -59.34 70.16 C-62 70 -62 70 -65 68 C-69.25 67.69 -72.36 67.67 -76 70 C-76.33 69.67 -76.66 69.34 -77 69 C-78.84 69.3 -78.84 69.3 -81 69.88 C-84.95 70.81 -88.78 71.34 -92.82 71.7 C-95.01 72 -96.86 72.6 -98.94 73.31 C-104.21 74.71 -108.41 72.55 -113 70 C-116.85 67.46 -119.43 65.19 -121.44 61 C-122.42 55.78 -122.46 51.79 -120 47 C-118.56 45.38 -118.56 45.38 -117 44 C-116.58 43.53 -116.15 43.07 -115.71 42.59 C-113.64 40.67 -111.52 39.53 -109 38.25 C-107.7 37.58 -107.7 37.58 -106.38 36.89 C-104 36 -104 36 -101 37 C-98.48 37.07 -95.99 37 -93.47 36.94 C-91.12 37 -89.26 37.38 -87 38 C-83.34 38.57 -79.71 39 -76 39 C-73.33 39 -70.67 39 -68 39 C-67.5 38.01 -67.5 38.01 -67 37 C-66.01 37 -65.02 37 -64 37 C-63.36 36.34 -62.72 35.68 -62.06 35 C-60 33 -60 33 -56 33 C-55.73 32.36 -55.46 31.72 -55.19 31.06 C-54 29 -54 29 -51 28 C-51 27.34 -51 26.68 -51 26 C-49 24 -49 24 -47 23 C-46.5 21.51 -46.5 21.51 -46 20 C-41.68 15.23 -41.68 15.23 -38 14 C-36.33 13.96 -34.67 13.95 -33 14 C-32.67 13.34 -32.34 12.68 -32 12 C-30.68 12.66 -29.36 13.32 -28 14 C-28.33 14.66 -28.66 15.32 -29 16 C-28.4 15.92 -27.79 15.83 -27.17 15.75 C-26.37 15.64 -25.57 15.54 -24.75 15.44 C-23.96 15.33 -23.17 15.23 -22.36 15.12 C-20 15 -20 15 -17.89 15.54 C-15.8 16.23 -15.8 16.23 -13 15 C-13 13.35 -13 11.7 -13 10 C-12.01 9.67 -11.02 9.34 -10 9 C-10 7.35 -10 5.7 -10 4 C-9.36 3.8 -8.72 3.59 -8.07 3.38 C-7.24 3.11 -6.41 2.84 -5.56 2.56 C-4.74 2.3 -3.92 2.03 -3.07 1.75 C-1.04 1.18 -1.04 1.18 0 0 Z M-84 40 C-83.34 40.66 -82.68 41.32 -82 42 C-82 41.34 -82 40.68 -82 40 C-82.66 40 -83.32 40 -84 40 Z M-62 67 C-61.67 67.66 -61.34 68.32 -61 69 C-60.67 68.34 -60.34 67.68 -60 67 C-60.66 67 -61.32 67 -62 67 Z " fill="#F7C82D" transform="translate(496,815)"/>
<path d="M0 0 C2.59 0.58 4.56 1.24 6.81 2.62 C6.86 4.29 6.85 5.96 6.81 7.62 C5.28 9.16 3.69 8.93 1.56 9.12 C-1.74 9.46 -4.94 9.89 -8.19 10.62 C-7.69 13.1 -7.69 13.1 -7.19 15.62 C-6.2 15.96 -5.21 16.28 -4.19 16.62 C-3.12 18.37 -3.12 18.37 -2.19 20.5 C-1.16 22.81 -0.42 24.4 1.42 26.16 C2.81 27.62 2.81 27.62 3.06 31.19 C2.81 34.62 2.81 34.62 1.81 36.62 C2.8 35.63 2.8 35.63 3.81 34.62 C7.19 33.03 8.98 32.62 12.81 32.62 C12.81 31.97 12.81 31.3 12.81 30.62 C14.79 30.62 16.77 30.62 18.81 30.62 C18.81 29.97 18.81 29.3 18.81 28.62 C12.75 27.54 12.75 27.54 6.81 28.62 C5.82 26.98 4.83 25.33 3.81 23.62 C14.26 15.94 14.26 15.94 21.81 16.62 C23.75 17.75 23.75 17.75 24.81 19.62 C25 22.81 25 22.81 24.81 25.62 C23.16 26.28 21.51 26.95 19.81 27.62 C19.81 28.62 19.81 29.61 19.81 30.62 C20.8 30.29 21.79 29.97 22.81 29.62 C25.88 32 27.12 33.85 27.69 37.62 C27.93 40.84 27.92 43.02 25.81 45.62 C22.35 48.19 19 48.04 14.81 47.62 C8.89 45.71 4.36 42.82 -0.19 38.62 C-0.19 39.28 -0.19 39.95 -0.19 40.62 C-0.85 40.62 -1.51 40.62 -2.19 40.62 C-2.68 41.62 -2.68 41.62 -3.19 42.62 C-2.86 42.96 -2.53 43.28 -2.19 43.62 C-2.19 44.62 -2.19 45.61 -2.19 46.62 C-4.19 46.62 -4.19 46.62 -5.81 45.12 C-6.27 44.63 -6.72 44.13 -7.19 43.62 C-6.69 46.6 -6.69 46.6 -6.19 49.62 C-15.24 52.07 -15.24 52.07 -18.88 50.38 C-19.64 49.8 -20.4 49.22 -21.19 48.62 C-23.51 47.92 -25.84 47.24 -28.19 46.62 C-28.85 46.29 -29.51 45.97 -30.19 45.62 C-31.81 45.42 -33.43 45.26 -35.06 45.12 C-37.58 44.91 -39.89 44.71 -42.32 44.03 C-44.4 43.41 -44.4 43.41 -47.19 44.62 C-49.19 44.66 -51.19 44.67 -53.19 44.62 C-53.19 45.28 -53.19 45.95 -53.19 46.62 C-55.17 47.12 -55.17 47.12 -57.19 47.62 C-57.19 48.62 -57.19 49.61 -57.19 50.62 C-58.18 50.85 -59.17 51.08 -60.19 51.31 C-64.07 52.4 -67.14 54.29 -70.49 56.5 C-75.99 60.13 -82.89 59.5 -89.19 58.62 C-93 56.65 -95.23 54.44 -97.19 50.62 C-97.78 47.17 -97.7 44.08 -97.19 40.62 C-97.85 40.29 -98.51 39.97 -99.19 39.62 C-98.53 39.62 -97.87 39.62 -97.19 39.62 C-97.19 38.3 -97.19 36.99 -97.19 35.62 C-92.41 30.46 -86.74 28.8 -80.19 26.62 C-78.73 26.05 -77.27 25.46 -75.81 24.88 C-72.61 23.77 -70.52 23.31 -67.19 23.62 C-66.86 22.97 -66.53 22.3 -66.19 21.62 C-64.86 21.26 -63.53 20.93 -62.19 20.62 C-56.77 18.29 -52.23 15.98 -48.19 11.62 C-46.86 11.27 -45.53 10.94 -44.19 10.62 C-43.53 9.63 -42.87 8.64 -42.19 7.62 C-35.08 5.41 -27.6 4.73 -20.19 5.62 C-18.51 6.61 -16.85 7.61 -15.19 8.62 C-12.62 9.21 -12.62 9.21 -10.19 8.62 C-8.29 6.89 -8.29 6.89 -6.75 4.62 C-3.56 0.7 -3.56 0.7 0 0 Z M6.81 24.62 C7.47 25.28 8.13 25.95 8.81 26.62 C8.81 25.97 8.81 25.3 8.81 24.62 C8.15 24.62 7.49 24.62 6.81 24.62 Z M7.81 41.62 C7.48 42.28 7.15 42.95 6.81 43.62 C7.47 43.62 8.13 43.62 8.81 43.62 C8.48 42.97 8.15 42.3 7.81 41.62 Z " fill="#F6C72D" transform="translate(100.1875,804.375)"/>
<path d="M0 0 C0.5 1.49 0.5 1.49 1 3 C2.32 3.7 3.65 4.37 5 5 C5.5 5.99 5.5 5.99 6 7 C6.66 6.67 7.32 6.34 8 6 C8.66 6.66 9.32 7.32 10 8 C15.57 11.15 20.08 11.25 26.43 11.01 C29 11 29 11 31 12 C31 11.34 31 10.68 31 10 C31.66 9.92 32.32 9.84 33 9.75 C35.68 9.08 37.48 8.29 39.88 7 C43.59 5.08 46.76 4.16 51 4 C53.75 4.94 53.75 4.94 56 6 C56.99 6 57.98 6 59 6 C59.25 6.64 59.5 7.28 59.75 7.94 C60.77 10.15 60.77 10.15 62.75 10.5 C63.49 10.66 64.24 10.83 65 11 C67.03 12.29 69.04 13.62 71 15 C71.33 13.68 71.66 12.36 72 11 C73.65 11 75.3 11 77 11 C77 10.34 77 9.68 77 9 C80.79 7.16 82.97 6.69 87 8 C89.69 9 89.69 9 92 11 C93.35 13.98 93.99 16.73 94 20 C92.98 22.52 91.81 23.92 90 26 C88.51 25.5 88.51 25.5 87 25 C85.23 24.87 83.46 24.77 81.69 24.69 C76.53 24.27 74 23.2 70 20 C68.51 19.5 68.51 19.5 67 19 C67.99 23.46 67.99 23.46 69 28 C70.32 27.67 71.64 27.34 73 27 C75.14 26.83 77.29 26.73 79.44 26.69 C80.55 26.65 81.66 26.61 82.81 26.57 C86.68 27.09 88.3 28.22 91 31 C91.38 34.19 91.38 34.19 91 37 C89.04 38.96 86 38.86 83.35 39.13 C79.49 38.91 77.64 36.64 75 34 C71.45 31.55 70.44 31 66 31 C64.06 33.01 63.12 34.46 62.5 37.19 C62.33 37.79 62.17 38.38 62 39 C60.51 39.5 60.51 39.5 59 40 C57.28 43.5 57.28 43.5 56 47 C55.44 46.77 54.89 46.55 54.31 46.31 C51.9 45.74 51.9 45.74 49.81 47.38 C46.47 49.31 43.88 49.52 40.09 49.79 C37.81 49.94 37.81 49.94 35 51 C33.32 50.02 31.66 49.02 30 48 C28.95 47.75 27.9 47.5 26.81 47.25 C22.4 46.11 19.17 43.45 15.53 40.81 C8.85 36.04 2.75 33.39 -5.3 31.68 C-7.81 31.05 -9.73 30.2 -12 29 C-14.33 28.32 -16.66 27.66 -19 27 C-23.76 25.61 -26.95 22.86 -30 19 C-30 18.34 -30 17.68 -30 17 C-30.66 17 -31.32 17 -32 17 C-33.1 11.18 -33.36 8.15 -30 3 C-26.03 -2.63 -26.03 -2.63 -23.2 -3.65 C-15.15 -4.94 -6.87 -4.88 0 0 Z M70 16 C71 18 71 18 71 18 Z " fill="#F6C72D" transform="translate(82,867)"/>
<path d="M0 0 C8.19 0.12 14.46 3.78 20.38 9.25 C24.39 14.06 25.1 19.12 25.38 25.25 C26.37 25.58 27.36 25.91 28.38 26.25 C28.38 27.24 28.38 28.23 28.38 29.25 C27.74 29.66 27.1 30.07 26.44 30.5 C23.47 33.02 23.85 35.49 23.38 39.25 C21.94 40.88 21.94 40.88 20.38 42.25 C19.69 43.91 19.02 45.57 18.38 47.25 C15.73 49.9 12.81 50.85 9.38 52.25 C10.37 52.91 11.36 53.57 12.38 54.25 C12.38 54.91 12.38 55.57 12.38 56.25 C6.72 60.06 2.15 60.98 -4.62 61.25 C-4.96 60.26 -5.28 59.27 -5.62 58.25 C-6.39 58.11 -7.15 57.96 -7.94 57.81 C-12.85 56.78 -14.55 55.47 -17.42 51.3 C-19.31 48.09 -20.45 44.78 -21.62 41.25 C-19.98 41.58 -18.33 41.91 -16.62 42.25 C-18.49 38.62 -18.49 38.62 -21.62 36.25 C-22.8 31.25 -22.59 27.98 -20.62 23.25 C-19.63 23.25 -18.64 23.25 -17.62 23.25 C-17.98 22.59 -18.33 21.93 -18.69 21.25 C-19.93 17.28 -19.35 14.27 -18.62 10.25 C-18.5 9.3 -18.38 8.35 -18.25 7.38 C-17.62 5.25 -17.62 5.25 -14.62 3.25 C-13.1 2.84 -11.55 2.49 -10 2.19 C-6.2 1.44 -3.92 0.07 0 0 Z M22.38 26.25 C22.38 27.24 22.38 28.23 22.38 29.25 C23.04 28.92 23.69 28.59 24.38 28.25 C24.38 27.59 24.38 26.93 24.38 26.25 C23.71 26.25 23.06 26.25 22.38 26.25 Z M8.38 41.25 C8.7 42.24 9.04 43.23 9.38 44.25 C9.7 43.26 10.04 42.27 10.38 41.25 C9.71 41.25 9.06 41.25 8.38 41.25 Z " fill="#F6C72D" transform="translate(1020.625,156.75)"/>
<path d="M0 0 C0.69 0.05 1.38 0.09 2.1 0.14 C9.41 1.12 14.19 5.62 19 11 C19 11.66 19 12.32 19 13 C19.99 13.33 20.98 13.66 22 14 C24.3 17.45 24.43 18.95 24 23 C23.01 23.66 22.02 24.32 21 25 C20.67 25.83 20.34 26.65 20 27.5 C19 30 19 30 16 32 C16.21 33.24 16.41 34.47 16.62 35.75 C17.2 39.18 16.99 41.1 15 44 C13.09 45.2 13.09 45.2 10.94 46.12 C7.82 47.35 7.82 47.35 6 50 C6.99 50 7.98 50 9 50 C9 50.99 9 51.98 9 53 C3.03 56.56 -0.89 58.14 -7.94 58.19 C-8.96 58.2 -9.98 58.22 -11.03 58.23 C-14.07 57.99 -16.25 57.28 -19 56 C-19 55.34 -19 54.68 -19 54 C-20.18 53.72 -20.18 53.72 -21.38 53.44 C-24 52 -24 52 -25.31 48.38 C-25.54 47.26 -25.77 46.15 -26 45 C-24.35 45 -22.7 45 -21 45 C-21.63 44.38 -21.63 44.38 -22.28 43.75 C-25.65 40.2 -27.81 37.43 -28.12 32.32 C-27.91 28.34 -27.22 24.46 -26.47 20.54 C-25.87 17.32 -25.94 16.17 -27 13 C-26.34 12.67 -25.68 12.34 -25 12 C-22.88 12.94 -22.88 12.94 -21 14 C-20.67 12.68 -20.34 11.36 -20 10 C-20.66 9.67 -21.32 9.34 -22 9 C-16.13 3.8 -16.13 3.8 -12 3 C-11.24 2.48 -10.47 1.97 -9.69 1.44 C-6.16 -0.45 -3.98 -0.33 0 0 Z M-19 35 C-19 35.66 -19 36.32 -19 37 C-18.01 36.67 -17.02 36.34 -16 36 C-16.99 35.67 -17.98 35.34 -19 35 Z M-17 50 C-17 50.66 -17 51.32 -17 52 C-16.01 51.67 -15.02 51.34 -14 51 C-14.99 50.67 -15.98 50.34 -17 50 Z M-16 54 C-16.33 54.66 -16.66 55.32 -17 56 C-16.34 56 -15.68 56 -15 56 C-15.33 55.34 -15.66 54.68 -16 54 Z " fill="#F5C72D" transform="translate(1165,61)"/>
<path d="M0 0 C3.21 1.75 5.01 3.08 7.06 6.14 C7.97 10.82 9.01 16.69 7.06 21.14 C4.5 22.46 4.5 22.46 2.06 23.14 C2.39 25.12 2.72 27.1 3.06 29.14 C-0.28 31.49 -2.96 33.26 -6.94 34.14 C-7.27 34.8 -7.6 35.46 -7.94 36.14 C-6.46 36.64 -6.46 36.64 -4.94 37.14 C-6.43 37.64 -6.43 37.64 -7.94 38.14 C-7.94 38.8 -7.94 39.46 -7.94 40.14 C-15.2 42.58 -15.2 42.58 -18.99 41.63 C-22.57 39.82 -23.87 38.27 -25.88 34.71 C-26.81 31.58 -27.23 29.36 -26.94 26.14 C-25.61 25.48 -24.27 24.81 -22.94 24.14 C-23.33 23.11 -23.73 22.08 -24.13 21.02 C-25.1 16.37 -24.35 15.11 -21.94 11.14 C-21.71 10.34 -21.49 9.54 -21.25 8.71 C-16.98 0.36 -8.9 -3.92 0 0 Z M3.06 8.14 C4.06 11.14 4.06 11.14 4.06 11.14 Z M0.06 15.14 C0.39 16.13 0.72 17.12 1.06 18.14 C1.39 17.15 1.72 16.16 2.06 15.14 C1.4 15.14 0.74 15.14 0.06 15.14 Z " fill="#F5C72D" transform="translate(1213.94140625,80.85546875)"/>
<path d="M0 0 C4.16 2.49 6.27 4.3 8.06 8.88 C9.55 16.44 9.31 21.71 5.79 28.64 C4.53 31.27 3.97 33.84 3.44 36.69 C2.66 39.18 1.55 40.75 -0.19 42.69 C-3.94 43.94 -7.32 44.6 -11.19 43.69 C-13.72 41.7 -15.61 39.49 -17.19 36.69 C-17.19 35.7 -17.19 34.71 -17.19 33.69 C-16.53 33.69 -15.87 33.69 -15.19 33.69 C-15.85 32.71 -15.85 32.71 -16.54 31.71 C-21.22 24.48 -21.22 24.48 -21.06 20.19 C-20.63 18.95 -20.63 18.95 -20.19 17.69 C-20.08 15.61 -20.08 15.61 -20.94 13.44 C-21.3 9.46 -19.54 7.82 -17.19 4.69 C-16.69 3.78 -16.2 2.87 -15.69 1.94 C-11.68 -4.08 -6.03 -2.48 0 0 Z M-12.19 4.69 C-12.52 5.35 -12.85 6.01 -13.19 6.69 C-12.2 6.69 -11.21 6.69 -10.19 6.69 C-10.19 6.03 -10.19 5.37 -10.19 4.69 C-10.85 4.69 -11.51 4.69 -12.19 4.69 Z M1.81 27.69 C1.81 28.68 1.81 29.67 1.81 30.69 C2.47 30.36 3.13 30.03 3.81 29.69 C3.81 29.03 3.81 28.37 3.81 27.69 C3.15 27.69 2.49 27.69 1.81 27.69 Z " fill="#F6C72D" transform="translate(985.1875,153.3125)"/>
<path d="M0 0 C3.9 2.88 5.7 6.25 6.51 10.99 C6.68 15.65 6.65 19.72 4.12 23.75 C3.42 24.49 2.72 25.24 2 26 C1.34 26 0.68 26 0 26 C0 26.66 0 27.32 0 28 C-3.3 28.66 -6.6 29.32 -10 30 C-10.33 31.32 -10.66 32.64 -11 34 C-13.56 34.5 -13.56 34.5 -17 34 C-20.54 31.1 -23.69 28.06 -24.38 23.42 C-23.92 20.5 -23.11 19.97 -21 18 C-19.96 15.43 -19.11 12.82 -18.26 10.18 C-17 8 -17 8 -14.37 7.2 C-13.2 7.1 -13.2 7.1 -12 7 C-12 5.35 -12 3.7 -12 2 C-8.32 -0.45 -4.25 -1.15 0 0 Z " fill="#F6C72D" transform="translate(1236,107)"/>
<path d="M0 0 C2.5 2.88 2.5 2.88 4 6 C3.69 8.31 3.69 8.31 3 10 C3.33 10.33 3.66 10.66 4 11 C4.33 14.07 4.32 17.16 4.38 20.25 C4.41 21.11 4.45 21.97 4.49 22.86 C4.55 27.34 4.46 29.37 1.74 33.08 C-2.31 35.92 -4.17 35.55 -9 35 C-9.66 34.34 -10.32 33.68 -11 33 C-11 31.68 -11 30.36 -11 29 C-11.99 28.67 -12.98 28.34 -14 28 C-14 27.34 -14 26.68 -14 26 C-14.66 26 -15.32 26 -16 26 C-20.2 20.48 -19.73 14.63 -19 8 C-16.92 3.07 -13.88 0.69 -9.09 -1.43 C-5.46 -2.42 -3.3 -1.65 0 0 Z " fill="#F6C72D" transform="translate(953,166)"/>
<path d="M0 0 C8.63 2.4 8.63 2.4 10 4.62 C12.48 10.52 13.53 15.67 13 22 C11.56 23.56 11.56 23.56 10 25 C9.59 27.32 9.25 29.66 9 32 C8.67 32.99 8.34 33.98 8 35 C9.49 35.5 9.49 35.5 11 36 C9.51 39.8 7.34 41.72 4 44 C3.01 44 2.02 44 1 44 C0.77 42.93 0.55 41.85 0.31 40.75 C-1.17 36.53 -2.6 35.68 -6 33 C-6.05 31.33 -6.04 29.67 -6 28 C-6.68 26.79 -7.39 25.61 -8.12 24.44 C-11.11 19 -9.42 13.75 -8 8 C-7.34 8 -6.68 8 -6 8 C-5.67 7.01 -5.34 6.02 -5 5 C-4.34 4.01 -3.68 3.02 -3 2 C-2.01 2 -1.02 2 0 2 C0 1.34 0 0.68 0 0 Z M9 20 C9.33 20.99 9.66 21.98 10 23 C10.66 22.67 11.32 22.34 12 22 C12 21.34 12 20.68 12 20 C11.01 20 10.02 20 9 20 Z M5 36 C4.34 36.66 3.68 37.32 3 38 C3.99 38 4.98 38 6 38 C5.67 37.34 5.34 36.68 5 36 Z " fill="#F1C32C" transform="translate(921,188)"/>
<path d="M0 0 C2.95 2.07 4.05 4.58 5 8 C5.88 14.64 4.98 19.45 1.44 25.15 C-0.41 27.53 -2.21 28.87 -5 30 C-5.66 30 -6.32 30 -7 30 C-7 31.32 -7 32.64 -7 34 C-8.46 34.19 -9.92 34.38 -11.38 34.56 C-12.59 34.72 -12.59 34.72 -13.84 34.88 C-16 35 -16 35 -18 34 C-17.67 33.34 -17.34 32.68 -17 32 C-17.66 32 -18.32 32 -19 32 C-19.83 28.02 -20.23 24.92 -19 21 C-18.34 20.67 -17.68 20.34 -17 20 C-17.29 19.03 -17.58 18.06 -17.88 17.06 C-18.53 12.44 -16.48 9.65 -13.82 6.02 C-10.18 1.97 -5.67 -1.1 0 0 Z " fill="#F7C82D" transform="translate(1244,139)"/>
<path d="M0 0 C2.46 2.13 3.75 3.8 4.42 7.02 C4.8 13.09 2.95 18.34 -1 23 C-3.17 23.75 -3.17 23.75 -5 24 C-5.12 24.93 -5.12 24.93 -5.25 25.88 C-6 28 -6 28 -7.81 29.31 C-10.37 30.12 -11.49 29.81 -14 29 C-14.99 29 -15.98 29 -17 29 C-17 29.99 -17 30.98 -17 32 C-17.99 32 -18.98 32 -20 32 C-24 27.77 -24 27.77 -24 24 C-20.12 23 -20.12 23 -19 23 C-19.06 21.89 -19.12 20.77 -19.19 19.62 C-19.13 18.43 -19.06 17.23 -19 16 C-18.01 15.34 -17.02 14.68 -16 14 C-15.26 10.43 -15.26 10.43 -15 7 C-14.01 6.67 -13.02 6.34 -12 6 C-11.71 5.2 -11.42 4.39 -11.12 3.56 C-10 1 -10 1 -7.69 -0.38 C-4.57 -1.1 -3 -1.15 0 0 Z " fill="#F6C72D" transform="translate(1247,178)"/>
<path d="M0 0 C1.94 0.43 1.94 0.43 4.44 2.74 C6.44 7.65 6.65 12.18 5.94 17.43 C5.28 18.42 4.62 19.41 3.94 20.43 C4.93 21.09 5.92 21.75 6.94 22.43 C5.95 24.74 4.96 27.05 3.94 29.43 C4.6 29.43 5.26 29.43 5.94 29.43 C5.94 31.08 5.94 32.73 5.94 34.43 C3.23 35.78 0.93 35.49 -2.06 35.43 C-2.55 33.94 -2.55 33.94 -3.06 32.43 C-4.05 32.1 -5.04 31.77 -6.06 31.43 C-7.46 29.47 -8.8 27.47 -10.06 25.43 C-9.4 25.43 -8.74 25.43 -8.06 25.43 C-8.72 24.64 -9.38 23.86 -10.06 23.05 C-12.91 18.75 -12.72 14.41 -12.06 9.43 C-10.24 2.72 -7.28 -0.25 0 0 Z M1.94 23.43 C1.94 24.42 1.94 25.41 1.94 26.43 C2.6 26.1 3.26 25.77 3.94 25.43 C3.28 24.77 2.62 24.11 1.94 23.43 Z " fill="#F4C62D" transform="translate(905.05859375,220.57421875)"/>
<path d="M0 0 C1.94 1.12 1.94 1.12 3 3 C3.19 6.19 3.19 6.19 3 9 C1.35 9.66 -0.3 10.32 -2 11 C-2 11.99 -2 12.98 -2 14 C-1.01 13.67 -0.02 13.34 1 13 C4.07 15.38 5.3 17.23 5.88 21 C6.12 24.22 6.1 26.4 4 29 C0.54 31.57 -2.82 31.41 -7 31 C-11.72 29.43 -15.19 28.21 -18 24 C-18 22 -18 20 -18 18 C-14.63 16.5 -12.8 16 -9 16 C-9 15.34 -9 14.68 -9 14 C-7.02 14 -5.04 14 -3 14 C-3 13.34 -3 12.68 -3 12 C-9.06 10.92 -9.06 10.92 -15 12 C-15.99 10.35 -16.98 8.7 -18 7 C-7.56 -0.69 -7.56 -0.69 0 0 Z M-15 8 C-14.34 8.66 -13.68 9.32 -13 10 C-13 9.34 -13 8.68 -13 8 C-13.66 8 -14.32 8 -15 8 Z M-14 25 C-14.33 25.66 -14.66 26.32 -15 27 C-14.34 27 -13.68 27 -13 27 C-13.33 26.34 -13.66 25.68 -14 25 Z " fill="#F4C62D" transform="translate(122,821)"/>
<path d="M0 0 C2.09 2.09 1.56 5.63 1.56 8.42 C0.85 11.7 -0.24 12.56 -2.94 14.5 C-3.67 14.94 -4.4 15.39 -5.15 15.84 C-7.15 16.87 -7.15 16.87 -8 19 C-11.06 19.62 -11.06 19.62 -14 20 C-13.67 21.32 -13.34 22.64 -13 24 C-15.31 24 -17.62 24 -20 24 C-20 22.02 -20 20.04 -20 18 C-19.34 17.67 -18.68 17.34 -18 17 C-18.21 16.05 -18.41 15.1 -18.62 14.12 C-18.75 13.09 -18.87 12.06 -19 11 C-18.34 10.34 -17.68 9.68 -17 9 C-16.35 6.43 -16.35 6.43 -16 4 C-15.01 3.67 -14.02 3.34 -13 3 C-12.71 2.17 -12.42 1.35 -12.12 0.5 C-11 -2 -11 -2 -8.75 -3 C-5.17 -3 -3.05 -1.8 0 0 Z M-17 18 C-16 20 -16 20 -16 20 Z " fill="#F2C42D" transform="translate(763,598)"/>
<path d="M0 0 C2.38 1.56 2.38 1.56 4 4 C4.59 6.96 4.39 8.9 4 12 C2.19 14.06 2.19 14.06 0 15 C-0.99 14.67 -1.98 14.34 -3 14 C-3 14.99 -3 15.98 -3 17 C-4.23 17.09 -4.23 17.09 -5.48 17.18 C-7.1 17.31 -7.1 17.31 -8.75 17.44 C-9.82 17.52 -10.88 17.6 -11.98 17.68 C-14.44 17.94 -16.64 18.32 -19 19 C-18.01 17.68 -17.02 16.36 -16 15 C-16.66 15 -17.32 15 -18 15 C-18.41 10.8 -18.56 8.73 -15.94 5.31 C-6.33 -2.25 -6.33 -2.25 0 0 Z " fill="#F8C92E" transform="translate(882,632)"/>
<path d="M0 0 C1.94 1.19 1.94 1.19 3 3 C3.71 7.38 2.22 10.27 0 14 C-2.41 16.8 -4.6 18.54 -8 20 C-8 21.32 -8 22.64 -8 24 C-9.98 24.99 -9.98 24.99 -12 26 C-13 23.3 -13.11 22.28 -12 19.56 C-10.8 16.48 -11.23 15.17 -12 12 C-12.39 7.33 -11.81 4.78 -9 1 C-5.95 -0.52 -3.36 -0.24 0 0 Z " fill="#F5C72D" transform="translate(743,592)"/>
<path d="M0 0 C3.49 1.16 4.15 1.89 6 5 C6.94 8 6.94 8 7 11 C5.33 13.73 3.89 14.76 0.8 15.58 C-0.79 15.9 -2.38 16.17 -3.98 16.41 C-6.38 16.88 -6.38 16.88 -8 20 C-11.12 20.69 -11.12 20.69 -14 21 C-14.51 15.68 -13.25 13.17 -10 9 C-8.56 7.44 -8.56 7.44 -7 6 C-5.73 4.7 -5.73 4.7 -4.44 3.38 C-2 1 -2 1 0 0 Z " fill="#F6C82D" transform="translate(421,783)"/>
<path d="M0 0 C1.61 3.33 1.18 6.4 1 10.06 C-2.98 12.78 -7.14 12.29 -11.75 12.19 C-12.54 12.18 -13.34 12.17 -14.15 12.16 C-16.1 12.14 -18.05 12.1 -20 12.06 C-21.06 10.25 -21.06 10.25 -22 8.06 C-21.67 7.07 -21.34 6.08 -21 5.06 C-20.3 4.98 -19.6 4.9 -18.88 4.81 C-15.85 4.2 -15.85 4.2 -13.19 2.06 C-9.11 -0.49 -4.69 -2.2 0 0 Z M-19 8.06 C-19.33 9.05 -19.66 10.04 -20 11.06 C-19.34 11.06 -18.68 11.06 -18 11.06 C-18.33 10.07 -18.66 9.08 -19 8.06 Z " fill="#F5C72D" transform="translate(511,836.9375)"/>
<path d="M0 0 C2.74 2.22 3.89 3.42 4.56 6.94 C4 10 4 10 2.19 12.88 C-2.37 15.91 -6.66 15.79 -12 15 C-15 13 -15 13 -15.69 10.25 C-14.76 5.85 -12.68 4.66 -9.14 2.1 C-7 1 -7 1 -3 1 C-2.01 0.67 -1.02 0.34 0 0 Z " fill="#F6C82D" transform="translate(884,650)"/>
<path d="M0 0 C5.34 0.58 5.34 0.58 6.93 2.18 C7.02 5.26 6.74 8.19 5.93 11.18 C3.43 13.05 3.43 13.05 0.93 14.18 C0.6 15.17 0.27 16.16 -0.07 17.18 C-0.73 16.85 -1.39 16.52 -2.07 16.18 C-2.07 17.17 -2.07 18.16 -2.07 19.18 C-3.72 19.84 -5.37 20.5 -7.07 21.18 C-7.07 19.53 -7.07 17.88 -7.07 16.18 C-7.73 15.85 -8.39 15.52 -9.07 15.18 C-6.9 0.59 -6.9 0.59 0 0 Z " fill="#F4C52D" transform="translate(721.0703125,595.82421875)"/>
<path d="M0 0 C0.12 7.75 0.12 7.75 -1 10 C-1.99 10.33 -2.98 10.66 -4 11 C-4.66 11.66 -5.32 12.32 -6 13 C-7.34 12.68 -8.67 12.34 -10 12 C-10.8 12.16 -11.61 12.33 -12.44 12.5 C-15.28 13.06 -17.22 12.72 -20 12 C-20.33 10.35 -20.66 8.7 -21 7 C-19.35 6.67 -17.7 6.34 -16 6 C-16 5.01 -16 4.02 -16 3 C-15.24 2.71 -14.47 2.42 -13.69 2.12 C-6.19 -1.01 -6.19 -1.01 0 0 Z " fill="#F6C72D" transform="translate(881,669)"/>
<path d="M0 0 C1.94 1.12 1.94 1.12 3 3 C3.19 6.19 3.19 6.19 3 9 C2.2 9.29 1.39 9.58 0.56 9.88 C-2.13 10.73 -2.13 10.73 -3 13 C-3.99 12.34 -4.98 11.68 -6 11 C-8.3 10.97 -8.3 10.97 -10.69 11.38 C-11.5 11.49 -12.3 11.6 -13.14 11.71 C-14.06 11.85 -14.06 11.85 -15 12 C-15.99 10.35 -16.98 8.7 -18 7 C-7.56 -0.69 -7.56 -0.69 0 0 Z M-15 8 C-14.34 8.66 -13.68 9.32 -13 10 C-13 9.34 -13 8.68 -13 8 C-13.66 8 -14.32 8 -15 8 Z " fill="#F2C42C" transform="translate(122,821)"/>
<path d="M0 0 C1.91 0.81 3.52 1.52 5 3 C5.47 7 5.11 8.8 3.12 12.38 C2.42 13.24 1.72 14.11 1 15 C0.34 15 -0.32 15 -1 15 C-1.33 16.32 -1.66 17.64 -2 19 C-2.99 19 -3.98 19 -5 19 C-7.15 16.62 -8.01 14.89 -7.96 11.66 C-7.71 9.42 -7.4 7.22 -7 5 C-6.36 4.9 -5.72 4.79 -5.06 4.69 C-4.38 4.46 -3.7 4.23 -3 4 C-2.67 3.01 -2.34 2.02 -2 1 C-1.34 0.67 -0.68 0.34 0 0 Z " fill="#F6C72D" transform="translate(704,603)"/>
<path d="M0 0 C2.19 1.69 2.19 1.69 3 4 C2.09 7.82 1.33 8.78 -2 11 C-6.41 11.6 -9.2 10.16 -13 8 C-13.33 7.67 -13.66 7.34 -14 7 C-15.67 6.96 -17.33 6.96 -19 7 C-15.06 0.27 -7.27 -1.3 0 0 Z " fill="#EEC12C" transform="translate(508,852)"/>
<path d="M0 0 C2 3 2 3 1.81 4.88 C0.48 8.37 -0.81 11.22 -4 13.31 C-6 14 -6 14 -9 14 C-9.33 15.32 -9.66 16.64 -10 18 C-11.32 18.33 -12.64 18.66 -14 19 C-13.41 16.39 -12.8 13.79 -12.19 11.19 C-12.02 10.45 -11.86 9.71 -11.69 8.95 C-9.85 1.29 -8.09 -0.88 0 0 Z " fill="#EEC02C" transform="translate(413,778)"/>
<path d="M0 0 C2 2 2 2 2 5 C-1.04 7.86 -3.97 9.86 -8 11 C-11.09 10.64 -12.33 9.78 -15 8 C-15.33 8.66 -15.66 9.32 -16 10 C-17.12 5.25 -17.12 5.25 -16 3 C-15.67 3 -15.34 3 -15 3 C-12.5 1.87 -10.96 0.96 -9 -1 C-5.44 -2.47 -3.37 -1.68 0 0 Z " fill="#EFC22C" transform="translate(870,687)"/>
<path d="M0 0 C0.81 0.11 1.62 0.22 2.45 0.34 C3.37 0.48 3.37 0.48 4.31 0.62 C4.62 2.81 4.62 2.81 4.31 5.62 C2.12 8.44 2.12 8.44 -0.69 10.62 C-3.5 10.94 -3.5 10.94 -5.69 10.62 C-6.02 11.62 -6.35 12.61 -6.69 13.62 C-8.01 13.62 -9.33 13.62 -10.69 13.62 C-10.26 11.66 -9.82 9.71 -9.38 7.75 C-9.13 6.66 -8.89 5.57 -8.64 4.45 C-7.03 -0.34 -4.54 -0.66 0 0 Z " fill="#F6C72D" transform="translate(396.6875,778.375)"/>
<path d="M0 0 C4.69 2.66 4.69 2.66 6.44 4.56 C8.67 6.62 11.13 7.17 14 8 C14 10 14 10 12.64 11.54 C7.7 15.98 7.7 15.98 4.19 16.06 C2 15 2 15 0 12 C-0.7 9.84 -0.7 9.84 -1.25 7.5 C-1.44 6.73 -1.63 5.95 -1.83 5.16 C-2 3 -2 3 0 0 Z " fill="#F8C92E" transform="translate(1184,118)"/>
<path d="M0 0 C0.33 2.31 0.66 4.62 1 7 C-2.25 9.17 -3.19 9.25 -6.94 9.19 C-7.79 9.18 -8.65 9.17 -9.53 9.17 C-11.81 9.01 -13.81 8.64 -16 8 C-16 6.35 -16 4.7 -16 3 C-14 2.33 -12 1.67 -10 1 C-8.45 0.41 -8.45 0.41 -6.88 -0.19 C-3.99 -1 -2.75 -1.06 0 0 Z " fill="#F3C52D" transform="translate(501,864)"/>
<path d="M0 0 C2.31 1.5 2.31 1.5 4 3 C3.88 5.31 3.88 5.31 3 8 C-0.17 10.16 -1.96 11.14 -5.81 10.62 C-6.53 10.42 -7.26 10.21 -8 10 C-8.33 10.33 -8.66 10.66 -9 11 C-10.67 11.04 -12.33 11.04 -14 11 C-13.34 10.01 -12.68 9.02 -12 8 C-11.34 8 -10.68 8 -10 8 C-9.92 7.24 -9.83 6.47 -9.75 5.69 C-9 3 -9 3 -7.25 1.19 C-4.52 -0.25 -3.04 -0.46 0 0 Z " fill="#EDC02C" transform="translate(114,811)"/>
<path d="M0 0 C5.28 0 10.56 0 16 0 C16 5 16 5 14.86 6.8 C14.35 7.3 13.84 7.8 13.31 8.31 C12.81 8.82 12.31 9.34 11.8 9.86 C9.44 11.35 7.74 11.2 5 11 C4.16 9.54 3.33 8.09 2.5 6.62 C1.8 5.41 1.8 5.41 1.09 4.16 C0 2 0 2 0 0 Z M7 8 C7.33 8.66 7.66 9.32 8 10 C8.66 10 9.32 10 10 10 C10 9.34 10 8.68 10 8 C9.01 8 8.02 8 7 8 Z " fill="#F5C72D" transform="translate(971,200)"/>
<path d="M0 0 C3.05 0.18 4.63 0.61 7.19 2.19 C7.23 3.85 7.23 5.52 7.19 7.19 C5.65 8.72 4.07 8.49 1.94 8.69 C-1.37 9.02 -4.57 9.46 -7.81 10.19 C-8.62 8.5 -8.62 8.5 -8.81 6.19 C-6.44 3.5 -6.44 3.5 -3.81 1.19 C-2.81 0.19 -2.81 0.19 0 0 Z " fill="#DEB329" transform="translate(99.8125,804.8125)"/>
<path d="M0 0 C1.94 0.31 3.88 0.62 5.81 0.94 C6.89 1.11 7.97 1.29 9.08 1.46 C12 2 12 2 15 3 C15.99 4.49 15.99 4.49 17 6 C16.67 6.99 16.34 7.98 16 9 C15.01 9 14.02 9 13 9 C12.67 9.66 12.34 10.32 12 11 C12.99 10.67 13.98 10.34 15 10 C15 10.66 15 11.32 15 12 C12.36 11.67 9.72 11.34 7 11 C6.88 10.36 6.75 9.72 6.62 9.06 C6.42 8.38 6.21 7.7 6 7 C5.34 6.67 4.68 6.34 4 6 C3.67 5.34 3.34 4.68 3 4 C2.01 3.67 1.02 3.34 0 3 C0 2.01 0 1.02 0 0 Z " fill="#DFB529" transform="translate(148,904)"/>
<path d="M0 0 C0.23 2.3 0.23 2.3 0 5 C-1.61 6.77 -1.61 6.77 -3.75 8.25 C-4.79 9 -4.79 9 -5.86 9.77 C-7.94 10.96 -9.66 11.56 -12 12 C-12.3 4.26 -12.3 4.26 -10 1 C-6.15 -1.57 -4.41 -0.83 0 0 Z " fill="#EBBE2B" transform="translate(385,781)"/>
<path d="M0 0 C2.25 1.12 2.25 1.12 4.25 3.12 C4.25 4.45 4.25 5.76 4.25 7.12 C-4.32 8.55 -4.32 8.55 -7.75 6.12 C-7.75 5.47 -7.75 4.8 -7.75 4.12 C-8.74 4.12 -9.73 4.12 -10.75 4.12 C-11.08 2.8 -11.41 1.49 -11.75 0.12 C-7.56 -1.27 -4.22 -1.34 0 0 Z M2.25 3.12 C1.59 3.78 0.93 4.45 0.25 5.12 C1.24 5.12 2.23 5.12 3.25 5.12 C2.92 4.47 2.59 3.8 2.25 3.12 Z " fill="#E2B72A" transform="translate(150.75,912.875)"/>
<path d="M0 0 C3.63 -0.2 5.87 0.14 9 2 C8.69 4.38 8.69 4.38 8 7 C4.29 9.47 2.39 9.39 -2 9 C-4.44 7.5 -4.44 7.5 -6 6 C-5.67 4.68 -5.34 3.36 -5 2 C-3.35 1.67 -1.7 1.34 0 1 C0 0.67 0 0.34 0 0 Z M6 4 C6 4.66 6 5.32 6 6 C6.66 5.67 7.32 5.34 8 5 C7.34 4.67 6.68 4.34 6 4 Z " fill="#F2C42D" transform="translate(482,875)"/>
<path d="M0 0 C1.05 0.41 2.1 0.83 3.19 1.25 C3.19 2.9 3.19 4.55 3.19 6.25 C1.87 6.25 0.55 6.25 -0.81 6.25 C-1.14 5.92 -1.47 5.59 -1.81 5.25 C-1.81 6.24 -1.81 7.23 -1.81 8.25 C-4.12 8.58 -6.43 8.91 -8.81 9.25 C-9.12 6.5 -9.12 6.5 -8.81 3.25 C-5.79 -0.42 -4.73 -0.93 0 0 Z " fill="#E4B92A" transform="translate(89.8125,801.75)"/>
<path d="M0 0 C1.44 0.11 2.88 0.24 4.31 0.38 C5.51 0.48 5.51 0.48 6.74 0.59 C9 1 9 1 12 3 C12.19 5.62 12.19 5.62 12 8 C4.7 8.49 4.7 8.49 1.5 6.25 C0 4 0 4 0 0 Z " fill="#F4C62D" transform="translate(129,917)"/>
<path d="M0 0 C2.31 0.33 4.62 0.66 7 1 C6.5 4.69 5.9 6.6 3 9 C3.66 9 4.32 9 5 9 C5.33 10.98 5.66 12.96 6 15 C3.36 14.67 0.72 14.34 -2 14 C-1.67 13.34 -1.34 12.68 -1 12 C-0.01 12 0.98 12 2 12 C1.26 11.35 1.26 11.35 0.5 10.69 C-1 9 -1 9 -1 6 C-0.01 5.67 0.98 5.34 2 5 C1.01 5 0.02 5 -1 5 C-0.67 3.35 -0.34 1.7 0 0 Z M3 2 C3 2.66 3 3.32 3 4 C3.66 3.67 4.32 3.34 5 3 C4.34 2.67 3.68 2.34 3 2 Z " fill="#D7AE27" transform="translate(950,203)"/>
<path d="M0 0 C2.38 -0.19 2.38 -0.19 5 0 C5.66 0.99 6.32 1.98 7 3 C7.99 3.66 8.98 4.32 10 5 C9.01 5.66 8.02 6.32 7 7 C6.67 7.99 6.34 8.98 6 10 C3 9 3 9 1.94 7.06 C1.63 6.38 1.32 5.7 1 5 C0.34 4.34 -0.32 3.68 -1 3 C-0.67 2.01 -0.34 1.02 0 0 Z " fill="#EEC12C" transform="translate(1207,138)"/>
<path d="M0 0 C2.47 0.5 2.47 0.5 5 1 C6.81 5.46 7.12 8.31 6 13 C5.01 12.34 4.02 11.68 3 11 C3 10.01 3 9.02 3 8 C2.01 7.67 1.02 7.34 0 7 C0 4.69 0 2.38 0 0 Z " fill="#E3B82A" transform="translate(1219,167)"/>
<path d="M0 0 C1.16 0.9 2.3 1.82 3.44 2.75 C4.08 3.26 4.71 3.77 5.37 4.3 C7.19 6.2 7.6 7.44 8 10 C4.66 8.83 2.19 7.85 0 5 C-0.75 2.88 -0.75 2.88 -1 1 C-0.67 0.67 -0.34 0.34 0 0 Z " fill="#F0C32C" transform="translate(1002,210)"/>
<path d="M0 0 C1.98 0.5 1.98 0.5 4 1 C4 1.66 4 2.32 4 3 C4.66 3 5.32 3 6 3 C6.33 4.98 6.66 6.96 7 9 C4.36 8.67 1.72 8.34 -1 8 C-0.67 7.34 -0.34 6.68 0 6 C0.99 6 1.98 6 3 6 C2.5 5.57 2.01 5.13 1.5 4.69 C0 3 0 3 0 0 Z " fill="#D3AB27" transform="translate(949,209)"/>
<path d="M0 0 C-1.69 2.04 -2.64 2.92 -5.26 3.51 C-6.06 3.57 -6.86 3.63 -7.69 3.69 C-8.5 3.75 -9.3 3.82 -10.14 3.89 C-11.06 3.94 -11.06 3.94 -12 4 C-11.67 2.68 -11.34 1.36 -11 0 C-3.57 -1.29 -3.57 -1.29 0 0 Z " fill="#F0C32C" transform="translate(1167,122)"/>
<path d="M0 0 C2.84 1.27 5.14 2.45 7 5 C6.69 7.19 6.69 7.19 6 9 C5.67 8.67 5.34 8.34 5 8 C4.34 8.66 3.68 9.32 3 10 C0 3.38 0 3.38 0 0 Z " fill="#E8BC2B" transform="translate(1028,254)"/>
<path d="M0 0 C1.32 0 2.64 0 4 0 C4.66 2.97 5.32 5.94 6 9 C4.68 9.33 3.36 9.66 2 10 C1.34 6.7 0.68 3.4 0 0 Z " fill="#E6BB2A" transform="translate(912,352)"/>
<path d="M0 0 C2 2 2 2 2.12 4.62 C2.08 5.41 2.04 6.19 2 7 C0.35 7 -1.3 7 -3 7 C-2.62 4.06 -2.62 4.06 -2 1 C-1.34 0.67 -0.68 0.34 0 0 Z " fill="#C29D24" transform="translate(861,643)"/>
<path d="M0 0 C1.32 0.33 2.64 0.66 4 1 C3.67 2.32 3.34 3.64 3 5 C-0.75 6.12 -0.75 6.12 -3 5 C-2.67 4.01 -2.34 3.02 -2 2 C-1.34 2 -0.68 2 0 2 C0 1.34 0 0.68 0 0 Z " fill="#DCB228" transform="translate(864,659)"/>
<path d="M0 0 C-2.28 3.41 -3.35 3.54 -7 5 C-7.66 5.99 -8.32 6.98 -9 8 C-9.33 6.68 -9.66 5.36 -10 4 C-6.59 0.88 -4.68 -0.54 0 0 Z " fill="#F8C92E" transform="translate(1123,145)"/>
<path d="M0 0 C1.56 1.25 1.56 1.25 3 3 C2.69 5.19 2.69 5.19 2 7 C0.68 7.33 -0.64 7.66 -2 8 C-2.69 6.25 -2.69 6.25 -3 4 C-1.56 1.75 -1.56 1.75 0 0 Z " fill="#DBB128" transform="translate(733,610)"/>
<path d="M0 0 C-0.48 4.31 -1.75 6.17 -5 9 C-5.33 7.68 -5.66 6.36 -6 5 C-5.34 5 -4.68 5 -4 5 C-4.33 4.01 -4.66 3.02 -5 2 C-2 0 -2 0 0 0 Z " fill="#C8A225" transform="translate(1172,287)"/>
<path d="M0 0 C1.32 0.66 2.64 1.32 4 2 C3.34 2.66 2.68 3.32 2 4 C2.66 4.33 3.32 4.66 4 5 C3.67 5.99 3.34 6.98 3 8 C1.02 6.68 -0.96 5.36 -3 4 C-2.01 2.68 -1.02 1.36 0 0 Z " fill="#CCA626" transform="translate(1206,146)"/>
<path d="M0 0 C0.66 0.33 1.32 0.66 2 1 C2 1.99 2 2.98 2 4 C1.44 4.1 0.89 4.21 0.31 4.31 C-2.44 5.13 -4.59 6.46 -7 8 C-5.51 4.2 -3.24 2.39 0 0 Z " fill="#D6AD27" transform="translate(1082,278)"/>
<path d="M0 0 C2.64 0 5.28 0 8 0 C8 0.99 8 1.98 8 3 C3.45 3.37 3.45 3.37 1.19 1.5 C0.6 0.76 0.6 0.76 0 0 Z " fill="#B69421" transform="translate(1013,219)"/>
<path d="M0 0 C0.33 0.66 0.66 1.32 1 2 C1.99 2 2.98 2 4 2 C4 2.99 4 3.98 4 5 C2.35 4.67 0.7 4.34 -1 4 C-1.33 3.01 -1.66 2.02 -2 1 C-1.34 0.67 -0.68 0.34 0 0 Z " fill="#CEA726" transform="translate(1146,119)"/>
<path d="M0 0 C1.94 0.5 1.94 0.5 4 2 C4.69 4.7 4.82 7.2 5 10 C4.34 10 3.68 10 3 10 C0 3.38 0 3.38 0 0 Z " fill="#DAB128" transform="translate(995,389)"/>
<path d="M0 0 C1.68 0.29 3.34 0.62 5 1 C4.34 1.66 3.68 2.32 3 3 C1.68 2.34 0.36 1.68 -1 1 C-0.67 0.67 -0.34 0.34 0 0 Z " fill="#F8C92E" transform="translate(821,635)"/>
<path d="M0 0 C0.99 0 1.98 0 3 0 C3 0.99 3 1.98 3 3 C1.68 2.67 0.36 2.34 -1 2 C-0.67 1.34 -0.34 0.68 0 0 Z " fill="#F8C92E" transform="translate(1025,224)"/>
<path d="M0 0 C0.33 0 0.66 0 1 0 C1 2.97 1 5.94 1 9 C0.67 9 0.34 9 0 9 C0 6.03 0 3.06 0 0 Z " fill="#000000" transform="translate(784,618)"/>
<path d="M0 0 C0.66 0.66 1.32 1.32 2 2 C1.01 2.66 0.02 3.32 -1 4 C-1 1 -1 1 0 0 Z " fill="#BA9622" transform="translate(101,844)"/>
<path d="M0 0 C0.99 0 1.98 0 3 0 C3 0.99 3 1.98 3 3 C2.01 2.67 1.02 2.34 0 2 C0 1.34 0 0.68 0 0 Z " fill="#F8C92E" transform="translate(1177,131)"/>
<path d="M0 0 C2.31 0 4.62 0 7 0 C7 0.33 7 0.66 7 1 C4.69 1 2.38 1 0 1 C0 0.67 0 0.34 0 0 Z " fill="#000000" transform="translate(424,883)"/>
<path d="M0 0 C2.31 0 4.62 0 7 0 C7 0.33 7 0.66 7 1 C4.69 1 2.38 1 0 1 C0 0.67 0 0.34 0 0 Z " fill="#000000" transform="translate(1074,389)"/>
<path d="M0 0 C0.66 0 1.32 0 2 0 C2.33 0.99 2.66 1.98 3 3 C2.01 3 1.02 3 0 3 C0 2.01 0 1.02 0 0 Z " fill="#F8C92E" transform="translate(1034,355)"/>
<path d="M0 0 C1.32 0 2.64 0 4 0 C4 0.66 4 1.32 4 2 C2.68 1.67 1.36 1.34 0 1 C0 0.67 0 0.34 0 0 Z " fill="#F8C92E" transform="translate(940,206)"/>
<path d="M0 0 C0.99 0.33 1.98 0.66 3 1 C3 1.66 3 2.32 3 3 C2.01 2.67 1.02 2.34 0 2 C0 1.34 0 0.68 0 0 Z " fill="#F8C92E" transform="translate(1219,146)"/>
<path d="M0 0 C1.48 0.99 1.48 0.99 3 2 C1.68 2.33 0.36 2.66 -1 3 C-0.67 2.01 -0.34 1.02 0 0 Z " fill="#F8C92E" transform="translate(1205,142)"/>
<path d="M0 0 C0.33 0 0.66 0 1 0 C1 1.98 1 3.96 1 6 C0.67 6 0.34 6 0 6 C0 4.02 0 2.04 0 0 Z " fill="#000000" transform="translate(513,840)"/>
<path d="M0 0 C1.98 0 3.96 0 6 0 C6 0.33 6 0.66 6 1 C4.02 1 2.04 1 0 1 C0 0.67 0 0.34 0 0 Z " fill="#000000" transform="translate(97,814)"/>
<path d="M0 0 C1.32 0.33 2.64 0.66 4 1 C2.68 1.33 1.36 1.66 0 2 C0 1.34 0 0.68 0 0 Z " fill="#F8C92E" transform="translate(802,713)"/>
<path d="M0 0 C0.66 0 1.32 0 2 0 C2 0.99 2 1.98 2 3 C1.34 3 0.68 3 0 3 C0 2.01 0 1.02 0 0 Z " fill="#A5861E" transform="translate(1146,316)"/>
<path d="M0 0 C0.33 0.99 0.66 1.98 1 3 C0.01 2.67 -0.98 2.34 -2 2 C-1.34 1.34 -0.68 0.68 0 0 Z " fill="#F8C92E" transform="translate(1089,270)"/>
<path d="M0 0 C0.66 0.66 1.32 1.32 2 2 C1.34 2.66 0.68 3.32 0 4 C-0.33 3.34 -0.66 2.68 -1 2 C-0.67 1.34 -0.34 0.68 0 0 Z " fill="#F8C92E" transform="translate(956,209)"/>
<path d="M0 0 C0.99 0.33 1.98 0.66 3 1 C3 1.66 3 2.32 3 3 C2.34 3 1.68 3 1 3 C0.67 2.01 0.34 1.02 0 0 Z " fill="#CEA726" transform="translate(1136,120)"/>
<path d="M0 0 C0.66 0.66 1.32 1.32 2 2 C1.34 2.66 0.68 3.32 0 4 C0 2.68 0 1.36 0 0 Z " fill="#F8C92E" transform="translate(407,830)"/>
<path d="M0 0 C0.33 0 0.66 0 1 0 C1 1.65 1 3.3 1 5 C0.67 5 0.34 5 0 5 C0 3.35 0 1.7 0 0 Z " fill="#000000" transform="translate(439,806)"/>
<path d="M0 0 C1.65 0 3.3 0 5 0 C5 0.33 5 0.66 5 1 C3.35 1 1.7 1 0 1 C0 0.67 0 0.34 0 0 Z " fill="#000000" transform="translate(858,651)"/>
<path d="M0 0 C0.99 0 1.98 0 3 0 C3 0.66 3 1.32 3 2 C2.01 1.67 1.02 1.34 0 1 C0 0.67 0 0.34 0 0 Z " fill="#F8C92E" transform="translate(996,480)"/>
<path d="M0 0 C0.33 0 0.66 0 1 0 C1 1.65 1 3.3 1 5 C0.67 5 0.34 5 0 5 C0 3.35 0 1.7 0 0 Z " fill="#000000" transform="translate(1009,440)"/>
<path d="M0 0 C0.33 0 0.66 0 1 0 C1 1.65 1 3.3 1 5 C0.67 5 0.34 5 0 5 C0 3.35 0 1.7 0 0 Z " fill="#000000" transform="translate(1216,192)"/>
</svg>
